<svg width="36" height="45" viewBox="0 0 36 45" fill="none" xmlns="http://www.w3.org/2000/svg">
<path d="M35.7081 4.41676C35.6911 4.312 35.582 4.2344 35.4535 4.2344H32.1709C32.0545 4.2344 31.9527 4.29842 31.9236 4.3896C31.5866 5.43523 30.3841 6.31597 29.807 6.31597C29.3852 6.31597 28.8954 6.21509 28.7863 5.76502V5.39837C28.8179 5.28392 28.8785 5.18692 28.9609 5.10544C28.973 5.50119 29.3731 5.82322 29.8676 5.82322C30.3671 5.82322 30.7744 5.49343 30.7744 5.08798C30.7744 4.68253 30.3671 4.35274 29.8676 4.35468C29.4919 4.35468 29.1064 4.46138 28.8082 4.64955C28.8009 4.65343 28.796 4.65925 28.7863 4.66313V4.29842C28.7863 4.18396 28.6724 4.09085 28.5294 4.09085H20.8706L20.6136 3.49528C20.5796 3.4138 20.4875 3.35949 20.3833 3.35561C20.279 3.35173 20.182 3.40022 20.1384 3.47588L18.8486 5.75338L18.6643 5.50119C18.5019 5.16946 18.5068 4.79117 18.674 4.46526L19.4329 3.09953C19.6996 2.58738 19.6947 1.99958 19.4183 1.48937L18.9504 0.624157C18.9092 0.548499 18.8171 0.5 18.7153 0.5C18.6134 0.5 18.5213 0.548498 18.4801 0.626096L16.6254 4.09085H7.18467C7.04163 4.09085 6.92767 4.18396 6.92767 4.30036V4.65925C6.92767 4.65925 6.91797 4.65343 6.91312 4.64955C6.61492 4.46138 6.22944 4.35468 5.85365 4.35468C5.35422 4.35468 4.94691 4.68447 4.94691 5.08992C4.94691 5.49537 5.35422 5.82516 5.85365 5.82516C6.35308 5.82516 6.74828 5.50507 6.7604 5.10738C6.83556 5.18304 6.89373 5.27034 6.92767 5.37509V5.79218C6.80645 6.22091 6.32399 6.31985 5.91426 6.31985C5.33724 6.31985 4.13473 5.43911 3.79774 4.39348C3.76864 4.3023 3.66682 4.23828 3.54803 4.23828H0.265338C0.134419 4.23828 0.0253225 4.31588 0.010776 4.42064C0.00107823 4.48078 -0.190448 5.9047 1.54544 7.66617C0.910244 8.32382 0.5393 9.19873 0.5393 10.0814V13.6936C0.5393 13.7906 0.621733 13.874 0.738105 13.8954C0.757501 13.8992 0.776894 13.9012 0.796289 13.9012C0.890842 13.9012 0.980549 13.8585 1.02661 13.7867L2.38914 11.5771H4.74084C4.84509 11.5771 4.93964 11.5267 4.97843 11.4491C5.01965 11.3715 4.99541 11.2822 4.92268 11.2221L3.4559 10.0349L3.92138 9.65656C5.28391 10.7526 6.68039 11.872 7.01496 12.1416V13.1853C7.01496 13.8876 7.13376 14.586 7.36408 15.263C7.36893 15.2766 7.37619 15.2902 7.38346 15.3018L5.28391 15.5133C5.22573 15.5191 5.17482 15.5404 5.1336 15.5715L3.71289 16.716V15.62C3.71289 15.2941 3.8244 14.9778 4.03533 14.7004L5.88517 12.2794C5.95305 12.1882 5.92881 12.0718 5.82698 12.0058C5.72516 11.9399 5.57727 11.9476 5.48515 12.0214L2.40126 14.5161C1.89698 14.9255 1.61817 15.4686 1.61817 16.0468V28.639C1.61817 30.4683 2.50066 32.1871 4.09836 33.4791L17.6412 44.4379C17.6412 44.4379 17.6485 44.4437 17.6534 44.4476C17.6606 44.4534 17.6679 44.4593 17.6776 44.4631C17.6825 44.467 17.6897 44.467 17.6946 44.4709C17.7043 44.4748 17.714 44.4787 17.7212 44.4825C17.7285 44.4845 17.7334 44.4864 17.7406 44.4884C17.7503 44.4903 17.76 44.4922 17.7697 44.4961C17.777 44.4961 17.7867 44.4961 17.7964 44.4981C17.8037 44.4981 17.811 44.5 17.8182 44.5H17.8207C17.8207 44.5 17.8279 44.5 17.8303 44.5C17.8449 44.5 17.8594 44.5 17.8716 44.4961C17.8861 44.4942 17.9031 44.4903 17.9152 44.4845C17.9152 44.4845 17.9176 44.4845 17.92 44.4845C17.9516 44.4748 17.9782 44.4593 18.0025 44.4399L31.5938 33.4384C33.1891 32.1483 34.0668 30.4334 34.0716 28.6079L34.0886 16.7917C34.0886 16.652 34.0789 16.5143 34.0619 16.3765C34.0571 16.3474 34.0546 16.3183 34.0498 16.2892C34.0352 16.1922 34.0086 16.0623 33.9843 15.9575C33.9771 15.9362 33.9722 15.9168 33.9674 15.8993C33.7637 15.1583 33.3031 14.4773 32.6218 13.9264L30.8204 12.4695C30.355 12.0931 29.7585 11.8642 29.1161 11.8099C29.6664 11.3695 30.721 10.5218 31.7951 9.65656L32.2581 10.031L30.7914 11.2182C30.7186 11.2764 30.6968 11.3676 30.7356 11.4452C30.7768 11.5228 30.8689 11.5732 30.9732 11.5732H33.3273L34.6898 13.7828C34.7335 13.8546 34.8232 13.8973 34.9202 13.8973C34.9396 13.8973 34.9589 13.8973 34.9783 13.8915C35.0947 13.8701 35.1771 13.7867 35.1771 13.6897V10.0775C35.1771 9.19679 34.8062 8.32382 34.1734 7.66617C35.9142 5.90082 35.7202 4.47496 35.7129 4.41482M29.8652 4.76983C30.081 4.76983 30.258 4.91338 30.258 5.08798C30.258 5.26258 30.081 5.40613 29.8652 5.40807C29.647 5.40807 29.47 5.26452 29.47 5.08798C29.47 4.91144 29.647 4.76983 29.8652 4.76983ZM5.84881 5.40807C5.63304 5.40807 5.45605 5.26452 5.45605 5.08992C5.45605 4.91533 5.63304 4.77177 5.84881 4.77177C6.06458 4.77177 6.24157 4.91533 6.24157 5.08992C6.24157 5.26646 6.06458 5.40807 5.84881 5.40807ZM28.2699 4.50794V5.36733C28.2651 5.39255 28.2602 5.41971 28.2554 5.44493C28.1245 5.39061 27.9766 5.35957 27.8214 5.35957H21.3482C21.3215 5.14424 21.2536 4.93278 21.1445 4.73297L21.0476 4.50794H28.2699ZM21.1567 6.36641C21.2561 6.17629 21.3191 5.97842 21.3458 5.77666H27.8214C28.0687 5.77666 28.2699 5.93962 28.2699 6.13943V9.12696C28.2699 9.18128 28.2384 9.23171 28.1827 9.26275C28.1269 9.29379 28.059 9.29961 27.996 9.28021L25.7388 8.56049C25.7097 8.55079 25.6758 8.54691 25.6443 8.54691C25.2588 8.54691 24.8951 8.68271 24.6478 8.92326L21.9034 11.5752C21.7531 11.7187 21.5349 11.8021 21.3021 11.8021H21.1203C20.4584 11.8021 19.9032 12.2037 19.8281 12.7333L19.4571 15.3503L17.3818 14.9119C17.2946 14.8925 17.2 14.9119 17.137 14.9643L16.429 15.5307L16.269 14.3338C16.2496 14.1902 16.3102 14.0486 16.4363 13.9458L19.6075 11.354C19.7166 11.2648 19.8693 11.2124 20.0269 11.2124H20.599C20.8391 11.2124 21.0597 11.1173 21.1955 10.9563C21.3288 10.7953 21.3555 10.5936 21.2658 10.4131L20.4512 8.7894C20.2717 8.38589 20.2911 7.94747 20.5069 7.5556L21.1567 6.37029V6.36641ZM26.2092 21.2187C26.2092 21.2187 26.2092 21.2187 26.2092 21.2206C26.2092 21.2206 26.2092 21.2206 26.2116 21.2206L28.0517 22.7163L23.7678 26.183C24.0054 25.5079 23.9375 24.7707 23.535 24.1131L21.3215 20.4834C21.5931 20.367 21.8452 20.2177 22.0682 20.0353L22.5143 19.6764C22.6137 19.5949 22.6137 19.463 22.5143 19.3815C22.4149 19.3 22.2501 19.3 22.1507 19.3815L21.707 19.7404C21.2124 20.14 20.5554 20.3612 19.8547 20.3612H19.2632L19.6075 17.9227C19.8838 18.0022 20.1942 18.0488 20.5409 18.0488C20.6839 18.0488 20.7978 17.9557 20.7978 17.8412C20.7978 17.7268 20.6839 17.6336 20.5409 17.6336C18.7734 17.6336 18.1479 16.1632 18.1237 16.1011C18.1067 16.0603 18.0485 15.9536 17.8522 15.9536C17.7285 15.9536 17.5976 16.0448 17.5976 16.1244C17.5055 16.2078 17.297 16.3591 16.88 16.4697C16.5575 16.557 16.2157 16.522 15.9684 16.4697L17.3891 15.3348L19.5371 15.7887L24.2721 19.6376C24.2721 19.6376 24.2866 19.6551 24.2963 19.6628C24.306 19.6686 24.3157 19.6764 24.3254 19.6822L26.2068 21.2128L26.2092 21.2187ZM24.8466 19.5193L25.894 18.6734C26.6092 18.0934 27.2032 17.4299 27.659 16.7025C28.0469 17.1545 28.2699 17.7015 28.2699 18.3049C28.2699 18.9218 27.9742 19.5018 27.4335 19.9383L26.3934 20.7802L24.8466 19.5212V19.5193ZM20.3202 26.635V23.1819L21.7094 22.0567L23.0768 24.2974C23.6563 25.2479 23.4235 26.3925 22.4974 27.1433L21.7313 27.7641L20.3227 26.6331L20.3202 26.635ZM21.4112 28.0938L20.4633 28.8621C19.4135 29.7118 18.6256 30.7186 18.1334 31.8166V28.6079L20.0826 27.0288L21.4112 28.0938ZM15.2459 16.5938C15.2605 16.6598 15.3114 16.718 15.3865 16.7471C15.4229 16.7607 16.2496 17.0846 17.0497 16.8674C17.2727 16.8072 17.4546 16.7354 17.5976 16.6637V17.2534H14.921L14.7392 16.103H15.7041L15.3186 16.4115C15.2605 16.458 15.2314 16.5259 15.2459 16.5919M17.5976 17.6705V18.3514H15.132L15.0035 17.6705H17.5976ZM17.5976 18.7685V19.4611H15.3259L15.2047 18.7685H17.5976ZM17.5976 19.8782V20.3651H15.4835L15.3962 19.8782H17.5976ZM17.8546 20.7802C17.9976 20.7802 18.1116 20.6871 18.1116 20.5727V16.9566C18.3443 17.2282 18.6765 17.5231 19.1201 17.7384L18.1892 24.3148L17.6218 24.6155L17.1176 20.7802H17.8546ZM7.43681 4.50794H16.3975L16.046 5.1617C16.012 5.22572 15.9854 5.29362 15.9684 5.36151H7.88532C7.73258 5.36151 7.58712 5.39255 7.45862 5.44299C7.45377 5.40613 7.44651 5.37121 7.43681 5.33629V4.50794ZM7.43681 6.13943C7.43681 5.93962 7.63803 5.77666 7.88532 5.77666H15.9635C15.9805 5.84262 16.0023 5.90858 16.0363 5.9726L16.5405 6.97749C16.6157 7.12881 16.6133 7.3034 16.5357 7.45084L14.2155 11.6625L10.7559 8.86312C10.511 8.66525 10.1837 8.55467 9.83699 8.55467C9.80062 8.55467 9.76668 8.56049 9.73517 8.57213L7.71561 9.27051C7.62591 9.30155 7.55318 9.27051 7.52651 9.25693C7.49984 9.24335 7.43681 9.19873 7.43681 9.12114V6.14137V6.13943ZM4.11534 11.1581H2.22428C2.12731 11.1581 2.0376 11.2027 1.99396 11.2745L1.04601 12.8109V10.0814C1.04601 9.5809 1.17692 9.08428 1.41694 8.64003C1.48483 8.92908 1.65696 9.19292 1.9188 9.40631L4.11291 11.162L4.11534 11.1581ZM3.07526 9.74774L2.28489 9.10756C1.80728 8.72151 1.77576 8.11042 2.18791 7.69333C2.20246 7.68169 2.21459 7.67005 2.22914 7.65841L2.84008 7.16373C3.33467 7.62737 3.86077 8.0658 4.19535 8.33934L4.50567 8.58959L3.07526 9.74774ZM2.12973 16.0468C2.12973 15.5792 2.35519 15.1408 2.7625 14.811L4.28505 13.5772L3.5965 14.4812C3.33467 14.8226 3.19648 15.2165 3.19648 15.618V17.073C3.19648 17.0904 3.20133 17.106 3.20617 17.1215L2.12973 17.9886V16.0448V16.0468ZM2.12973 18.5784L5.4318 15.9148L8.34597 15.62L6.52522 16.1922C6.49128 16.2019 6.46219 16.2194 6.43552 16.2388L2.12973 19.723V18.5764V18.5784ZM17.5443 34.3463C17.5443 34.3987 17.5418 34.4511 17.5394 34.5054C16.926 32.804 15.789 31.2443 14.1986 29.9562L10.1061 26.6408C10.1061 26.6408 10.0819 26.6234 10.0673 26.6156L9.62849 26.2587C9.29877 25.9929 9.30605 25.6553 9.42242 25.4264C9.53879 25.1975 9.82972 24.955 10.2928 24.955H11.8056C11.5705 25.892 11.922 26.8833 12.7803 27.5778L14.7465 29.1511C16.2254 30.3228 17.1879 31.8729 17.4909 33.5218C17.5418 33.7954 17.554 34.0728 17.5443 34.3482M17.5564 37.5181V37.6791C17.2703 37.1883 16.88 36.7363 16.3975 36.3522L12.6251 33.3492C12.6008 33.3278 12.579 33.3045 12.5524 33.2851L10.1546 31.3433C9.91458 31.1512 9.91942 30.9048 10.0043 30.738C10.0891 30.5731 10.3001 30.3946 10.6395 30.3946H11.3547C11.9341 30.3946 12.4336 30.125 12.6542 29.6924C12.7075 29.5876 12.7415 29.4809 12.756 29.3742L13.8349 30.2472C16.2351 32.1891 17.5564 34.7712 17.5564 37.5181ZM13.1439 27.2829C12.2372 26.5496 11.9923 25.4245 12.5354 24.4855L13.9537 22.0199L15.3914 23.1858V26.6408L13.9003 27.8979L13.1415 27.2849L13.1439 27.2829ZM11.9511 24.5399C11.9511 24.5399 11.9365 24.5379 11.9293 24.5379H10.2952C9.75456 24.5379 9.27695 24.8502 9.02724 25.0675C8.53265 25.4962 4.04503 29.1705 4.04503 29.1705C4.04018 29.0425 4.03775 28.9203 4.03775 28.8058V21.9869C4.03775 21.9714 4.03534 21.9578 4.03291 21.9442L5.64272 23.0073L7.02465 25.8668C7.06344 25.9463 7.16042 25.9987 7.26467 25.9987C7.27922 25.9987 7.29619 25.9987 7.31073 25.9948C7.43196 25.9754 7.52166 25.8901 7.52166 25.7911V22.5805C7.52166 22.5262 7.49499 22.4738 7.44893 22.435L5.06087 20.4466H7.7835L10.5886 21.7968C10.6298 21.8162 10.6758 21.8259 10.7195 21.8259C10.7995 21.8259 10.8747 21.7968 10.9256 21.7424C11.0056 21.6571 10.9935 21.5388 10.8965 21.465L7.76896 18.7995C7.73016 18.7704 7.68167 18.751 7.62833 18.7452L4.23656 18.6094L6.76281 16.5647L7.81017 16.2369C7.81017 16.266 7.81745 16.2931 7.83199 16.3203C8.31203 17.201 8.98359 17.9945 9.82487 18.6754L13.573 21.7075C13.573 21.7075 11.9923 24.4642 11.956 24.5418M4.34081 20.4466L7.00525 22.6639V24.6873L6.09368 22.8036C6.07671 22.7706 6.05004 22.7415 6.0161 22.7182L2.57825 20.4466H4.34081ZM2.47884 20.0295L3.77834 18.978L7.47559 19.1487L9.19452 20.6153L7.98473 20.0586C7.94594 20.0392 7.89987 20.0295 7.8538 20.0295H2.48127H2.47884ZM4.45719 33.1862C2.95647 31.9718 2.12973 30.3578 2.12973 28.6409V20.6871L3.52135 21.6086V28.8058C3.52135 29.8747 3.69106 31.6711 4.64143 33.3375L4.45719 33.1862ZM4.07896 29.7234L8.8454 25.8687C8.88419 26.119 9.02723 26.3576 9.2624 26.5496L12.0481 28.8039C12.2929 29.0444 12.2784 29.3354 12.1766 29.5352C12.065 29.7506 11.7911 29.9814 11.3523 29.9814H10.6371C10.3461 29.9814 10.0819 30.061 9.87336 30.2006C9.81517 30.2045 5.45363 33.71 5.45363 33.71C4.5178 32.3773 4.1808 30.8718 4.07655 29.7234M6.16398 34.5675C6.15671 34.5519 6.14701 34.5403 6.13246 34.5267C5.98942 34.3812 5.85607 34.2299 5.73243 34.0766L9.44423 31.0717C9.47575 31.2812 9.59213 31.481 9.79094 31.6401L12.1014 33.5102C12.1111 33.5238 12.1232 33.5354 12.1378 33.547L12.2445 33.6324C12.4117 33.8051 12.402 34.0088 12.3293 34.1484C12.2493 34.3036 12.0505 34.4705 11.7353 34.4705C11.4201 34.4705 11.1244 34.5675 10.9086 34.7362C10.8165 34.8158 8.80176 36.4414 8.64174 36.5714L6.16398 34.5675ZM9.01512 36.8741L10.5522 35.6286C10.5983 35.8129 10.7098 35.9856 10.8868 36.1272L15.5247 39.8111C16.8363 40.8548 17.5806 42.304 17.5685 43.7939L9.01512 36.8741ZM17.5928 41.6289C17.2194 40.8393 16.6424 40.1157 15.8859 39.5143L11.2504 35.8323C11.0128 35.6383 11.0177 35.3919 11.1025 35.227C11.1171 35.1979 11.1365 35.1688 11.1583 35.1397C11.1583 35.1397 11.2117 35.0777 11.2577 35.0408C11.3692 34.9516 11.5292 34.8856 11.7353 34.8856C12.2105 34.8856 12.6227 34.6645 12.8045 34.3075C12.8336 34.2493 12.8554 34.1892 12.8724 34.131L16.0387 36.651C17.0254 37.4386 17.5928 38.5327 17.5928 39.654V41.6289ZM17.6194 32.1522C17.1248 30.9126 16.2666 29.7738 15.1053 28.8524L14.2689 28.1889L15.6556 27.0191L17.6194 28.6079V32.1503V32.1522ZM17.8764 28.2277L15.9078 26.635V23.0946C15.9078 23.0403 15.8811 22.9879 15.8326 22.9472L14.0628 21.5155C14.0628 21.5155 14.0579 21.5097 14.0531 21.5077L10.1837 18.3766C9.38606 17.7326 8.75327 16.9837 8.29748 16.1496C8.28536 16.1282 8.27081 16.1108 8.25141 16.0933L10.4698 15.3969C10.591 15.3581 10.6589 15.2533 10.6274 15.1524C10.5958 15.0496 10.4746 14.9837 10.3461 14.9972L7.89018 15.2494C7.87563 15.2223 7.86593 15.1815 7.8538 15.1486C7.63561 14.5084 7.52409 13.8469 7.52409 13.1834V12.0543C7.52409 11.9981 7.49741 11.9457 7.4465 11.9069C7.4465 11.9069 5.8391 10.6188 4.27777 9.36169L4.8669 8.88446L6.96162 10.58C7.01253 10.6207 7.07799 10.6421 7.14345 10.6401C7.20891 10.6401 7.27679 10.6188 7.32528 10.58C7.42468 10.4985 7.42468 10.3666 7.32528 10.2851L4.55658 8.04446C3.35164 7.07061 2.42551 6.15883 2.15882 5.70489H2.74795C2.90554 5.70489 3.03162 5.58849 3.0001 5.45657C2.97828 5.35763 2.86191 5.28974 2.73826 5.28974H1.82425C1.68605 5.28974 1.56968 5.37703 1.56726 5.48567C1.55756 5.79218 1.97456 6.31015 2.50308 6.83975L1.9188 7.31116C1.90426 7.3228 1.89456 7.33444 1.88002 7.34414C0.687198 6.10645 0.522328 5.05888 0.507781 4.65149H3.3468C3.77107 5.70682 5.00995 6.73306 5.90457 6.73306C6.31914 6.73306 6.66099 6.65352 6.91798 6.50802V9.1192C6.91798 9.31513 7.0392 9.49555 7.24043 9.60224C7.44166 9.70894 7.69379 9.72834 7.91442 9.65268L9.88305 8.9737C10.0746 8.9834 10.2516 9.04742 10.3898 9.158L13.9876 12.0699L13.3742 13.1853C13.2191 13.4666 13.3258 13.7731 13.6385 13.9477C13.9513 14.1223 14.344 14.0952 14.6131 13.876L18.0364 11.1212C18.2304 10.9544 18.274 10.708 18.1455 10.5063L17.6437 9.59642C17.6146 9.54211 17.6122 9.48197 17.6388 9.42765L18.594 7.4392C18.645 7.3325 18.5795 7.21223 18.4486 7.16955C18.3177 7.12687 18.1673 7.18118 18.1164 7.28788L17.0812 9.44123C17.0569 9.49361 17.0569 9.5518 17.086 9.60224L17.6825 10.6809C17.6825 10.6809 17.6873 10.6906 17.6897 10.6944C17.7212 10.741 17.7115 10.7973 17.6728 10.8302L14.2543 13.5811C14.1161 13.6917 13.9755 13.6276 13.9343 13.6044C13.8931 13.583 13.7694 13.4977 13.847 13.3541L17.006 7.61961C17.1394 7.36742 17.1418 7.07837 17.0157 6.82423L16.5115 5.81934C16.4314 5.66415 16.4363 5.48373 16.5187 5.33047L18.7128 1.23524L18.9456 1.66203C19.1662 2.06748 19.1686 2.53501 18.9601 2.93852L18.2013 4.30424C17.9758 4.73879 17.971 5.23736 18.1916 5.67385C18.1964 5.68161 18.2061 5.69519 18.211 5.70489L18.6571 6.31015C18.7056 6.37611 18.7953 6.41491 18.8922 6.41297C18.9892 6.40909 19.0741 6.36059 19.1129 6.29075L20.3396 4.12189L20.6669 4.88041C20.6669 4.88041 20.6766 4.89786 20.6791 4.90562C20.7881 5.10544 20.8463 5.31883 20.8512 5.53417C20.8488 5.54581 20.8463 5.55745 20.8463 5.57103C20.8463 5.58267 20.8463 5.59237 20.8512 5.60401C20.8463 5.80964 20.793 6.01334 20.6912 6.20345L20.0414 7.38682C19.7699 7.87763 19.7481 8.42857 19.9735 8.9349C19.9735 8.93684 19.976 8.93878 19.976 8.94266L20.7906 10.5703C20.8269 10.644 20.7906 10.7041 20.7712 10.7255C20.7542 10.7468 20.7009 10.7992 20.6015 10.7992H20.0293C19.7359 10.7992 19.4499 10.8962 19.2438 11.065L16.0726 13.6567C15.8375 13.8488 15.7235 14.1126 15.7599 14.3823L15.9344 15.6976H14.4386C14.3658 15.6976 14.2955 15.7228 14.247 15.7655C14.1985 15.8101 14.1743 15.8683 14.184 15.9265L15.1489 20.6018C15.1635 20.7085 15.2726 20.788 15.4035 20.788H16.606L17.1588 25.0054C17.1685 25.0772 17.2242 25.1393 17.3042 25.1703C17.3406 25.1839 17.377 25.1897 17.4133 25.1897C17.4642 25.1897 17.5127 25.1781 17.554 25.1548L18.5746 24.6175C18.6401 24.5845 18.6813 24.5282 18.6886 24.4661L19.2098 20.7861H19.8596C20.2039 20.7861 20.5384 20.7414 20.8536 20.6561L21.4718 21.6707L19.8838 22.9549C19.8353 22.9937 19.8087 23.048 19.8087 23.1024V26.6719L17.8788 28.2335L17.8764 28.2277ZM33.5552 28.6079C33.5528 30.3209 32.7261 31.933 31.2302 33.1455L18.1092 43.7667V43.3729C18.2255 42.0537 18.9141 40.8219 20.0754 39.8771L32.023 30.156C32.6969 29.6089 33.2134 28.9668 33.5576 28.2684V28.6079H33.5552ZM18.1067 41.5455L18.114 39.6327C18.114 38.5075 18.6547 37.4483 19.639 36.6529L32.0836 26.5807C32.7042 26.0782 33.1915 25.4963 33.5358 24.8638V26.1791C33.5358 27.5681 32.8691 28.8776 31.6569 29.8631L19.7093 39.5822C19.0086 40.1526 18.468 40.8199 18.1067 41.5455ZM33.5697 18.4833L33.5625 23.1819C33.5455 23.211 33.5334 23.242 33.5334 23.275V23.3856C33.3297 24.4797 32.7018 25.4885 31.7175 26.2858L19.2729 36.358C18.7783 36.7596 18.3855 37.2213 18.1043 37.7218L18.1334 33.5684C18.2449 31.8981 19.3335 30.3636 20.8245 29.1569L32.006 20.1071C32.6969 19.5484 33.2231 18.8907 33.5697 18.1749V18.4833ZM30.4544 12.7624L32.2557 14.2193C32.9588 14.7877 33.3976 15.5113 33.5285 16.2951C33.4752 17.6239 32.8109 18.8674 31.6447 19.8141L28.4178 22.4253L26.7571 21.0751L27.7996 20.2312C28.4372 19.7171 28.7863 19.0323 28.7863 18.3049C28.7863 16.9372 27.7972 15.8178 26.3062 15.3154C26.3086 15.3076 26.3134 15.2999 26.3183 15.2921C26.3231 15.2747 26.4759 14.8711 27.2881 14.8711C28.1002 14.8711 28.379 15.2262 28.3863 15.2378C28.4396 15.3251 28.5584 15.3717 28.6772 15.3503C28.7936 15.329 28.8761 15.2436 28.8761 15.1466C28.8761 14.9177 28.7936 14.6985 28.6312 14.4909C28.3039 14.0738 27.7244 13.8255 27.0844 13.8255H25.8988C25.4843 13.8255 25.0891 13.7188 24.7594 13.5248L25.6564 12.7818C26.0904 12.421 26.6965 12.2154 27.3196 12.2154H28.8154C29.4361 12.2154 30.0204 12.4113 30.4592 12.7663M25.8188 15.1757C25.4043 15.0787 24.9582 15.0283 24.4878 15.0283L23.135 15.038C22.7641 15.0419 22.4246 15.1544 22.1628 15.3387V15.2591C22.1677 15.2145 22.2113 14.8401 22.4901 14.4754C22.8513 14.004 23.4405 13.7518 24.2405 13.7208C24.6939 14.0544 25.2758 14.2387 25.8916 14.2387H27.0771C27.4359 14.2387 27.7754 14.3493 28.0154 14.5375C27.8166 14.4851 27.5741 14.4502 27.2808 14.4502C26.1098 14.4502 25.8455 15.0865 25.814 15.1718M31.1114 8.51781L31.3344 8.3374C31.6884 8.05028 32.2557 7.57888 32.7697 7.08613C32.7697 7.08613 32.7697 7.08807 32.7697 7.09001L33.4704 7.65647C33.4849 7.66811 33.4994 7.67975 33.5116 7.69333C33.9237 8.11042 33.8922 8.72151 33.4146 9.10756L32.6242 9.74774L31.1065 8.51975L31.1114 8.51781ZM34.285 8.63615C34.525 9.0804 34.6583 9.57702 34.6583 10.0775V12.807L33.7104 11.2725C33.6667 11.2027 33.577 11.1581 33.48 11.1581H31.589L33.7831 9.40243C34.0449 9.19097 34.2171 8.9252 34.285 8.63809M33.8267 7.34802C33.8122 7.33638 33.7976 7.3228 33.7831 7.30922L33.1043 6.76022C33.5843 6.26747 33.9577 5.79218 33.9625 5.49925C33.9625 5.38285 33.8461 5.28586 33.7007 5.28586H32.7939C32.6557 5.28586 32.5297 5.37121 32.5224 5.48373C32.5151 5.60401 32.6315 5.70294 32.7794 5.70294H33.3685C33.1018 6.15689 32.1757 7.06867 30.9732 8.04253L28.2045 10.2832C28.1051 10.3646 28.1051 10.4966 28.2045 10.578C28.2554 10.6188 28.3209 10.6382 28.3863 10.6382C28.4518 10.6382 28.5172 10.6168 28.5681 10.578L30.7477 8.81268L31.4266 9.36169C30.018 10.4946 28.6409 11.6004 28.396 11.7944H27.3147C26.5534 11.7944 25.814 12.0466 25.2855 12.4869L24.3012 13.3037C21.804 13.356 21.6537 15.2223 21.6537 15.2417V15.9032C21.6537 16.0623 21.8597 16.1651 22.0367 16.0953C22.1095 16.0662 22.1652 16.0118 22.1773 15.9459C22.2331 15.6723 22.5313 15.459 22.8853 15.4551L24.4951 15.4415C25.6322 15.4415 26.6238 15.7849 27.305 16.3474C26.8589 17.1021 26.2649 17.783 25.5352 18.3747L24.4902 19.2225L19.9541 15.5346L20.3445 12.7741C20.3905 12.454 20.7251 12.2115 21.1252 12.2115H21.307C21.6925 12.2115 22.0561 12.0757 22.3034 11.8351L25.0479 9.18321C25.1885 9.04936 25.3873 8.96788 25.6031 8.95624L27.8117 9.66238C28.0808 9.74774 28.3887 9.69536 28.5948 9.52077C28.7257 9.41019 28.7888 9.25693 28.7888 9.10368V6.5022C29.0482 6.65158 29.3924 6.73112 29.8095 6.73112C30.7041 6.73112 31.943 5.70488 32.3672 4.64955H35.2062C35.1917 5.05888 35.0244 6.10839 33.8316 7.34608M28.3863 12.8012C28.4081 12.842 28.396 12.8905 28.3572 12.9234L28.0833 13.1446C28.0178 13.1989 27.9402 13.2416 27.8554 13.2726C27.7535 13.3095 27.6444 13.3289 27.5329 13.3289H27.5281L26.3546 13.325C26.2989 13.325 26.2504 13.2978 26.2286 13.2552C26.2068 13.2144 26.2189 13.1659 26.2577 13.1349L26.4492 12.9797C26.648 12.8187 26.9098 12.7314 27.1886 12.7314H28.2578C28.3136 12.7314 28.3645 12.7585 28.3839 12.7993" fill="#773DBD"/>
</svg>
