<svg width="30" height="30" viewBox="0 0 30 30" fill="none" xmlns="http://www.w3.org/2000/svg">
<rect width="30" height="30" rx="3" fill="#773DBD"/>
<path d="M14.1526 22.2186H14.8495V22.2211C15.3325 22.2211 15.6526 22.2211 15.9376 22.0149C16.2238 21.8086 16.3195 21.5217 16.4776 21.0467L16.6826 20.4336C16.742 20.2836 16.8445 20.158 16.9788 20.0692L17.1682 19.9605C17.3263 19.8817 17.5063 19.8592 17.6788 19.8967L18.4288 20.1074C18.9451 20.2542 19.2563 20.3424 19.6051 20.2011C19.9525 20.0599 20.1237 19.7625 20.3824 19.3133L20.692 18.7761C20.9351 18.3548 21.0951 18.0767 21.0582 17.723C21.0214 17.3719 20.8086 17.1347 20.4873 16.7767L20.4851 16.7742L19.8476 16.0617C19.767 15.9524 19.6857 15.7186 19.6857 15.5017C19.6857 15.2848 19.767 15.0511 19.8476 14.9417L20.4851 14.2292C20.8082 13.8698 21.0213 13.6324 21.0582 13.2805C21.0951 12.9267 20.9351 12.6486 20.6913 12.2261L20.3826 11.6905C20.1238 11.2405 19.9526 10.9436 19.6045 10.8017C19.2566 10.6606 18.9449 10.7491 18.4306 10.8951L18.4295 10.8955L17.6782 11.1067C17.5063 11.1442 17.3257 11.1217 17.1676 11.043L16.9788 10.9342C16.8445 10.8461 16.742 10.7199 16.6826 10.5699L16.477 9.95629C16.3186 9.4823 16.2229 9.19584 15.9382 8.98984C15.652 8.78235 15.3326 8.78235 14.8489 8.78235H14.152C13.6689 8.78235 13.3501 8.78235 13.0626 8.98984C12.777 9.19671 12.6763 9.49983 12.5245 9.95732L12.3195 10.5699C12.2601 10.7199 12.1576 10.8455 12.0232 10.9342L11.8345 11.043C11.6763 11.1217 11.4957 11.1442 11.3232 11.1067L10.5738 10.8961L10.5713 10.8954C10.0565 10.7495 9.74513 10.6613 9.39758 10.8023C9.0504 10.9435 8.88851 11.2243 8.6202 11.6898L8.31008 12.228C8.06696 12.6492 7.90696 12.9273 7.94383 13.2811C7.98071 13.6336 8.19508 13.8723 8.52071 14.2342L9.15383 14.9417C9.23383 15.0511 9.31508 15.2848 9.31508 15.5017C9.31508 15.7186 9.23446 15.9524 9.15383 16.0617L8.52008 16.7705L8.51787 16.7729C8.19473 17.1328 7.98062 17.3713 7.94383 17.723C7.91633 17.9805 8.10321 18.2111 8.36071 18.238C8.61821 18.2655 8.84883 18.0786 8.87571 17.8211C8.88133 17.7705 9.07508 17.5549 9.21946 17.3942L9.86383 16.6736L9.88196 16.6517C10.1063 16.3667 10.252 15.9155 10.252 15.5017C10.252 15.088 10.107 14.6367 9.88196 14.3517L9.21633 13.6061L9.2072 13.5959C9.06627 13.4389 8.87998 13.2313 8.87508 13.1823C8.87012 13.1315 9.00721 12.8931 9.11922 12.6984L9.12196 12.6936L9.43644 12.148C9.55874 11.9362 9.69469 11.7006 9.74946 11.6705C9.80886 11.6539 10.0687 11.7274 10.3037 11.7939L10.3182 11.798L11.0807 12.0124L11.102 12.018C11.4957 12.1092 11.9107 12.0574 12.2707 11.873L12.5013 11.7411L12.5201 11.7292C12.8313 11.5298 13.0651 11.2423 13.1976 10.8973L13.4138 10.2542C13.4801 10.0536 13.5713 9.77922 13.612 9.74985C13.6526 9.72047 13.9295 9.72046 14.152 9.72046H14.8488C15.0782 9.72046 15.3376 9.72049 15.3882 9.74924C15.4295 9.77924 15.5176 10.043 15.5882 10.2555L15.797 10.8786L15.8038 10.8973C15.9363 11.2423 16.1707 11.5298 16.4813 11.7292L16.7107 11.8617L16.7307 11.8723C17.0907 12.0567 17.5051 12.1086 17.8988 12.0173L18.6845 11.7973C18.9226 11.7292 19.1926 11.6524 19.2513 11.6699C19.307 11.7011 19.447 11.9436 19.5701 12.158L19.8849 12.7039C19.9959 12.8967 20.1313 13.1318 20.1257 13.1823C20.1146 13.238 19.9443 13.4277 19.7924 13.597L19.7876 13.6024L19.1376 14.3292L19.1195 14.3511C18.8951 14.6361 18.7495 15.0873 18.7495 15.5011C18.7495 15.9148 18.8945 16.3661 19.1195 16.6511L19.7882 17.3998L19.793 17.4052C19.945 17.5745 20.1152 17.7642 20.1263 17.8199C20.1313 17.8705 19.9926 18.1124 19.8795 18.308L19.5645 18.8545C19.4429 19.0655 19.3073 19.301 19.2526 19.3311C19.1933 19.3486 18.9238 19.2719 18.6846 19.2038L18.6838 19.2036L17.9207 18.9892L17.8995 18.9836C17.5057 18.8924 17.0907 18.9442 16.7307 19.1292L16.5007 19.2611L16.482 19.273C16.1707 19.4724 15.937 19.7599 15.8045 20.1049L15.5831 20.7652C15.5115 20.9789 15.4327 21.214 15.3888 21.253C15.3388 21.2817 15.0789 21.2817 14.8495 21.2817H14.1526C13.9301 21.2817 13.6532 21.2817 13.612 21.2517C13.5682 21.2123 13.4863 20.9655 13.4145 20.748C13.3332 20.5024 13.0676 20.3686 12.822 20.4505C12.5763 20.5317 12.4432 20.7973 12.5245 21.043C12.677 21.5023 12.7776 21.8055 13.0638 22.0117C13.3507 22.2186 13.6695 22.2186 14.1526 22.2186Z" fill="white"/>
<path fill-rule="evenodd" clip-rule="evenodd" d="M9.47946 22.2142C9.51946 22.2174 9.55884 22.2186 9.59821 22.2186L9.59696 22.2174C9.99446 22.2174 10.3882 22.0711 10.7413 21.7905L10.7626 21.7736L12.3195 20.2174C12.5388 19.9975 12.7484 19.7854 12.9416 19.5899C12.9681 19.5631 12.9942 19.5366 13.0201 19.5105C13.3926 19.133 13.8132 18.7074 13.932 18.613C14.0151 18.598 14.2232 18.598 14.3932 18.598L14.4171 18.598C14.6056 18.598 14.8181 18.598 15.0495 18.5842C15.747 18.553 16.6995 18.5098 17.2838 17.6436C17.5826 17.2342 17.6226 16.5874 17.6207 15.948V15.6936L17.6207 15.6874C17.6201 15.3778 17.6195 15.0847 17.6245 14.873C17.632 14.5649 17.6363 14.3761 17.4301 14.1655C17.3132 14.0361 17.1438 13.9555 16.962 13.9417C16.7776 13.928 16.6001 13.9842 16.4726 14.0955C16.4032 14.1561 16.1826 14.3724 15.3545 15.2042L15.2413 15.3174C15.1295 15.4292 14.9851 15.4067 14.8957 15.3536C14.8095 15.3024 14.7201 15.1986 14.7807 14.9936L14.7826 14.9873C14.8398 14.8999 15.0565 14.6876 15.2691 14.4794L15.2788 14.4699C15.3895 14.3624 15.5132 14.2411 15.6495 14.1049L15.6663 14.0867C15.732 14.0142 15.7951 13.9536 15.8563 13.8948C16.0388 13.7198 16.3445 13.4267 16.1732 12.9992C15.9782 12.513 15.5882 12.5205 15.1751 12.5286C15.0082 12.5324 14.7995 12.5367 14.5126 12.5286H14.5013L14.4232 12.5305C13.2796 12.5561 12.8044 12.5668 12.2701 13.0699C11.7726 13.523 11.652 14.1305 11.5988 14.6655C11.5473 15.1912 11.555 15.5629 11.5606 15.8355L11.5609 15.8521C11.564 16.0007 11.5678 16.1802 11.5501 16.2217C11.391 16.4072 9.91717 17.8743 9.08987 18.6978L9.04696 18.7405C8.99883 18.7884 8.95191 18.8351 8.90645 18.8804C8.6898 19.096 8.50603 19.2789 8.37947 19.4055L8.35071 19.4367C7.69946 20.2186 7.89384 21.1749 8.42196 21.7161C8.70696 22.0086 9.08259 22.1855 9.47946 22.2142ZM9.09259 21.0611C8.86073 20.8242 8.7626 20.4218 9.05878 20.0524C9.18659 19.9246 9.36738 19.7447 9.57868 19.5344C9.62051 19.4928 9.66354 19.45 9.70759 19.4061C11.0032 18.1167 12.0895 17.0336 12.262 16.8323C12.5138 16.5386 12.507 16.2224 12.4982 15.8217C12.4926 15.5586 12.4857 15.2311 12.532 14.7586C12.5832 14.2374 12.6876 13.958 12.9032 13.7624L12.9107 13.7555C13.1688 13.5111 13.3263 13.4936 14.4445 13.4686L14.5001 13.4674C14.6782 13.4717 14.8301 13.4724 14.9588 13.4711C14.8363 13.5936 14.7245 13.7036 14.6238 13.8017L14.623 13.8025C14.1736 14.2426 13.9401 14.4713 13.877 14.7499C13.7176 15.318 13.9288 15.8705 14.4176 16.1611C14.9082 16.453 15.5063 16.3805 15.9057 15.9811L16.0195 15.8667C16.0681 15.8181 16.1367 15.7492 16.216 15.6697C16.3555 15.5296 16.5281 15.3564 16.6832 15.2017V15.2041C16.6832 15.3572 16.6832 15.5251 16.6845 15.698V15.9511C16.6857 16.5674 16.6326 16.9517 16.5263 17.0936L16.5113 17.1148C16.2126 17.563 15.7213 17.6174 15.0057 17.6492H14.9988C14.7841 17.6617 14.5776 17.6617 14.3953 17.6617H14.3945C13.9807 17.6605 13.677 17.6617 13.4507 17.8092C13.3032 17.898 13.0863 18.1117 12.3538 18.8536C12.1413 19.0692 11.9057 19.308 11.6576 19.5561L10.1401 21.073C9.70321 21.4067 9.31384 21.2874 9.09259 21.0611Z" fill="white"/>
</svg>
