<svg width="15" height="15" viewBox="0 0 15 15" fill="none" xmlns="http://www.w3.org/2000/svg">
<path d="M7.5 0.78125C11.2107 0.78125 14.2188 3.78934 14.2188 7.5C14.2188 11.2107 11.2107 14.2188 7.5 14.2188C3.78934 14.2188 0.78125 11.2107 0.78125 7.5C0.78125 3.78934 3.78934 0.78125 7.5 0.78125ZM7.5 1.71875C4.3071 1.71875 1.71875 4.3071 1.71875 7.5C1.71875 10.6929 4.3071 13.2812 7.5 13.2812C10.6929 13.2812 13.2812 10.6929 13.2812 7.5C13.2812 4.3071 10.6929 1.71875 7.5 1.71875ZM7.96875 10.625H7.03125V9.6875H7.96875V10.625ZM7.96875 8.75H7.03125V4.375H7.96875V8.75Z" fill="#AD0000"/>
</svg>
