<svg width="15" height="15" viewBox="0 0 15 15" fill="none" xmlns="http://www.w3.org/2000/svg">
<path fill-rule="evenodd" clip-rule="evenodd" d="M7.84382 0.935547L7.84479 0.936523L7.84577 0.9375L7.84772 0.94043L7.85749 0.950195C7.86519 0.958928 7.87602 0.971507 7.88971 0.987305C7.9173 1.01914 7.9566 1.0651 8.003 1.12109C8.09537 1.23257 8.21964 1.38844 8.34479 1.5625C8.46869 1.73484 8.60062 1.93452 8.70319 2.13379C8.79804 2.31811 8.90143 2.56484 8.90143 2.81152C8.90134 3.42344 8.5097 3.94254 7.96393 4.13574V5.17969L10.5264 5.17383C10.5288 5.17366 10.5315 5.17305 10.5342 5.17285C10.6829 5.16219 11.3309 5.11613 11.9854 5.32227C12.3373 5.43315 12.7148 5.6238 13.0196 5.95215C13.3298 6.28642 13.5393 6.73647 13.5919 7.31543L13.5938 7.35742C13.5938 7.7509 13.5374 8.11368 13.3819 8.45508C13.2269 8.79541 12.9878 9.08279 12.6719 9.34961C12.5776 9.43265 12.462 9.50999 12.3321 9.5791L11.3907 13.8486C11.3432 14.0634 11.1526 14.2158 10.9327 14.2158H4.05964C3.83971 14.2158 3.64906 14.0634 3.60163 13.8486L2.6612 9.58887C2.62843 9.56969 2.59375 9.55155 2.56061 9.5293C1.52173 8.92454 1.25045 7.88126 1.48053 6.9873C1.70381 6.12028 2.42106 5.32271 3.40925 5.21777C3.81873 5.17431 4.29516 5.16813 4.70319 5.1875L7.02643 5.18164V4.13574C6.48071 3.94252 6.08902 3.42341 6.08893 2.81152C6.08893 2.56484 6.19232 2.31811 6.28718 2.13379C6.38974 1.93452 6.52168 1.73484 6.64557 1.5625C6.77071 1.38846 6.895 1.23257 6.98737 1.12109C7.03377 1.0651 7.07307 1.01914 7.10065 0.987305C7.11435 0.971501 7.12517 0.958934 7.13288 0.950195L7.14264 0.94043L7.1446 0.9375L7.14655 0.935547L7.49518 0.546875L7.84382 0.935547ZM9.35456 8.8623C9.11634 9.2286 8.75784 9.59942 8.27643 9.72656C7.89697 9.82667 7.21812 9.91664 6.57135 9.6709C6.19456 9.52762 5.85366 9.27992 5.59675 8.90332C5.56952 8.94211 5.5411 8.98017 5.51178 9.01758C5.16645 9.45822 4.62701 9.85334 3.90827 9.83984C3.89758 9.83985 3.88673 9.83984 3.87604 9.83984C3.8093 9.83988 3.74264 9.83708 3.67585 9.83594L4.43561 13.2783H10.5567L11.3096 9.86035C11.0121 9.87695 10.6907 9.8416 10.3721 9.7168C9.92958 9.54335 9.59382 9.22897 9.35456 8.8623ZM10.5928 6.1084C10.585 6.10893 10.578 6.11 10.5723 6.11035L10.544 6.11133L4.69343 6.125L4.66999 6.12402C4.29623 6.10574 3.86351 6.11262 3.50788 6.15039C2.99014 6.20542 2.53665 6.64656 2.38874 7.2207C2.249 7.76333 2.40184 8.35794 3.04303 8.72559L3.07526 8.74512C3.28957 8.89208 3.44867 8.90234 3.91315 8.90234H3.92292C4.25649 8.90955 4.54434 8.73311 4.77448 8.43945C5.01021 8.13851 5.13345 7.7762 5.14948 7.56055L6.08112 7.53223C6.1932 8.35573 6.56165 8.66362 6.90436 8.79395C7.29506 8.94246 7.75356 8.89513 8.03718 8.82031C8.20375 8.77628 8.40369 8.61433 8.58503 8.32617C8.76086 8.04675 8.87145 7.72192 8.90143 7.48242L9.8321 7.4873C9.8995 8.07751 10.2341 8.65564 10.7139 8.84375C10.9729 8.94526 11.2523 8.94828 11.5079 8.8916C11.7702 8.83341 11.967 8.72164 12.0538 8.64453L12.0635 8.63574C12.3042 8.43308 12.4442 8.25122 12.5284 8.06641C12.6109 7.88531 12.6543 7.6703 12.6563 7.37891C12.6183 7.00212 12.4886 6.7575 12.3331 6.58984C12.1693 6.41338 11.9501 6.29431 11.7042 6.2168C11.227 6.06643 10.7367 6.09866 10.5928 6.1084ZM7.40729 2.10938C7.29698 2.2628 7.19425 2.42143 7.12116 2.56348C7.08497 2.63382 7.05973 2.69342 7.04401 2.74121C7.02918 2.78641 7.02665 2.80892 7.02643 2.81152C7.02663 3.07031 7.23666 3.28025 7.49518 3.28027C7.75378 3.28027 7.96382 3.0704 7.96393 2.81152C7.96371 2.80892 7.96216 2.78641 7.94733 2.74121C7.93162 2.69337 7.90547 2.63396 7.86921 2.56348C7.79611 2.42143 7.69338 2.2628 7.58307 2.10938C7.55368 2.0685 7.52418 2.02865 7.49518 1.99023C7.46619 2.02865 7.43668 2.0685 7.40729 2.10938Z" fill="#FF5000"/>
</svg>
