<svg width="15" height="15" viewBox="0 0 15 15" fill="none" xmlns="http://www.w3.org/2000/svg">
<path d="M4.53125 2.03125H10.4688V1.25H11.4062V2.03125H13.125C13.3839 2.03125 13.5938 2.24112 13.5938 2.5V13.75C13.5938 14.0089 13.3839 14.2188 13.125 14.2188H1.875C1.61612 14.2188 1.40625 14.0089 1.40625 13.75V2.5C1.40625 2.24112 1.61612 2.03125 1.875 2.03125H3.59375V1.25H4.53125V2.03125ZM2.34375 6.09375V13.2812H12.6562V6.09375H2.34375ZM5.63086 11.5625H4.375V10.3125H5.63086V11.5625ZM8.12793 11.5625H6.87207V10.3125H8.12793V11.5625ZM5.63086 9.0625H4.375V7.8125H5.63086V9.0625ZM8.12793 9.0625H6.87207V7.8125H8.12793V9.0625ZM10.625 9.0625H9.36914V7.8125H10.625V9.0625ZM2.34375 5.15625H12.6562V2.96875H11.4062V3.75H10.4688V2.96875H4.53125V3.75H3.59375V2.96875H2.34375V5.15625Z" fill="#934700"/>
</svg>
