<svg width="15" height="15" viewBox="0 0 15 15" fill="none" xmlns="http://www.w3.org/2000/svg">
<g clip-path="url(#clip0_140_2921)">
<path d="M2.1875 15.0004C1.93187 15.0004 1.71172 14.9091 1.52703 14.7264C1.34234 14.5437 1.25 14.3225 1.25 14.0629C1.25 13.8073 1.34234 13.5871 1.52703 13.4025C1.71172 13.2178 1.93187 13.1254 2.1875 13.1254H12.8125C13.0681 13.1254 13.2883 13.2168 13.473 13.3995C13.6577 13.5822 13.75 13.8033 13.75 14.0629C13.75 14.3186 13.6577 14.5387 13.473 14.7234C13.2883 14.9081 13.0681 15.0004 12.8125 15.0004H2.1875ZM3.75 10.2589H4.52281L9.71031 5.0809L9.31734 4.68199L8.92797 4.29856L3.75 9.48605V10.2589ZM2.8125 10.6314V9.32262C2.8125 9.2473 2.8251 9.17559 2.85031 9.10746C2.87563 9.03934 2.9175 8.976 2.97594 8.91746L9.81859 2.09059C9.90911 2.00007 10.0119 1.93158 10.1269 1.88512C10.2418 1.83866 10.3605 1.81543 10.4831 1.81543C10.6098 1.81543 10.7302 1.83866 10.8444 1.88512C10.9585 1.93158 11.0641 2.00329 11.1611 2.10027L11.9122 2.86106C12.0092 2.95158 12.0793 3.05491 12.1225 3.17105C12.1658 3.2873 12.1875 3.40871 12.1875 3.53527C12.1875 3.65152 12.1658 3.7671 12.1225 3.88199C12.0793 3.99699 12.0092 4.10298 11.9122 4.19996L5.08531 11.0268C5.02677 11.0854 4.96349 11.1282 4.89547 11.1554C4.82734 11.1827 4.75563 11.1964 4.68031 11.1964H3.3775C3.21635 11.1964 3.08193 11.1425 2.97422 11.0346C2.86641 10.9269 2.8125 10.7925 2.8125 10.6314ZM9.71031 5.0809L9.31734 4.68199L8.92797 4.29856L9.71031 5.0809Z" fill="#773DBD"/>
</g>
<defs>
<clipPath id="clip0_140_2921">
<rect width="15" height="15" fill="white"/>
</clipPath>
</defs>
</svg>
