<svg width="15" height="15" viewBox="0 0 15 15" fill="none" xmlns="http://www.w3.org/2000/svg">
<path fill-rule="evenodd" clip-rule="evenodd" d="M4.53125 1.40625H10.4688V3.90625H14.2188V13.5938H0.78125V3.90625H4.53125V1.40625ZM9.53125 2.34375V3.90625H5.46875V2.34375H9.53125ZM1.71875 4.84375H13.2812V12.6562H1.71875V4.84375ZM4.3 6.55624L3.44375 6.28754L3.16875 7.1875L4.025 7.44995C4.99375 7.74995 6.01251 7.91874 7.03751 7.96249V9.21875H7.97501V7.96249C9.00001 7.91874 10.0187 7.74995 10.9875 7.44995L11.8438 7.1875L11.5688 6.28754L10.7125 6.55624C9.68751 6.87499 8.59374 7.03125 7.51249 7.03125C6.42499 7.03125 5.3375 6.87499 4.3125 6.55624H4.3Z" fill="#773DBD"/>
</svg>
