<svg version="1.1" xmlns="http://www.w3.org/2000/svg" xmlns:xlink="http://www.w3.org/1999/xlink" width="96" height="120" viewBox="0 0 96 120">
<path id="Shape-1" d="M85.559,107.938 C68.087,112.876 60.678,117.914 58.165,119.999 C57.197,119.290 55.193,117.924 52.052,116.238 C47.893,113.993 40.843,110.741 30.850,107.918 C21.636,105.314 20.409,102.990 20.409,95.109 C20.409,95.109 20.409,82.000 20.409,82.000 L25.654,82.000 C25.654,82.000 25.654,89.050 25.654,89.050 C25.654,95.683 26.682,97.639 34.404,99.831 C42.778,102.207 48.686,104.944 52.171,106.833 C54.803,108.252 56.483,109.403 57.294,109.999 C59.400,108.244 65.609,104.004 80.250,99.848 C87.972,97.656 89.000,95.692 89.000,89.067 C89.000,21.829 89.000,21.829 89.000,21.829 C87.930,21.661 85.925,21.090 82.908,19.243 C80.969,18.059 79.632,16.951 78.203,15.784 C76.799,14.633 75.353,13.441 73.172,12.031 C70.289,10.167 67.589,9.612 66.486,9.453 C66.018,10.200 64.949,11.451 62.876,11.972 C61.731,12.257 60.319,11.686 58.673,10.267 C58.154,9.822 57.703,9.369 57.361,8.999 C56.157,10.402 54.369,12.022 52.522,12.022 C52.279,12.022 52.029,11.997 51.786,11.930 C49.714,11.409 48.653,10.158 48.176,9.411 C47.073,9.570 44.357,10.133 41.491,11.989 C39.310,13.399 37.864,14.591 36.460,15.742 C35.039,16.909 33.694,18.017 31.755,19.209 C28.730,21.057 26.724,21.628 25.654,21.795 C25.654,21.795 25.654,30.544 25.654,30.544 L20.409,31.819 C20.409,31.819 20.409,15.203 20.409,15.203 C21.686,15.003 24.079,14.325 27.689,12.130 C30.003,10.713 31.608,9.397 33.304,8.010 C34.979,6.643 36.704,5.227 39.307,3.551 C42.728,1.346 45.969,0.678 47.285,0.488 C47.853,1.376 49.120,2.862 51.593,3.481 C51.882,3.561 52.181,3.591 52.470,3.591 C54.674,3.591 56.808,1.665 58.245,-0.001 C58.653,0.438 59.192,0.977 59.810,1.506 C61.775,3.192 63.460,3.870 64.826,3.531 C67.299,2.912 68.576,1.426 69.134,0.538 C70.451,0.728 73.672,1.386 77.112,3.601 C79.715,5.277 81.440,6.693 83.116,8.060 C84.821,9.446 86.416,10.763 88.730,12.170 C92.330,14.365 94.723,15.043 96.000,15.242 C96.000,15.242 96.000,15.242 96.000,95.129 C96.000,103.000 94.773,105.334 85.559,107.938 zM22.941,46.226 C22.941,46.226 8.969,52.720 11.319,57.774 C13.669,62.827 46.185,62.393 46.185,62.393 L46.185,51.422 L74.079,69.899 L47.348,89.530 L47.348,80.292 C47.348,80.292 7.021,77.325 0.859,62.393 C-5.303,47.460 23.522,39.875 23.522,39.875 L22.941,46.226 z" fill="#000000" />
</svg>
