<svg version="1.1" xmlns="http://www.w3.org/2000/svg" xmlns:xlink="http://www.w3.org/1999/xlink" width="825" height="1299" viewBox="0 0 825 1299">
<defs>
<linearGradient id="gradient1" gradientUnits="userSpaceOnUse" x1="50.000%" y1="100.000%" x2="50.000%" y2="0.000%" >
<stop offset="0%" stop-color="#E8E8E8" />
<stop offset="33%" stop-color="#5A5A5A" />
<stop offset="71%" stop-color="#DBDBDB" />
<stop offset="100%" stop-color="#C3C3C3" />
</linearGradient>
<linearGradient id="gradient2" gradientUnits="userSpaceOnUse" x1="49.939%" y1="96.459%" x2="49.939%" y2="3.772%" >
<stop offset="0%" stop-color="#E8E8E8" />
<stop offset="33%" stop-color="#5A5A5A" />
<stop offset="71%" stop-color="#DBDBDB" />
<stop offset="100%" stop-color="#C3C3C3" />
</linearGradient>
</defs>
<g id="Group-5">
<g id="Color-Fill-1-cop" >
<path id="Color-Fill-1-cop-stroke" d="M405.492,1282.279 C405.288,1282.077 383.743,1264.601 338.926,1240.760 C297.564,1218.737 227.339,1186.612 127.745,1158.629 C74.492,1143.678 45.833,1128.626 28.862,1106.907 C10.264,1083.066 6.606,1051.951 6.606,1009.522 C6.606,179.633 6.606,179.633 6.606,179.633 C6.606,179.633 17.480,180.845 17.480,180.845 C19.106,180.845 42.988,180.643 90.448,151.852 C112.806,138.315 128.558,125.384 145.326,111.747 C162.806,97.503 180.896,82.855 208.335,65.176 C258.132,33.253 303.865,30.323 305.796,30.223 C313.418,29.818 313.418,29.818 313.418,29.818 C313.418,29.818 315.856,36.688 315.856,36.688 C316.365,38.001 324.190,55.579 349.495,61.842 C365.349,65.782 388.012,45.073 404.069,24.464 C411.894,14.463 411.894,14.463 411.894,14.463 C411.894,14.463 420.024,24.262 420.024,24.262 C434.354,41.537 461.691,65.580 474.801,62.347 C500.106,56.084 507.830,38.506 508.440,37.193 C510.980,30.121 510.980,30.121 510.980,30.121 C510.980,30.121 518.501,30.728 518.501,30.728 C520.432,30.829 566.062,33.758 615.860,65.681 C643.401,83.259 661.388,98.008 678.868,112.252 C695.637,125.890 711.389,138.719 733.747,152.256 C781.207,181.047 805.089,181.249 806.715,181.249 C817.894,180.037 817.894,180.037 817.894,180.037 L817.488,191.351 C817.488,191.351 817.488,1009.623 817.488,1009.623 C817.488,1052.052 813.727,1083.167 795.231,1107.007 C778.260,1128.828 749.601,1143.779 696.348,1158.730 C696.348,1158.730 696.348,1158.730 696.348,1158.730 C503.866,1212.777 435.370,1266.621 419.008,1281.774 C412.402,1287.937 412.402,1287.937 412.402,1287.937 C412.402,1287.937 405.492,1282.279 405.492,1282.279 z" fill="none" stroke="url(#gradient1)" stroke-width="13" />
</g>
<g id="Color-Fill-1-cop" >
<path id="Color-Fill-1-cop-stroke" d="M37.750,1000.023 C37.750,1078.400 49.896,1101.516 141.138,1127.410 C240.082,1155.486 309.896,1187.829 351.073,1210.152 C382.178,1226.918 402.026,1240.510 411.605,1247.554 C436.489,1226.819 509.858,1176.718 682.862,1127.608 C682.862,1127.608 682.862,1127.608 682.862,1127.608 C774.104,1101.714 786.250,1078.499 786.250,1000.221 C786.250,205.740 786.250,205.740 786.250,205.740 C773.610,203.756 749.911,197.009 714.263,175.183 C691.354,161.194 675.555,148.098 658.669,134.308 C642.080,120.716 624.996,106.628 599.224,89.961 C565.156,67.936 533.261,61.388 520.226,59.503 C514.696,68.333 502.057,83.115 477.568,89.266 C464.039,92.639 447.351,85.893 427.898,69.126 C421.776,63.868 416.443,58.511 412.395,54.146 C398.175,70.714 377.044,89.862 355.221,89.862 C352.357,89.862 349.394,89.564 346.531,88.770 C322.042,82.619 309.501,67.837 303.872,59.007 C290.838,60.892 258.745,67.539 224.875,89.465 C199.102,106.132 182.019,120.220 165.429,133.812 C148.642,147.602 132.744,160.698 109.835,174.786 C74.089,196.613 50.389,203.359 37.750,205.343 C37.750,205.343 37.750,1000.023 37.750,1000.023 z" fill="none" stroke="url(#gradient2)" stroke-width="10" />
</g>
</g>
</svg>
