<svg version="1.1" xmlns="http://www.w3.org/2000/svg" xmlns:xlink="http://www.w3.org/1999/xlink" width="799" height="1262" viewBox="0 0 799 1262">
<defs>
<linearGradient id="gradient1" gradientUnits="userSpaceOnUse" x1="50.000%" y1="100.000%" x2="50.000%" y2="0.000%" >
<stop offset="0%" stop-color="#A47738" />
<stop offset="38%" stop-color="#F8E581" />
<stop offset="69%" stop-color="#C7A054" />
<stop offset="100%" stop-color="#FCE482" />
</linearGradient>
</defs>
<g id="Group-3">
<path id="Color-Fill-1" d="M392.600,1255.900 C392.400,1255.700 371.200,1238.400 327.100,1214.800 C286.400,1193.000 217.300,1161.200 119.300,1133.500 C66.900,1118.700 38.700,1103.800 22.000,1082.300 C3.700,1058.700 0.100,1027.900 0.100,985.900 C0.100,164.400 0.100,164.400 0.100,164.400 C0.100,164.400 10.800,165.600 10.800,165.600 C12.400,165.600 35.900,165.400 82.600,136.900 C104.600,123.500 120.100,110.700 136.600,97.200 C153.800,83.100 171.600,68.600 198.600,51.100 C247.600,19.500 292.600,16.600 294.500,16.500 C302.000,16.100 302.000,16.100 302.000,16.100 C302.000,16.100 304.400,22.900 304.400,22.900 C304.900,24.200 312.600,41.600 337.500,47.800 C353.100,51.700 375.400,31.200 391.200,10.800 C398.900,0.900 398.900,0.900 398.900,0.900 C398.900,0.900 406.900,10.600 406.900,10.600 C421.000,27.700 447.900,51.500 460.800,48.300 C485.700,42.100 493.300,24.700 493.900,23.400 C496.400,16.400 496.400,16.400 496.400,16.400 C496.400,16.400 503.800,17.000 503.800,17.000 C505.700,17.100 550.600,20.000 599.600,51.600 C626.700,69.000 644.400,83.600 661.600,97.700 C678.100,111.200 693.600,123.900 715.600,137.300 C762.300,165.800 785.800,166.000 787.400,166.000 C798.400,164.800 798.400,164.800 798.400,164.800 L798.000,176.000 C798.000,176.000 798.000,986.000 798.000,986.000 C798.000,1028.000 794.300,1058.800 776.100,1082.400 C759.400,1104.000 731.200,1118.800 678.800,1133.600 C678.800,1133.600 678.800,1133.600 678.800,1133.600 C489.400,1187.100 422.000,1240.400 405.900,1255.400 C399.400,1261.500 399.400,1261.500 399.400,1261.500 C399.400,1261.500 392.600,1255.900 392.600,1255.900 z" fill="url(#gradient1)" />
<path id="Shape-6-copy-7" d="M463.494,358.249 L656.782,621.492 L295.652,603.757 L463.494,358.249 z" fill="#FFFFFF" opacity="0.039" />
<path id="Shape-6-copy-6" d="M470.000,533.000 L429.000,209.000 L736.000,400.000 L470.000,533.000 z" fill="#FFFFFF" opacity="0.039" />
<path id="Shape-6-copy-2" d="M482.226,341.982 L372.362,129.500 L798.000,276.616 L798.000,279.156 L482.226,341.982 z" fill="#FFFFFF" opacity="0.039" />
<path id="Shape-6-copy-3" d="M475.092,263.380 L421.706,30.671 L798.000,279.700 L798.000,281.555 L475.092,263.380 z" fill="#FFFFFF" opacity="0.039" />
<path id="Shape-6-copy-5" d="M606.931,355.063 L428.453,628.331 L200.449,558.674 L606.931,355.063 z" fill="#FFFFFF" opacity="0.039" />
<path id="Shape-6" d="M386.857,532.251 L601.151,628.471 L147.231,660.452 L386.857,532.251 z" fill="#FFFFFF" opacity="0.039" />
<path id="Shape-6-copy" d="M390.756,418.517 L454.010,774.286 L177.391,665.580 L390.756,418.517 z" fill="#FFFFFF" opacity="0.039" />
<path id="Shape-6-copy-7" d="M315.702,475.949 L249.271,795.534 L21.082,515.383 L315.702,475.949 z" fill="#FFFFFF" opacity="0.039" />
<path id="Shape-6-copy-6" d="M246.580,588.550 L309.834,944.318 L33.215,835.613 L246.580,588.550 z" fill="#FFFFFF" opacity="0.039" />
<path id="Shape-6-copy-2" d="M405.894,228.244 L582.972,647.358 L321.425,451.915 L405.894,228.244 z" fill="#FFFFFF" opacity="0.039" />
<path id="Shape-6-copy-3" d="M789.301,561.507 L585.067,307.068 C585.067,307.068 707.836,132.429 707.836,132.429 C710.337,134.044 712.919,135.667 715.600,137.300 C719.612,139.748 723.440,141.973 727.110,144.022 C727.110,144.022 789.301,561.507 789.301,561.507 z" fill="#FFFFFF" opacity="0.039" />
<path id="Shape-6-copy-4" d="M251.836,612.096 L189.004,381.911 L578.110,617.005 L251.836,612.096 z" fill="#FFFFFF" opacity="0.039" />
<path id="Shape-6-copy-5" d="M29.672,605.511 L452.655,771.380 L130.298,821.470 L29.672,605.511 z" fill="#FFFFFF" opacity="0.039" />
<path id="Shape-6" d="M190.993,305.277 L540.464,118.427 L798.000,233.990 L798.000,262.538 L190.993,305.277 z" fill="#FFFFFF" opacity="0.039" />
<path id="Shape-6-copy-7" d="M308.808,478.157 C308.808,478.157 46.179,155.926 46.179,155.926 C56.169,151.699 68.290,145.633 82.600,136.900 C104.600,123.500 120.100,110.700 136.600,97.200 C153.800,83.100 171.600,68.600 198.600,51.100 C207.496,45.363 216.255,40.583 224.653,36.583 C224.653,36.583 305.835,25.724 305.835,25.724 C309.032,31.198 317.979,42.939 337.500,47.800 C352.099,51.450 372.564,33.731 388.080,14.723 C388.080,14.723 405.691,12.367 405.691,12.367 L308.808,478.157 z" fill="#FFFFFF" opacity="0.039" />
<path id="Shape-6-copy-6" d="M0.100,529.178 C0.100,529.178 304.883,176.481 304.883,176.481 L397.133,695.009 C397.133,695.009 0.100,539.081 0.100,539.081 C0.100,535.752 0.100,532.449 0.100,529.178 z" fill="#FFFFFF" opacity="0.039" />
<path id="Shape-6-copy-2" d="M514.486,18.284 C530.935,20.920 564.195,28.767 599.600,51.600 C626.700,69.000 644.400,83.600 661.600,97.700 C678.100,111.200 693.600,123.900 715.600,137.300 C762.300,165.800 785.800,166.000 787.400,166.000 C798.400,164.800 798.400,164.800 798.400,164.800 L798.000,176.000 L798.000,230.009 C798.000,230.009 514.486,18.284 514.486,18.284 z" fill="#FFFFFF" opacity="0.039" />
<path id="Shape-6-copy-3" d="M753.279,156.854 C775.066,165.898 786.311,166.000 787.400,166.000 C798.400,164.800 798.400,164.800 798.400,164.800 L798.000,176.000 L798.000,212.533 C798.000,212.533 753.279,156.854 753.279,156.854 z" fill="#FFFFFF" opacity="0.039" />
<path id="Shape-6-copy-4" d="M214.503,41.717 C230.580,33.072 245.710,27.374 258.401,23.622 C258.401,23.622 767.389,330.954 767.389,330.954 L291.549,323.799 C291.549,323.799 214.503,41.717 214.503,41.717 z" fill="#FFFFFF" opacity="0.039" />
<path id="Shape-6" d="M461.797,992.262 C461.797,992.262 595.229,1159.715 595.229,1159.715 C563.848,1170.584 537.209,1181.176 514.695,1191.152 C514.695,1191.152 65.545,998.106 65.545,998.106 L461.797,992.262 z" fill="#FFFFFF" opacity="0.039" />
<path id="Shape-6-copy" d="M399.400,1261.500 C399.400,1261.500 392.600,1255.900 392.600,1255.900 C392.400,1255.700 371.200,1238.400 327.100,1214.800 C303.672,1202.252 270.815,1186.389 228.472,1169.903 C228.472,1169.903 101.211,1024.913 101.211,1024.913 L542.841,847.552 C542.841,847.552 420.267,1243.597 420.267,1243.597 C413.489,1248.649 408.836,1252.664 405.900,1255.400 C399.400,1261.500 399.400,1261.500 399.400,1261.500 z" fill="#FFFFFF" opacity="0.039" />
<path id="Shape-6-copy-7" d="M0.100,731.282 C0.100,729.602 0.100,727.937 0.100,726.266 C0.100,726.266 407.184,871.761 407.184,871.761 C407.184,871.761 179.777,1152.224 179.777,1152.224 C161.012,1145.885 140.857,1139.593 119.300,1133.500 C105.327,1129.553 93.090,1125.598 82.318,1121.514 C82.318,1121.514 0.100,731.282 0.100,731.282 z" fill="#FFFFFF" opacity="0.039" />
<path id="Shape-6-copy-6" d="M22.000,1082.300 C17.650,1076.690 14.139,1070.668 11.301,1064.190 C11.301,1064.190 242.358,971.396 242.358,971.396 C242.358,971.396 185.761,1154.267 185.761,1154.267 C165.312,1147.238 143.170,1140.247 119.300,1133.500 C66.900,1118.700 38.700,1103.800 22.000,1082.300 z" fill="#FFFFFF" opacity="0.039" />
<path id="Shape-6-copy-2" d="M750.849,1095.633 L542.417,667.611 L798.000,437.382 L798.000,478.168 L750.849,1095.633 z" fill="#FFFFFF" opacity="0.039" />
<path id="Shape-6-copy-3" d="M711.132,1123.349 C701.517,1126.820 690.800,1130.210 678.800,1133.600 C664.421,1137.661 650.756,1141.721 637.753,1145.764 C637.753,1145.764 567.596,800.547 567.596,800.547 L798.000,680.151 L798.000,868.275 C798.000,868.275 711.132,1123.349 711.132,1123.349 z" fill="#FFFFFF" opacity="0.039" />
<path id="Shape-6-copy-4" d="M305.791,665.246 C305.791,665.246 607.354,1155.580 607.354,1155.580 C586.994,1162.411 568.512,1169.150 551.767,1175.715 C551.767,1175.715 233.439,1005.409 233.439,1005.409 L305.791,665.246 z" fill="#FFFFFF" opacity="0.039" />
<path id="Shape-6-copy-5" d="M234.671,1172.338 C202.101,1159.424 163.674,1146.042 119.300,1133.500 C66.900,1118.700 38.700,1103.800 22.000,1082.300 C3.700,1058.700 0.100,1027.900 0.100,985.900 C0.100,958.157 0.100,931.382 0.100,905.482 C0.100,905.482 234.671,1172.338 234.671,1172.338 z" fill="#FFFFFF" opacity="0.039" />
<path id="Shape-6" d="M798.400,164.800 L798.000,176.000 L798.000,297.093 L692.000,433.000 L757.000,169.000 C757.000,169.000 770.616,162.984 770.616,162.984 C781.100,165.955 786.651,166.000 787.400,166.000 C798.400,164.800 798.400,164.800 798.400,164.800 z" fill="#FFFFFF" opacity="0.039" />
<path id="Shape-6-copy-7" d="M513.651,663.757 L681.493,418.249 L798.000,576.921 L798.000,677.721 L513.651,663.757 z" fill="#FFFFFF" opacity="0.039" />
<path id="Shape-6-copy-6" d="M609.000,944.000 L568.000,620.000 L798.000,763.094 L798.000,849.500 L609.000,944.000 z" fill="#FFFFFF" opacity="0.039" />
<path id="Shape-6-copy-5" d="M742.453,847.331 L514.449,777.674 L798.000,635.640 L798.000,762.284 L742.453,847.331 z" fill="#FFFFFF" opacity="0.039" />
<path id="Shape-6" d="M543.671,597.001 L757.995,693.081 L304.013,725.015 L543.671,597.001 z" fill="#FFFFFF" opacity="0.039" />
<path id="Shape-6-copy" d="M390.756,418.517 L454.010,774.286 L177.391,665.580 L390.756,418.517 z" fill="#FFFFFF" opacity="0.039" />
<path id="Shape-6-copy-7" d="M315.702,475.949 L249.271,795.534 L21.082,515.383 L315.702,475.949 z" fill="#FFFFFF" opacity="0.039" />
<path id="Shape-6-copy-6" d="M246.580,588.550 L309.834,944.318 L33.215,835.613 L246.580,588.550 z" fill="#FFFFFF" opacity="0.039" />
<path id="Shape-6-copy-4" d="M251.836,612.096 L189.004,381.911 L578.110,617.005 L251.836,612.096 z" fill="#FFFFFF" opacity="0.039" />
<path id="Shape-6-copy-5" d="M29.672,605.511 L452.655,771.380 L130.298,821.470 L29.672,605.511 z" fill="#FFFFFF" opacity="0.039" />
<path id="Shape-6-copy" d="M547.151,232.661 L639.401,751.189 L235.978,592.752 L547.151,232.661 z" fill="#FFFFFF" opacity="0.039" />
<path id="Shape-6-copy-7" d="M308.808,478.157 C308.808,478.157 46.179,155.926 46.179,155.926 C56.169,151.699 68.290,145.633 82.600,136.900 C104.600,123.500 120.100,110.700 136.600,97.200 C153.800,83.100 171.600,68.600 198.600,51.100 C207.496,45.363 216.255,40.583 224.653,36.583 C224.653,36.583 305.835,25.724 305.835,25.724 C309.032,31.198 317.979,42.939 337.500,47.800 C352.099,51.450 372.564,33.731 388.080,14.723 C388.080,14.723 405.691,12.367 405.691,12.367 L308.808,478.157 z" fill="#FFFFFF" opacity="0.039" />
<path id="Shape-6-copy-6" d="M0.100,529.178 C0.100,529.178 304.883,176.481 304.883,176.481 L397.133,695.009 C397.133,695.009 0.100,539.081 0.100,539.081 C0.100,535.752 0.100,532.449 0.100,529.178 z" fill="#FFFFFF" opacity="0.039" />
<path id="Shape-6-copy-2" d="M514.486,18.284 C530.935,20.920 564.195,28.768 599.600,51.600 C626.700,69.000 644.400,83.600 661.600,97.700 C678.100,111.200 693.600,123.900 715.600,137.300 C762.300,165.800 785.800,166.000 787.400,166.000 C798.400,164.800 798.400,164.800 798.400,164.800 L798.000,176.000 L798.000,230.009 C798.000,230.009 514.486,18.284 514.486,18.284 z" fill="#FFFFFF" opacity="0.039" />
<path id="Shape-6-copy-3" d="M753.279,156.854 C775.066,165.898 786.311,166.000 787.400,166.000 C798.400,164.800 798.400,164.800 798.400,164.800 L798.000,176.000 L798.000,212.533 C798.000,212.533 753.279,156.854 753.279,156.854 z" fill="#FFFFFF" opacity="0.039" />
<path id="Shape-6" d="M461.797,992.262 C461.797,992.262 595.229,1159.715 595.229,1159.715 C563.848,1170.584 537.209,1181.176 514.695,1191.152 C514.695,1191.152 65.545,998.106 65.545,998.106 L461.797,992.262 z" fill="#FFFFFF" opacity="0.039" />
<path id="Shape-6-copy" d="M399.400,1261.500 C399.400,1261.500 392.600,1255.900 392.600,1255.900 C392.400,1255.700 371.200,1238.400 327.100,1214.800 C303.672,1202.252 270.815,1186.389 228.472,1169.903 C228.472,1169.903 101.211,1024.913 101.211,1024.913 L542.841,847.552 C542.841,847.552 420.267,1243.597 420.267,1243.597 C413.489,1248.649 408.836,1252.664 405.900,1255.400 C399.400,1261.500 399.400,1261.500 399.400,1261.500 z" fill="#FFFFFF" opacity="0.039" />
<path id="Shape-6-copy-7" d="M0.100,731.282 C0.100,729.602 0.100,727.937 0.100,726.266 C0.100,726.266 407.184,871.761 407.184,871.761 C407.184,871.761 179.777,1152.224 179.777,1152.224 C161.012,1145.885 140.857,1139.593 119.300,1133.500 C105.327,1129.553 93.090,1125.598 82.318,1121.514 C82.318,1121.514 0.100,731.282 0.100,731.282 z" fill="#FFFFFF" opacity="0.039" />
<path id="Shape-6-copy-6" d="M22.000,1082.300 C17.650,1076.690 14.139,1070.668 11.301,1064.190 C11.301,1064.190 242.358,971.396 242.358,971.396 C242.358,971.396 185.761,1154.267 185.761,1154.267 C165.312,1147.238 143.170,1140.247 119.300,1133.500 C66.900,1118.700 38.700,1103.800 22.000,1082.300 z" fill="#FFFFFF" opacity="0.039" />
<path id="Shape-6-copy-2" d="M689.751,1130.394 C686.219,1131.465 682.579,1132.532 678.800,1133.600 C644.695,1143.233 614.567,1152.859 587.961,1162.257 C587.961,1162.257 465.417,910.611 465.417,910.611 L724.345,677.369 C724.345,677.369 689.751,1130.394 689.751,1130.394 z" fill="#FFFFFF" opacity="0.039" />
<path id="Shape-6-copy-3" d="M711.132,1123.349 C701.517,1126.820 690.800,1130.210 678.800,1133.600 C664.421,1137.661 650.756,1141.721 637.753,1145.764 C637.753,1145.764 567.596,800.547 567.596,800.547 L798.000,680.151 L798.000,868.275 C798.000,868.275 711.132,1123.349 711.132,1123.349 z" fill="#FFFFFF" opacity="0.039" />
<path id="Shape-6-copy-4" d="M305.791,665.246 C305.791,665.246 607.354,1155.580 607.354,1155.580 C586.994,1162.411 568.512,1169.150 551.767,1175.715 C551.767,1175.715 233.439,1005.409 233.439,1005.409 L305.791,665.246 z" fill="#FFFFFF" opacity="0.039" />
<path id="Shape-6-copy-5" d="M234.671,1172.338 C202.101,1159.424 163.674,1146.042 119.300,1133.500 C66.900,1118.700 38.700,1103.800 22.000,1082.300 C3.700,1058.700 0.100,1027.900 0.100,985.900 C0.100,958.157 0.100,931.382 0.100,905.482 C0.100,905.482 234.671,1172.338 234.671,1172.338 z" fill="#FFFFFF" opacity="0.039" />
</g>
</svg>
