<svg version="1.1" xmlns="http://www.w3.org/2000/svg" xmlns:xlink="http://www.w3.org/1999/xlink" width="799" height="1262" viewBox="0 0 799 1262">
<g id="Group-4">
<path id="Color-Fill-1" d="M392.600,1255.900 C392.400,1255.700 371.200,1238.400 327.100,1214.800 C286.400,1193.000 217.300,1161.200 119.300,1133.500 C66.900,1118.700 38.700,1103.800 22.000,1082.300 C3.700,1058.700 0.100,1027.900 0.100,985.900 C0.100,164.400 0.100,164.400 0.100,164.400 C0.100,164.400 10.800,165.600 10.800,165.600 C12.400,165.600 35.900,165.400 82.600,136.900 C104.600,123.500 120.100,110.700 136.600,97.200 C153.800,83.100 171.600,68.600 198.600,51.100 C247.600,19.500 292.600,16.600 294.500,16.500 C302.000,16.100 302.000,16.100 302.000,16.100 C302.000,16.100 304.400,22.900 304.400,22.900 C304.900,24.200 312.600,41.600 337.500,47.800 C353.100,51.700 375.400,31.200 391.200,10.800 C398.900,0.900 398.900,0.900 398.900,0.900 C398.900,0.900 406.900,10.600 406.900,10.600 C421.000,27.700 447.900,51.500 460.800,48.300 C485.700,42.100 493.300,24.700 493.900,23.400 C496.400,16.400 496.400,16.400 496.400,16.400 C496.400,16.400 503.800,17.000 503.800,17.000 C505.700,17.100 550.600,20.000 599.600,51.600 C626.700,69.000 644.400,83.600 661.600,97.700 C678.100,111.200 693.600,123.900 715.600,137.300 C762.300,165.800 785.800,166.000 787.400,166.000 C798.400,164.800 798.400,164.800 798.400,164.800 L798.000,176.000 C798.000,176.000 798.000,986.000 798.000,986.000 C798.000,1028.000 794.300,1058.800 776.100,1082.400 C759.400,1104.000 731.200,1118.800 678.800,1133.600 C678.800,1133.600 678.800,1133.600 678.800,1133.600 C489.400,1187.100 422.000,1240.400 405.900,1255.400 C399.400,1261.500 399.400,1261.500 399.400,1261.500 C399.400,1261.500 392.600,1255.900 392.600,1255.900 z" fill="#5B5B5B" />
<g id="Group-3">
<path id="Shape-6-copy-7" d="M463.494,358.249 L656.782,621.492 L295.652,603.757 L463.494,358.249 z" fill="#FFFFFF" opacity="0.039" />
<path id="Shape-6-copy-6" d="M429.000,209.000 L736.000,400.000 L470.000,533.000 L429.000,209.000 z" fill="#FFFFFF" opacity="0.039" />
<path id="Shape-6-copy-2" d="M372.362,129.500 C372.362,129.500 798.000,276.616 798.000,276.616 C798.000,277.462 798.000,278.309 798.000,279.156 C798.000,279.156 482.226,341.982 482.226,341.982 L372.362,129.500 z" fill="#FFFFFF" opacity="0.039" />
<path id="Shape-6-copy-3" d="M421.706,30.671 C421.706,30.671 798.000,279.700 798.000,279.700 C798.000,280.318 798.000,280.937 798.000,281.555 C798.000,281.555 475.092,263.380 475.092,263.380 L421.706,30.671 z" fill="#FFFFFF" opacity="0.039" />
<path id="Shape-6-copy-5" d="M200.449,558.674 L606.931,355.063 L428.453,628.331 L200.449,558.674 z" fill="#FFFFFF" opacity="0.039" />
<path id="Shape-6" d="M386.857,532.251 L601.151,628.471 L147.231,660.452 L386.857,532.251 z" fill="#FFFFFF" opacity="0.039" />
<path id="Shape-6-copy" d="M390.756,418.517 L454.010,774.286 L177.391,665.580 L390.756,418.517 z" fill="#FFFFFF" opacity="0.039" />
<path id="Shape-6-copy-7" d="M21.082,515.383 L315.702,475.949 L249.271,795.534 L21.082,515.383 z" fill="#FFFFFF" opacity="0.039" />
<path id="Shape-6-copy-6" d="M246.580,588.550 L309.834,944.318 L33.215,835.613 L246.580,588.550 z" fill="#FFFFFF" opacity="0.039" />
<path id="Shape-6-copy-2" d="M405.894,228.244 L582.972,647.358 L321.425,451.915 L405.894,228.244 z" fill="#FFFFFF" opacity="0.039" />
<path id="Shape-6-copy-3" d="M585.067,307.068 C585.067,307.068 707.659,132.681 707.659,132.681 C713.101,136.201 718.572,139.646 724.000,143.000 C725.034,143.639 726.098,144.066 727.170,144.428 C727.170,144.428 789.301,561.507 789.301,561.507 L585.067,307.068 z" fill="#FFFFFF" opacity="0.039" />
<path id="Shape-6-copy-4" d="M251.836,612.096 L189.004,381.911 L578.110,617.005 L251.836,612.096 z" fill="#FFFFFF" opacity="0.039" />
<path id="Shape-6-copy-5" d="M29.672,605.511 L452.655,771.380 L130.298,821.470 L29.672,605.511 z" fill="#FFFFFF" opacity="0.039" />
<path id="Shape-6" d="M540.464,118.427 C540.464,118.427 798.000,233.990 798.000,233.990 C798.000,243.505 798.000,253.022 798.000,262.538 C798.000,262.538 190.993,305.277 190.993,305.277 L540.464,118.427 z" fill="#FFFFFF" opacity="0.039" />
<path id="Shape-6-copy-7" d="M308.808,478.157 C308.808,478.157 46.545,156.375 46.545,156.375 C67.397,148.046 85.190,135.123 101.000,124.000 C136.255,99.197 167.196,70.065 204.000,47.000 C211.005,42.610 218.171,39.504 225.694,36.444 C225.694,36.444 306.163,25.680 306.163,25.680 C315.757,41.278 338.325,55.543 357.000,44.000 C365.900,38.499 380.903,25.274 387.000,17.000 C387.569,16.228 388.119,15.439 388.663,14.645 C388.663,14.645 405.691,12.367 405.691,12.367 L308.808,478.157 z" fill="#FFFFFF" opacity="0.039" />
<path id="Shape-6-copy-6" d="M-0.000,529.293 C-0.000,529.293 304.883,176.481 304.883,176.481 L397.133,695.009 C397.133,695.009 -0.000,539.042 -0.000,539.042 C-0.000,535.792 -0.000,532.543 -0.000,529.293 z" fill="#FFFFFF" opacity="0.039" />
<path id="Shape-6-copy-2" d="M686.000,118.000 C698.239,126.766 711.248,135.120 724.000,143.000 C727.240,145.002 730.754,145.007 734.000,147.000 C747.872,155.519 763.958,161.351 782.000,166.000 C787.333,165.667 792.667,165.333 798.000,165.000 C798.000,186.667 798.000,208.340 798.000,230.009 C798.000,230.009 513.401,17.474 513.401,17.474 C514.282,17.605 515.153,17.770 516.000,18.000 C529.402,21.642 543.583,23.764 556.000,29.000 C588.521,42.712 615.275,61.554 642.000,81.000 C657.280,92.118 670.602,106.971 686.000,118.000 z" fill="#FFFFFF" opacity="0.039" />
<path id="Shape-6-copy-3" d="M753.044,156.561 C762.033,160.274 771.685,163.342 782.000,166.000 C787.333,165.667 792.667,165.333 798.000,165.000 C798.000,180.843 798.000,196.690 798.000,212.533 C798.000,212.533 753.044,156.561 753.044,156.561 z" fill="#FFFFFF" opacity="0.039" />
<path id="Shape-6-copy-4" d="M291.549,323.799 C291.549,323.799 214.406,41.363 214.406,41.363 C222.219,37.643 230.326,34.702 239.000,31.000 C245.079,28.405 251.563,25.874 258.438,23.644 C258.438,23.644 767.389,330.954 767.389,330.954 L291.549,323.799 z" fill="#FFFFFF" opacity="0.039" />
<path id="Shape-6" d="M461.797,992.262 C461.797,992.262 595.177,1159.649 595.177,1159.649 C567.471,1169.281 540.021,1179.349 514.076,1190.886 C514.076,1190.886 65.545,998.106 65.545,998.106 L461.797,992.262 z" fill="#FFFFFF" opacity="0.039" />
<path id="Shape-6-copy" d="M542.841,847.552 C542.841,847.552 420.390,1243.198 420.390,1243.198 C412.968,1248.410 406.042,1254.160 400.000,1261.000 C395.309,1259.616 393.432,1255.468 390.000,1253.000 C388.314,1251.788 386.703,1252.194 385.000,1251.000 C378.473,1246.422 371.790,1240.322 365.000,1236.000 C342.855,1221.905 318.545,1210.294 295.000,1198.000 C283.181,1191.829 271.436,1188.481 259.000,1183.000 C249.268,1178.711 239.286,1174.612 229.127,1170.648 C229.127,1170.648 101.211,1024.913 101.211,1024.913 L542.841,847.552 z" fill="#FFFFFF" opacity="0.039" />
<path id="Shape-6-copy-7" d="M-0.000,730.808 C-0.000,729.282 -0.000,727.756 -0.000,726.231 C-0.000,726.231 407.184,871.761 407.184,871.761 C407.184,871.761 179.521,1152.540 179.521,1152.540 C165.404,1147.639 151.175,1142.833 137.000,1138.000 C128.284,1135.028 120.717,1134.969 112.000,1132.000 C101.888,1128.556 91.899,1125.123 82.288,1121.375 C82.288,1121.375 -0.000,730.808 -0.000,730.808 z" fill="#FFFFFF" opacity="0.039" />
<path id="Shape-6-copy-6" d="M242.358,971.396 C242.358,971.396 185.636,1154.671 185.636,1154.671 C169.520,1149.027 153.224,1143.531 137.000,1138.000 C128.284,1135.028 120.717,1134.969 112.000,1132.000 C72.702,1118.615 35.194,1105.440 15.000,1073.000 C13.344,1070.339 11.880,1067.487 10.569,1064.484 C10.569,1064.484 242.358,971.396 242.358,971.396 z" fill="#FFFFFF" opacity="0.039" />
<path id="Shape-6-copy-2" d="M542.417,667.611 C542.417,667.611 798.000,437.381 798.000,437.381 C798.000,450.977 798.000,464.570 798.000,478.166 C798.000,478.166 750.849,1095.633 750.849,1095.633 L542.417,667.611 z" fill="#FFFFFF" opacity="0.039" />
<path id="Shape-6-copy-3" d="M711.162,1123.262 C687.295,1131.310 661.286,1137.247 637.623,1145.125 C637.623,1145.125 567.596,800.547 567.596,800.547 C567.596,800.547 798.000,680.151 798.000,680.151 C798.000,726.434 798.000,772.722 798.000,819.000 C798.000,835.423 798.000,851.849 798.000,868.274 C798.000,868.274 711.162,1123.262 711.162,1123.262 z" fill="#FFFFFF" opacity="0.039" />
<path id="Shape-6-copy-4" d="M305.791,665.246 C305.791,665.246 607.286,1155.468 607.286,1155.468 C588.500,1161.917 569.749,1168.498 551.417,1175.527 C551.417,1175.527 233.439,1005.409 233.439,1005.409 L305.791,665.246 z" fill="#FFFFFF" opacity="0.039" />
<path id="Shape-6-copy-5" d="M235.347,1173.107 C203.721,1160.491 170.206,1149.321 137.000,1138.000 C128.284,1135.028 120.717,1134.969 112.000,1132.000 C72.702,1118.615 35.194,1105.440 15.000,1073.000 C-0.034,1048.849 0.000,1009.754 -0.000,971.000 C-0.000,949.125 -0.000,927.246 -0.000,905.368 C-0.000,905.368 235.347,1173.107 235.347,1173.107 z" fill="#FFFFFF" opacity="0.039" />
<path id="Shape-6" d="M798.000,165.000 C798.000,209.026 798.000,253.062 798.000,297.092 C798.000,297.092 692.000,433.000 692.000,433.000 L757.000,169.000 C757.000,169.000 770.869,162.872 770.869,162.872 C774.497,163.972 778.195,165.020 782.000,166.000 C787.333,165.667 792.667,165.333 798.000,165.000 z" fill="#FFFFFF" opacity="0.039" />
<path id="Shape-6-copy-7" d="M681.493,418.249 C681.493,418.249 798.000,576.921 798.000,576.921 C798.000,610.522 798.000,644.121 798.000,677.721 C798.000,677.721 513.651,663.757 513.651,663.757 L681.493,418.249 z" fill="#FFFFFF" opacity="0.039" />
<path id="Shape-6-copy-6" d="M798.000,819.000 C798.000,829.166 798.000,839.333 798.000,849.500 C798.000,849.500 609.000,944.000 609.000,944.000 L568.000,620.000 C568.000,620.000 798.000,763.094 798.000,763.094 C798.000,781.729 798.000,800.367 798.000,819.000 z" fill="#FFFFFF" opacity="0.039" />
<path id="Shape-6-copy-5" d="M514.449,777.674 C514.449,777.674 798.000,635.640 798.000,635.640 C798.000,677.856 798.000,720.071 798.000,762.283 C798.000,762.283 742.453,847.331 742.453,847.331 L514.449,777.674 z" fill="#FFFFFF" opacity="0.039" />
<path id="Shape-6" d="M543.671,597.001 L757.995,693.081 L304.013,725.015 L543.671,597.001 z" fill="#FFFFFF" opacity="0.039" />
<path id="Shape-6-copy" d="M390.756,418.517 L454.010,774.286 L177.391,665.580 L390.756,418.517 z" fill="#FFFFFF" opacity="0.039" />
<path id="Shape-6-copy-7" d="M21.082,515.383 L315.702,475.949 L249.271,795.534 L21.082,515.383 z" fill="#FFFFFF" opacity="0.039" />
<path id="Shape-6-copy-6" d="M246.580,588.550 L309.834,944.318 L33.215,835.613 L246.580,588.550 z" fill="#FFFFFF" opacity="0.039" />
<path id="Shape-6-copy-4" d="M251.836,612.096 L189.004,381.911 L578.110,617.005 L251.836,612.096 z" fill="#FFFFFF" opacity="0.039" />
<path id="Shape-6-copy-5" d="M29.672,605.511 L452.655,771.380 L130.298,821.470 L29.672,605.511 z" fill="#FFFFFF" opacity="0.039" />
<path id="Shape-6-copy" d="M547.151,232.661 L639.401,751.189 L235.978,592.752 L547.151,232.661 z" fill="#FFFFFF" opacity="0.039" />
<path id="Shape-6-copy-7" d="M308.808,478.157 C308.808,478.157 46.545,156.375 46.545,156.375 C67.397,148.046 85.190,135.123 101.000,124.000 C136.255,99.197 167.196,70.065 204.000,47.000 C211.005,42.610 218.171,39.504 225.694,36.444 C225.694,36.444 306.163,25.680 306.163,25.680 C315.757,41.278 338.325,55.543 357.000,44.000 C365.900,38.499 380.903,25.274 387.000,17.000 C387.569,16.228 388.119,15.439 388.663,14.645 C388.663,14.645 405.691,12.367 405.691,12.367 L308.808,478.157 z" fill="#FFFFFF" opacity="0.039" />
<path id="Shape-6-copy-6" d="M-0.000,529.293 C-0.000,529.293 304.883,176.481 304.883,176.481 L397.133,695.009 C397.133,695.009 -0.000,539.042 -0.000,539.042 C-0.000,535.792 -0.000,532.543 -0.000,529.293 z" fill="#FFFFFF" opacity="0.039" />
<path id="Shape-6-copy-2" d="M686.000,118.000 C698.239,126.766 711.248,135.120 724.000,143.000 C727.240,145.002 730.754,145.007 734.000,147.000 C747.872,155.519 763.958,161.351 782.000,166.000 C787.333,165.667 792.667,165.333 798.000,165.000 C798.000,186.667 798.000,208.340 798.000,230.009 C798.000,230.009 513.401,17.474 513.401,17.474 C514.282,17.605 515.153,17.770 516.000,18.000 C529.402,21.642 543.583,23.764 556.000,29.000 C588.521,42.712 615.275,61.554 642.000,81.000 C657.280,92.118 670.602,106.971 686.000,118.000 z" fill="#FFFFFF" opacity="0.039" />
<path id="Shape-6-copy-3" d="M753.044,156.561 C762.033,160.274 771.685,163.342 782.000,166.000 C787.333,165.667 792.667,165.333 798.000,165.000 C798.000,180.843 798.000,196.690 798.000,212.533 C798.000,212.533 753.044,156.561 753.044,156.561 z" fill="#FFFFFF" opacity="0.039" />
<path id="Shape-6" d="M461.797,992.262 C461.797,992.262 595.177,1159.649 595.177,1159.649 C567.471,1169.281 540.021,1179.349 514.076,1190.886 C514.076,1190.886 65.545,998.106 65.545,998.106 L461.797,992.262 z" fill="#FFFFFF" opacity="0.039" />
<path id="Shape-6-copy" d="M542.841,847.552 C542.841,847.552 420.390,1243.198 420.390,1243.198 C412.968,1248.410 406.042,1254.160 400.000,1261.000 C395.309,1259.616 393.432,1255.468 390.000,1253.000 C388.314,1251.788 386.703,1252.194 385.000,1251.000 C378.473,1246.422 371.790,1240.322 365.000,1236.000 C342.855,1221.905 318.545,1210.294 295.000,1198.000 C283.181,1191.829 271.436,1188.481 259.000,1183.000 C249.268,1178.711 239.286,1174.612 229.127,1170.648 C229.127,1170.648 101.211,1024.913 101.211,1024.913 L542.841,847.552 z" fill="#FFFFFF" opacity="0.039" />
<path id="Shape-6-copy-7" d="M-0.000,730.808 C-0.000,729.282 -0.000,727.756 -0.000,726.231 C-0.000,726.231 407.184,871.761 407.184,871.761 C407.184,871.761 179.521,1152.540 179.521,1152.540 C165.404,1147.639 151.175,1142.833 137.000,1138.000 C128.284,1135.028 120.717,1134.969 112.000,1132.000 C101.888,1128.556 91.899,1125.123 82.288,1121.375 C82.288,1121.375 -0.000,730.808 -0.000,730.808 z" fill="#FFFFFF" opacity="0.039" />
<path id="Shape-6-copy-6" d="M242.358,971.396 C242.358,971.396 185.636,1154.671 185.636,1154.671 C169.520,1149.027 153.224,1143.531 137.000,1138.000 C128.284,1135.028 120.717,1134.969 112.000,1132.000 C72.702,1118.615 35.194,1105.440 15.000,1073.000 C13.344,1070.339 11.880,1067.487 10.569,1064.484 C10.569,1064.484 242.358,971.396 242.358,971.396 z" fill="#FFFFFF" opacity="0.039" />
<path id="Shape-6-copy-2" d="M587.925,1162.184 C587.925,1162.184 465.417,910.611 465.417,910.611 L724.345,677.369 C724.345,677.369 689.790,1129.882 689.790,1129.882 C671.368,1135.210 652.484,1140.022 635.000,1146.000 C619.344,1151.352 603.577,1156.685 587.925,1162.184 z" fill="#FFFFFF" opacity="0.039" />
<path id="Shape-6-copy-3" d="M711.162,1123.262 C687.295,1131.310 661.286,1137.247 637.623,1145.125 C637.623,1145.125 567.596,800.547 567.596,800.547 C567.596,800.547 798.000,680.151 798.000,680.151 C798.000,726.434 798.000,772.722 798.000,819.000 C798.000,835.423 798.000,851.849 798.000,868.274 C798.000,868.274 711.162,1123.262 711.162,1123.262 z" fill="#FFFFFF" opacity="0.039" />
<path id="Shape-6-copy-4" d="M305.791,665.246 C305.791,665.246 607.286,1155.468 607.286,1155.468 C588.500,1161.917 569.749,1168.498 551.417,1175.527 C551.417,1175.527 233.439,1005.409 233.439,1005.409 L305.791,665.246 z" fill="#FFFFFF" opacity="0.039" />
<path id="Shape-6-copy-5" d="M235.347,1173.107 C203.721,1160.491 170.206,1149.321 137.000,1138.000 C128.284,1135.028 120.717,1134.969 112.000,1132.000 C72.702,1118.615 35.194,1105.440 15.000,1073.000 C-0.034,1048.849 0.000,1009.754 -0.000,971.000 C-0.000,949.125 -0.000,927.246 -0.000,905.368 C-0.000,905.368 235.347,1173.107 235.347,1173.107 z" fill="#FFFFFF" opacity="0.039" />
</g>
</g>
</svg>
