<svg width="81" height="80" viewBox="0 0 81 80" fill="none" xmlns="http://www.w3.org/2000/svg">
<path d="M67.1667 43.3335H49.6667C46.445 43.3335 43.8334 45.9452 43.8334 49.1668V66.6668C43.8334 69.8885 46.445 72.5002 49.6667 72.5002H67.1667C70.3884 72.5002 73 69.8885 73 66.6668V49.1668C73 45.9452 70.3884 43.3335 67.1667 43.3335Z" fill="#773DBD"/>
<path d="M31.3333 43.3335H13.8333C10.6117 43.3335 8 45.9452 8 49.1668V66.6668C8 69.8885 10.6117 72.5002 13.8333 72.5002H31.3333C34.555 72.5002 37.1667 69.8885 37.1667 66.6668V49.1668C37.1667 45.9452 34.555 43.3335 31.3333 43.3335Z" fill="#773DBD"/>
<path d="M31.3333 7.5H13.8333C10.6117 7.5 8 10.1117 8 13.3333V30.8333C8 34.055 10.6117 36.6667 13.8333 36.6667H31.3333C34.555 36.6667 37.1667 34.055 37.1667 30.8333V13.3333C37.1667 10.1117 34.555 7.5 31.3333 7.5Z" fill="#773DBD"/>
<path d="M70.5 19.1667H61.3333V10C61.3333 9.33696 61.0699 8.70107 60.6011 8.23223C60.1322 7.76339 59.4963 7.5 58.8333 7.5C58.1703 7.5 57.5344 7.76339 57.0655 8.23223C56.5967 8.70107 56.3333 9.33696 56.3333 10V19.1667H47.1666C46.5036 19.1667 45.8677 19.4301 45.3989 19.8989C44.93 20.3677 44.6666 21.0036 44.6666 21.6667C44.6666 22.3297 44.93 22.9656 45.3989 23.4344C45.8677 23.9033 46.5036 24.1667 47.1666 24.1667H56.3333V33.3333C56.3333 33.9964 56.5967 34.6323 57.0655 35.1011C57.5344 35.5699 58.1703 35.8333 58.8333 35.8333C59.4963 35.8333 60.1322 35.5699 60.6011 35.1011C61.0699 34.6323 61.3333 33.9964 61.3333 33.3333V24.1667H70.5C71.163 24.1667 71.7989 23.9033 72.2677 23.4344C72.7366 22.9656 73 22.3297 73 21.6667C73 21.0036 72.7366 20.3677 72.2677 19.8989C71.7989 19.4301 71.163 19.1667 70.5 19.1667Z" fill="#FF5000"/>
</svg>
