<svg width="16" height="16" viewBox="0 0 16 16" fill="none" xmlns="http://www.w3.org/2000/svg">
<path d="M8.50004 5.3335C8.50004 5.05735 8.27618 4.8335 8.00004 4.8335C7.7239 4.8335 7.50004 5.05735 7.50004 5.3335V7.50016H5.33337C5.05723 7.50016 4.83337 7.72402 4.83337 8.00016C4.83337 8.27631 5.05723 8.50016 5.33337 8.50016H7.50004V10.6668C7.50004 10.943 7.7239 11.1668 8.00004 11.1668C8.27618 11.1668 8.50004 10.943 8.50004 10.6668V8.50016H10.6667C10.9428 8.50016 11.1667 8.27631 11.1667 8.00016C11.1667 7.72402 10.9428 7.50016 10.6667 7.50016H8.50004V5.3335Z" fill="#161616"/>
<path fill-rule="evenodd" clip-rule="evenodd" d="M8.00004 15.1668C4.042 15.1668 0.833374 11.9582 0.833374 8.00016C0.833374 4.04212 4.042 0.833496 8.00004 0.833496C11.9581 0.833496 15.1667 4.04212 15.1667 8.00016C15.1667 11.9582 11.9581 15.1668 8.00004 15.1668ZM1.83337 8.00016C1.83337 11.4059 4.59428 14.1668 8.00004 14.1668C11.4058 14.1668 14.1667 11.4059 14.1667 8.00016C14.1667 4.59441 11.4058 1.8335 8.00004 1.8335C4.59428 1.8335 1.83337 4.59441 1.83337 8.00016Z" fill="#161616"/>
</svg>
