<svg width="30" height="30" viewBox="0 0 30 30" fill="none" xmlns="http://www.w3.org/2000/svg">
<rect width="30" height="30" rx="3" fill="#773DBD"/>
<path fill-rule="evenodd" clip-rule="evenodd" d="M13.625 12.2188C12.8483 12.2188 12.2188 12.8483 12.2188 13.625C12.2188 14.4017 12.8483 15.0312 13.625 15.0312C14.4017 15.0312 15.0312 14.4017 15.0312 13.625C15.0312 12.8483 14.4017 12.2188 13.625 12.2188ZM13.1562 13.625C13.1562 13.3661 13.3661 13.1562 13.625 13.1562C13.8839 13.1562 14.0938 13.3661 14.0938 13.625C14.0938 13.8839 13.8839 14.0938 13.625 14.0938C13.3661 14.0938 13.1562 13.8839 13.1562 13.625Z" fill="white"/>
<path fill-rule="evenodd" clip-rule="evenodd" d="M10.0312 10.9688V20.5C10.0312 20.7589 10.2411 20.9688 10.5 20.9688H20.0312V21.75H20.9687V20.9688H21.75V20.0312H20.9687L20.9688 10.5C20.9688 10.3757 20.9194 10.2565 20.8315 10.1685C20.7435 10.0806 20.6243 10.0312 20.5 10.0312H10.9688V9.25H10.0312V10.0312H9.25V10.9688H10.0312ZM10.9688 10.9688V20.0312H11.5644L17.0069 14.9089L20.0312 16.8335L20.0312 10.9688H10.9688ZM20.0312 20.0312H12.9322L17.1186 16.0912L20.0312 17.9447V20.0312Z" fill="white"/>
</svg>
