<svg width="12" height="11" viewBox="0 0 12 11" fill="none" xmlns="http://www.w3.org/2000/svg">
<path d="M2.54494 6.02266L6.3765 9.85423C6.48175 9.96198 6.53463 10.0862 6.53513 10.2268C6.53563 10.3674 6.482 10.4915 6.37425 10.5992C6.26413 10.7078 6.13938 10.7625 6 10.7632C5.86063 10.764 5.73707 10.7093 5.62932 10.5992L0.980066 5.94991C0.913691 5.88591 0.865129 5.81654 0.834379 5.74179C0.803629 5.66704 0.788254 5.58641 0.788254 5.49991C0.788254 5.41341 0.803629 5.33279 0.834379 5.25804C0.865129 5.18329 0.913691 5.11273 0.980066 5.04635L5.62932 0.397101C5.73082 0.295601 5.85282 0.243664 5.99532 0.241289C6.13782 0.238914 6.26413 0.290851 6.37425 0.397101C6.482 0.507101 6.53588 0.632227 6.53588 0.772477C6.53588 0.912602 6.482 1.03766 6.37425 1.14766L2.54494 4.97341H10.9508C11.094 4.97341 11.2169 5.02479 11.3196 5.12754C11.4222 5.23016 11.4735 5.35429 11.4735 5.49991C11.4735 5.64554 11.4222 5.7691 11.3196 5.8706C11.2169 5.97198 11.094 6.02266 10.9508 6.02266H2.54494Z" fill="#1B1B1B"/>
</svg>
