<svg width="22" height="15" viewBox="0 0 22 15" fill="none" xmlns="http://www.w3.org/2000/svg">
<path d="M5.56406 11.9788C6.38973 11.9788 7.19423 12.0728 7.97756 12.2606C8.7609 12.4484 9.5384 12.743 10.3101 13.1443V3.43483C9.62107 2.977 8.86381 2.63033 8.03831 2.39483C7.21281 2.15917 6.3864 2.04133 5.55906 2.04133C4.9684 2.04133 4.41506 2.0885 3.89906 2.18283C3.38323 2.277 2.85423 2.4315 2.31206 2.64633C2.23506 2.672 2.18056 2.70883 2.14856 2.75683C2.11656 2.80483 2.10056 2.85775 2.10056 2.91558V12.2511C2.10056 12.3408 2.13256 12.4064 2.19656 12.4481C2.26073 12.4898 2.33131 12.4946 2.40831 12.4626C2.86398 12.3011 3.35431 12.1801 3.87931 12.0996C4.40448 12.0191 4.96606 11.9788 5.56406 11.9788ZM11.7091 13.1443C12.4816 12.743 13.2566 12.4484 14.0341 12.2606C14.8116 12.0728 15.6114 11.9788 16.4336 11.9788C17.0289 11.9788 17.59 12.0191 18.1168 12.0996C18.6438 12.1801 19.1352 12.3011 19.5908 12.4626C19.6678 12.4946 19.7384 12.4898 19.8026 12.4481C19.8666 12.4064 19.8986 12.3408 19.8986 12.2511V2.91458C19.8986 2.85692 19.8826 2.80558 19.8506 2.76058C19.8186 2.71575 19.7641 2.67733 19.6871 2.64533C19.1454 2.44467 18.6166 2.29383 18.1006 2.19283C17.5844 2.09183 17.0306 2.04133 16.4391 2.04133C15.6107 2.04133 14.7876 2.15917 13.9698 2.39483C13.1518 2.63033 12.3982 2.9775 11.7091 3.43633V13.1443ZM11.0031 14.8521C10.8411 14.8521 10.6885 14.8331 10.5453 14.7951C10.4021 14.7571 10.2686 14.7004 10.1448 14.6251C9.43781 14.2168 8.69998 13.9068 7.93131 13.6953C7.16265 13.4837 6.37223 13.3778 5.56006 13.3778C4.9774 13.3778 4.40515 13.4408 3.84331 13.5668C3.28148 13.6928 2.73481 13.8768 2.20331 14.1188C1.84565 14.2768 1.50598 14.2485 1.18431 14.0338C0.86248 13.819 0.701563 13.5148 0.701563 13.1211V2.58658C0.701563 2.36608 0.760396 2.16342 0.878063 1.97858C0.995563 1.79358 1.15881 1.65783 1.36781 1.57133C2.02681 1.26367 2.70931 1.03192 3.41531 0.876083C4.12131 0.72025 4.83623 0.642334 5.56006 0.642334C6.52573 0.642334 7.46906 0.776667 8.39006 1.04533C9.31106 1.31383 10.1809 1.70517 10.9996 2.21933C11.8182 1.70517 12.6881 1.31383 13.6091 1.04533C14.5301 0.776667 15.4734 0.642334 16.4391 0.642334C17.1629 0.642334 17.8778 0.72025 18.5838 0.876083C19.2898 1.03192 19.9723 1.26367 20.6313 1.57133C20.8403 1.65783 21.0036 1.79358 21.1211 1.97858C21.2387 2.16342 21.2976 2.36608 21.2976 2.58658V13.1211C21.2976 13.5148 21.1302 13.8158 20.7956 14.0241C20.4611 14.2324 20.1086 14.2576 19.7381 14.0996C19.2131 13.8639 18.6751 13.6848 18.1243 13.5621C17.5737 13.4393 17.0119 13.3778 16.4391 13.3778C15.6269 13.3778 14.8365 13.4837 14.0678 13.6953C13.2991 13.9068 12.5629 14.2168 11.8591 14.6251C11.7316 14.7008 11.5976 14.7575 11.4571 14.7953C11.3166 14.8332 11.1652 14.8521 11.0031 14.8521Z" fill="#666666"/>
</svg>
