<svg width="20" height="20" viewBox="0 0 20 20" fill="none" xmlns="http://www.w3.org/2000/svg">
<path d="M7.50748 10.0209H5.83333V11.6875H7.50748V10.0209Z" fill="#773DBD"/>
<path d="M10.8371 10.0209H9.16293V11.6875H10.8371V10.0209Z" fill="#773DBD"/>
<path d="M14.1667 10.0209H12.4925V11.6875H14.1667V10.0209Z" fill="#773DBD"/>
<path d="M7.50748 13.3542H5.83333V15.0209H7.50748V13.3542Z" fill="#773DBD"/>
<path d="M10.8371 13.3542H9.16293V15.0209H10.8371V13.3542Z" fill="#773DBD"/>
<path fill-rule="evenodd" clip-rule="evenodd" d="M6.25 2.5V1.25H4.58333V2.5H2.5C2.15482 2.5 1.875 2.77982 1.875 3.125V17.9375C1.875 18.3862 2.23877 18.75 2.6875 18.75H17.3125C17.7612 18.75 18.125 18.3862 18.125 17.9375V3.125C18.125 2.77982 17.8452 2.5 17.5 2.5H15.4167V1.25H13.75V2.5H6.25ZM16.5 7.91667V17.125H3.5V7.91667H16.5Z" fill="#773DBD"/>
</svg>
