<svg width="20" height="20" viewBox="0 0 20 20" fill="none" xmlns="http://www.w3.org/2000/svg">
<path fill-rule="evenodd" clip-rule="evenodd" d="M9.99996 18.9587C5.05241 18.9587 1.04163 14.9479 1.04163 10.0003C1.04163 5.05277 5.05241 1.04199 9.99996 1.04199C14.9475 1.04199 18.9583 5.05277 18.9583 10.0003C18.9583 14.9479 14.9475 18.9587 9.99996 18.9587ZM13.0892 8.0896C13.4146 7.76417 13.4147 7.23654 13.0892 6.91109C12.7638 6.58564 12.2362 6.58562 11.9107 6.91105L9.99979 8.82185L8.0892 6.91138C7.76375 6.58595 7.23611 6.58597 6.91068 6.91142C6.58526 7.23687 6.58528 7.7645 6.91072 8.08993L8.82125 10.0003L6.91072 11.9107C6.58528 12.2361 6.58526 12.7638 6.91068 13.0892C7.23611 13.4147 7.76375 13.4147 8.0892 13.0893L9.99979 11.1788L11.9107 13.0896C12.2362 13.415 12.7638 13.415 13.0892 13.0896C13.4147 12.7641 13.4146 12.2365 13.0892 11.9111L11.1783 10.0003L13.0892 8.0896Z" fill="#FF003D"/>
</svg>
