<svg width="20" height="18" viewBox="0 0 20 18" fill="none" xmlns="http://www.w3.org/2000/svg">
<path d="M2.40684 17.2981C1.93434 17.2981 1.53209 17.1322 1.20009 16.8004C0.86826 16.4684 0.702343 16.0654 0.702343 15.5914V5.2069C0.702343 4.7329 0.86826 4.32998 1.20009 3.99815C1.53209 3.66615 1.93509 3.50015 2.40909 3.50015H6.62159V1.90765C6.62159 1.43348 6.78751 1.03065 7.11934 0.699149C7.45134 0.367815 7.85368 0.202148 8.32634 0.202148H11.6743C12.147 0.202148 12.5493 0.368148 12.8813 0.700148C13.2132 1.03198 13.3791 1.4349 13.3791 1.9089V3.50015H17.5916C18.0656 3.50015 18.4686 3.66615 18.8006 3.99815C19.1324 4.32998 19.2983 4.7329 19.2983 5.2069V15.5914C19.2983 16.0654 19.1324 16.4684 18.8006 16.8004C18.4686 17.1322 18.0663 17.2981 17.5938 17.2981H2.40684ZM2.40909 15.8991H17.5916C17.6686 15.8991 17.7392 15.8671 17.8033 15.8031C17.8673 15.739 17.8993 15.6684 17.8993 15.5914V5.2069C17.8993 5.1299 17.8673 5.0594 17.8033 4.9954C17.7392 4.93123 17.6686 4.89915 17.5916 4.89915H2.40909C2.33209 4.89915 2.26151 4.93123 2.19734 4.9954C2.13334 5.0594 2.10134 5.1299 2.10134 5.2069V15.5914C2.10134 15.6684 2.13334 15.739 2.19734 15.8031C2.26151 15.8671 2.33209 15.8991 2.40909 15.8991ZM8.02059 3.50015H11.9801V1.9089C11.9801 1.8319 11.9481 1.7614 11.8841 1.6974C11.8199 1.63323 11.7493 1.60115 11.6723 1.60115H8.32834C8.25134 1.60115 8.18076 1.63323 8.11659 1.6974C8.05259 1.7614 8.02059 1.8319 8.02059 1.9089V3.50015Z" fill="#666666"/>
</svg>
