<svg width="12" height="12" viewBox="0 0 12 12" fill="none" xmlns="http://www.w3.org/2000/svg">
<path fill-rule="evenodd" clip-rule="evenodd" d="M0.980187 0.979943C1.17545 0.784681 1.49203 0.784681 1.68729 0.979943L6.00041 5.29306L10.3135 0.979943C10.5088 0.784681 10.8254 0.784681 11.0206 0.979943C11.2159 1.1752 11.2159 1.49179 11.0206 1.68705L6.70751 6.00016L11.0206 10.3133C11.2159 10.5085 11.2159 10.8251 11.0206 11.0204C10.8254 11.2156 10.5088 11.2156 10.3135 11.0204L6.00041 6.70727L1.68729 11.0204C1.49203 11.2156 1.17545 11.2156 0.980187 11.0204C0.784925 10.8251 0.784925 10.5085 0.980187 10.3133L5.2933 6.00016L0.980187 1.68705C0.784925 1.49179 0.784925 1.1752 0.980187 0.979943Z" fill="#161616"/>
</svg>
