<svg width="26" height="26" viewBox="0 0 26 26" fill="none" xmlns="http://www.w3.org/2000/svg">
<path d="M21.2909 18.663C20.7521 19.1611 20.1319 19.5373 19.4609 19.7915C18.7899 20.0457 18.0681 19.5576 18.0681 18.8358V17.4938C18.0681 15.5113 16.4618 13.905 14.4793 13.905H11.4903C9.50778 13.905 7.90145 15.5113 7.90145 17.4938V19.1001C7.90145 19.6593 7.44395 20.1168 6.88478 20.1168H6.42728C3.93645 19.7407 2.81812 17.7175 2.81812 15.9078C2.81812 14.1998 3.81445 12.3088 5.97995 11.7801C5.38012 9.41132 5.88845 7.18482 7.43378 5.56832C9.19262 3.72815 11.9986 2.99615 14.4183 3.74848C16.6448 4.42965 18.2104 6.25965 18.7696 8.80132C20.7114 9.23848 22.2669 10.7025 22.8871 12.7358C23.5581 14.942 22.9481 17.2091 21.2909 18.663Z" fill="#8ED1F3"/>
<path d="M14.4793 15.4299H11.4903C10.1992 15.4299 9.42651 16.2026 9.42651 17.4938V20.4828C9.42651 21.7739 10.1992 22.5466 11.4903 22.5466H14.4793C15.7705 22.5466 16.5432 21.7739 16.5432 20.4828V17.4938C16.5432 16.2026 15.7705 15.4299 14.4793 15.4299ZM12.69 19.9541L11.4293 21.2046C11.3378 21.2961 11.2158 21.3469 11.104 21.3469C10.9718 21.3469 10.86 21.2961 10.7685 21.2046C10.5855 21.0216 10.5855 20.7268 10.7685 20.5438L12.019 19.2831C12.2122 19.1001 12.507 19.1001 12.69 19.2831C12.873 19.4661 12.873 19.7711 12.69 19.9541ZM12.69 17.4328L11.4293 18.6934C11.3378 18.7849 11.2158 18.8358 11.104 18.8358C10.9718 18.8358 10.86 18.7849 10.7685 18.6934C10.5855 18.5104 10.5855 18.2054 10.7685 18.0224L12.019 16.7719C12.2122 16.5889 12.507 16.5889 12.69 16.7719C12.873 16.9549 12.873 17.2498 12.69 17.4328ZM15.2012 19.9541L13.9507 21.2046C13.849 21.2961 13.7372 21.3469 13.6152 21.3469C13.4932 21.3469 13.3712 21.2961 13.2797 21.2046C13.0967 21.0216 13.0967 20.7268 13.2797 20.5438L14.5403 19.2831C14.7233 19.1001 15.0182 19.1001 15.2012 19.2831C15.3842 19.4661 15.3842 19.7711 15.2012 19.9541ZM15.2012 17.4328L13.9507 18.6934C13.849 18.7849 13.7372 18.8358 13.6152 18.8358C13.4932 18.8358 13.3712 18.7849 13.2797 18.6934C13.0967 18.5104 13.0967 18.2054 13.2797 18.0224L14.5403 16.7719C14.7233 16.5889 15.0182 16.5889 15.2012 16.7719C15.3842 16.9549 15.3842 17.2498 15.2012 17.4328Z" fill="#209CDB"/>
</svg>
