<svg width="32" height="32" viewBox="0 0 32 32" fill="none" xmlns="http://www.w3.org/2000/svg">
<rect x="0.25" y="0.25" width="30.7432" height="30.7432" rx="2.75" fill="white"/>
<rect x="0.25" y="0.25" width="30.7432" height="30.7432" rx="2.75" stroke="#EAECF0" stroke-width="0.5"/>
<path fill-rule="evenodd" clip-rule="evenodd" d="M13.7466 7.55908C13.4466 7.55908 13.1754 7.73788 13.0572 8.01364L12.127 10.1841H8.12158V11.6841H9.4903L10.1855 23.1556C10.2035 23.4525 10.4496 23.6841 10.747 23.6841H20.497C20.7945 23.6841 21.0405 23.4525 21.0585 23.1556L21.7537 11.6841H23.1216V10.1841H19.1161L18.1859 8.01364C18.0678 7.73788 17.7966 7.55908 17.4966 7.55908H13.7466ZM17.4842 10.1841H13.759L14.2411 9.05908H17.002L17.4842 10.1841ZM14.4973 14.8716V19.3716H12.9973L12.9973 14.8716H14.4973ZM18.2473 14.8716V19.3716H16.7473V14.8716H18.2473Z" fill="#FE3A46"/>
</svg>
