<svg width="32" height="32" viewBox="0 0 32 32" fill="none" xmlns="http://www.w3.org/2000/svg">
<rect x="0.25" y="0.628418" width="30.7432" height="30.7432" rx="2.75" fill="white"/>
<rect x="0.25" y="0.628418" width="30.7432" height="30.7432" rx="2.75" stroke="#EAECF0" stroke-width="0.5"/>
<path fill-rule="evenodd" clip-rule="evenodd" d="M13.7466 7.9375C13.4466 7.9375 13.1754 8.1163 13.0572 8.39206L12.127 10.5625H8.12158V12.0625H9.4903L10.1855 23.5341C10.2035 23.831 10.4496 24.0625 10.747 24.0625H20.497C20.7945 24.0625 21.0405 23.831 21.0585 23.5341L21.7537 12.0625H23.1216V10.5625H19.1161L18.1859 8.39206C18.0678 8.1163 17.7966 7.9375 17.4966 7.9375H13.7466ZM17.4842 10.5625H13.759L14.2411 9.4375H17.002L17.4842 10.5625ZM14.4973 15.25V19.75H12.9973L12.9973 15.25H14.4973ZM18.2473 15.25V19.75H16.7473V15.25H18.2473Z" fill="#FE3A46"/>
</svg>
