<svg width="20" height="20" viewBox="0 0 20 20" fill="none" xmlns="http://www.w3.org/2000/svg">
<path fill-rule="evenodd" clip-rule="evenodd" d="M10 1.04102C9.66621 1.04102 9.3698 1.12999 9.07158 1.26217C8.79176 1.3862 8.47247 1.56637 8.09767 1.77786L3.85931 4.16927C3.47088 4.38842 3.13942 4.57542 2.87924 4.7593C2.60099 4.95596 2.36533 5.17488 2.19018 5.47688C2.01561 5.77787 1.94175 6.09046 1.90754 6.42951C1.8755 6.74703 1.87533 7.12847 1.87512 7.57646L1.875 11.6149C1.87499 13.1699 1.87498 14.3996 2.00246 15.3617C2.13346 16.3503 2.40916 17.1497 3.03117 17.7808C3.65443 18.4132 4.44593 18.6946 5.42462 18.8281C6.37455 18.9577 7.58808 18.9577 9.11901 18.9577H10.881C12.4119 18.9577 13.6255 18.9577 14.5754 18.8281C15.5541 18.6946 16.3456 18.4132 16.9688 17.7808C17.5908 17.1497 17.8665 16.3503 17.9975 15.3617C18.125 14.3996 18.125 13.1699 18.125 11.615L18.1249 7.57644C18.1247 7.12846 18.1245 6.74702 18.0925 6.42951C18.0582 6.09046 17.9844 5.77787 17.8098 5.47688C17.6347 5.17488 17.399 4.95596 17.1208 4.7593C16.8606 4.57542 16.5291 4.38842 16.1407 4.16927L11.9024 1.77789C11.5276 1.5664 11.2082 1.38621 10.9284 1.26217C10.6302 1.12999 10.3338 1.04102 10 1.04102ZM6.66667 6.66602C6.20643 6.66602 5.83333 7.03911 5.83333 7.49935C5.83333 7.95959 6.20643 8.33268 6.66667 8.33268H8.33333C8.79357 8.33268 9.16667 7.95959 9.16667 7.49935C9.16667 7.03911 8.79357 6.66602 8.33333 6.66602H6.66667ZM11.6667 6.66602C11.2064 6.66602 10.8333 7.03911 10.8333 7.49935C10.8333 7.95959 11.2064 8.33268 11.6667 8.33268H13.3333C13.7936 8.33268 14.1667 7.95959 14.1667 7.49935C14.1667 7.03911 13.7936 6.66602 13.3333 6.66602H11.6667ZM6.66667 9.99935C6.20643 9.99935 5.83333 10.3724 5.83333 10.8327C5.83333 11.2929 6.20643 11.666 6.66667 11.666H8.33333C8.79357 11.666 9.16667 11.2929 9.16667 10.8327C9.16667 10.3724 8.79357 9.99935 8.33333 9.99935H6.66667ZM11.6667 9.99935C11.2064 9.99935 10.8333 10.3724 10.8333 10.8327C10.8333 11.2929 11.2064 11.666 11.6667 11.666H13.3333C13.7936 11.666 14.1667 11.2929 14.1667 10.8327C14.1667 10.3724 13.7936 9.99935 13.3333 9.99935H11.6667ZM6.66667 13.3327C6.20643 13.3327 5.83333 13.7058 5.83333 14.166C5.83333 14.6263 6.20643 14.9993 6.66667 14.9993H8.33333C8.79357 14.9993 9.16667 14.6263 9.16667 14.166C9.16667 13.7058 8.79357 13.3327 8.33333 13.3327H6.66667ZM11.6667 13.3327C11.2064 13.3327 10.8333 13.7058 10.8333 14.166C10.8333 14.6263 11.2064 14.9993 11.6667 14.9993H13.3333C13.7936 14.9993 14.1667 14.6263 14.1667 14.166C14.1667 13.7058 13.7936 13.3327 13.3333 13.3327H11.6667Z" fill="#773DBD"/>
</svg>
