<svg width="20" height="20" viewBox="0 0 20 20" fill="none" xmlns="http://www.w3.org/2000/svg">
<path d="M10.8333 10.2085C10.4882 10.2085 10.2083 10.4883 10.2083 10.8335C10.2083 11.1787 10.4882 11.4585 10.8333 11.4585H14.1667C14.5118 11.4585 14.7917 11.1787 14.7917 10.8335C14.7917 10.4883 14.5118 10.2085 14.1667 10.2085H10.8333Z" fill="#773DBD"/>
<path d="M10.2083 14.1668C10.2083 13.8217 10.4882 13.5418 10.8333 13.5418H12.5C12.8452 13.5418 13.125 13.8217 13.125 14.1668C13.125 14.512 12.8452 14.7918 12.5 14.7918H10.8333C10.4882 14.7918 10.2083 14.512 10.2083 14.1668Z" fill="#773DBD"/>
<path d="M5.83313 4.16683C5.37289 4.16683 4.99979 4.53993 4.99979 5.00016C4.99979 5.4604 5.37289 5.8335 5.83313 5.8335H5.84061C6.30085 5.8335 6.67394 5.4604 6.67394 5.00016C6.67394 4.53993 6.30085 4.16683 5.84061 4.16683H5.83313Z" fill="#773DBD"/>
<path d="M8.33313 5.00016C8.33313 4.53993 8.70622 4.16683 9.16646 4.16683H9.17394C9.63418 4.16683 10.0073 4.53993 10.0073 5.00016C10.0073 5.4604 9.63418 5.8335 9.17394 5.8335H9.16646C8.70622 5.8335 8.33313 5.4604 8.33313 5.00016Z" fill="#773DBD"/>
<path fill-rule="evenodd" clip-rule="evenodd" d="M9.95235 1.4585H10.0476C11.8732 1.45849 13.3071 1.45848 14.4266 1.60899C15.5739 1.76323 16.4841 2.08576 17.1992 2.80092C17.9144 3.51609 18.2369 4.4263 18.3912 5.57352C18.5417 6.69303 18.5417 8.12692 18.5417 9.9525V10.0478C18.5417 11.8734 18.5417 13.3073 18.3912 14.4268C18.2369 15.574 17.9144 16.4842 17.1992 17.1994C16.4841 17.9146 15.5739 18.2371 14.4266 18.3913C13.3071 18.5418 11.8732 18.5418 10.0477 18.5418H9.95236C9.09795 18.5418 8.3293 18.5418 7.63856 18.5264C7.59399 18.5365 7.54762 18.5418 7.5 18.5418C7.44086 18.5418 7.38365 18.5336 7.32942 18.5183C6.67222 18.4981 6.08939 18.4607 5.57335 18.3913C4.42613 18.2371 3.51592 17.9146 2.80076 17.1994C2.08559 16.4842 1.76306 15.574 1.60882 14.4268C1.45831 13.3073 1.45832 11.8734 1.45833 10.0478V9.95252C1.45832 8.12693 1.45831 6.69303 1.60882 5.57352C1.76306 4.4263 2.08559 3.51609 2.80076 2.80092C3.51592 2.08576 4.42613 1.76323 5.57335 1.60899C6.69286 1.45848 8.12676 1.45849 9.95235 1.4585ZM8.125 17.2845C8.68457 17.2917 9.30606 17.2918 10 17.2918C11.8836 17.2918 13.2335 17.2905 14.2601 17.1525C15.2687 17.0169 15.8711 16.7597 16.3154 16.3155C16.7596 15.8713 17.0167 15.2689 17.1523 14.2603C17.2903 13.2337 17.2917 11.8838 17.2917 10.0002C17.2917 9.30623 17.2915 8.68473 17.2844 8.12516H8.125V17.2845ZM6.875 8.12516V17.2496C6.456 17.229 6.08019 17.1982 5.73991 17.1525C4.7313 17.0169 4.12884 16.7597 3.68464 16.3155C3.24044 15.8713 2.98328 15.2689 2.84768 14.2603C2.70966 13.2337 2.70833 11.8838 2.70833 10.0002C2.70833 9.30623 2.70851 8.68473 2.71564 8.12516H6.875ZM17.2494 6.87516C17.2288 6.45617 17.1981 6.08036 17.1523 5.74008C17.0167 4.73147 16.7596 4.12901 16.3154 3.68481C15.8711 3.2406 15.2687 2.98345 14.2601 2.84784C13.2335 2.70982 11.8836 2.7085 10 2.7085C8.11635 2.7085 6.76649 2.70982 5.73991 2.84784C4.7313 2.98345 4.12884 3.2406 3.68464 3.68481C3.24044 4.12901 2.98328 4.73147 2.84768 5.74008C2.80193 6.08036 2.7712 6.45617 2.75055 6.87516H17.2494Z" fill="#773DBD"/>
</svg>
