<svg width="20" height="20" viewBox="0 0 20 20" fill="none" xmlns="http://www.w3.org/2000/svg">
<path d="M5.95754 11.4387H7.08629C7.17865 11.4387 7.26803 11.4216 7.35442 11.3873C7.44067 11.3531 7.52004 11.3004 7.59254 11.2292L11.594 7.21729C11.6857 7.12104 11.755 7.0141 11.8021 6.89646C11.8491 6.77882 11.8725 6.66028 11.8725 6.54083C11.8725 6.42139 11.848 6.30736 11.799 6.19875C11.7498 6.09 11.6811 5.98382 11.5928 5.88021L10.8302 5.08854C10.7351 4.99715 10.6289 4.92799 10.5117 4.88104C10.3946 4.83396 10.2748 4.81042 10.1523 4.81042C10.0316 4.81042 9.9124 4.83396 9.79463 4.88104C9.67699 4.92799 9.57004 4.99736 9.47379 5.08917L5.454 9.09062C5.38261 9.16312 5.32983 9.2425 5.29567 9.32875C5.2615 9.415 5.24442 9.50437 5.24442 9.59688V10.7256C5.24442 10.9248 5.31345 11.0934 5.4515 11.2315C5.5897 11.3697 5.75838 11.4387 5.95754 11.4387ZM6.19796 10.4852V9.69354L8.67629 7.22146L9.07067 7.6125L9.45358 8.01479L6.98963 10.4852H6.19796ZM9.07067 7.6125L9.45358 8.01479L8.67629 7.22146L9.07067 7.6125ZM9.84629 11.4387H14.1705C14.3325 11.4387 14.4706 11.3817 14.5846 11.2677C14.6987 11.1535 14.7557 11.0162 14.7557 10.8558C14.7557 10.6953 14.6985 10.558 14.5842 10.444C14.47 10.3299 14.3335 10.2729 14.1746 10.2729H11.0121L9.84629 11.4387ZM5.09775 14.4315L3.46483 16.066C3.23886 16.292 2.98018 16.3447 2.68879 16.2242C2.3974 16.1038 2.25171 15.8844 2.25171 15.566V3.65521C2.25171 3.26118 2.38997 2.9259 2.6665 2.64937C2.94317 2.37271 3.27838 2.23438 3.67213 2.23438H16.328C16.7217 2.23438 17.0569 2.37271 17.3336 2.64937C17.6101 2.9259 17.7484 3.26111 17.7484 3.655V13.0108C17.7484 13.4047 17.6101 13.7399 17.3336 14.0165C17.0569 14.2931 16.7216 14.4315 16.3278 14.4315H5.09775ZM4.6115 13.2656H16.3261C16.3903 13.2656 16.4491 13.2389 16.5025 13.1854C16.5559 13.1321 16.5825 13.0733 16.5825 13.0092V3.65667C16.5825 3.5925 16.5559 3.53375 16.5025 3.48042C16.4491 3.42694 16.3903 3.40021 16.3261 3.40021H3.674C3.60983 3.40021 3.55101 3.42694 3.49754 3.48042C3.44421 3.53375 3.41754 3.5925 3.41754 3.65667V14.4531L4.6115 13.2656Z" fill="#773DBD"/>
</svg>
