<svg width="30" height="30" viewBox="0 0 30 30" fill="none" xmlns="http://www.w3.org/2000/svg">
<rect x="0.25" y="0.25" width="28.7432" height="28.7432" rx="2.75" fill="white"/>
<rect x="0.25" y="0.25" width="28.7432" height="28.7432" rx="2.75" stroke="#EAECF0" stroke-width="0.5"/>
<path d="M20.6216 10.0925L18.1502 7.62109L15.6788 10.0925L16.6216 11.0353L17.4835 10.1734V13.8972H18.8169V10.1734L19.6788 11.0353L20.6216 10.0925Z" fill="#666666"/>
<path d="M8.6215 8.28809C8.25331 8.28809 7.95483 8.58656 7.95483 8.95475V20.9548C7.95483 21.3229 8.25331 21.6214 8.6215 21.6214H20.6215C20.9897 21.6214 21.2882 21.3229 21.2882 20.9548V13.6214H19.9548V17.2912C19.532 17.1785 19.1023 17.1211 18.6694 17.1215C17.9591 17.1187 17.2608 17.2695 16.5876 17.5608C17.2208 18.3759 17.6998 19.2984 17.994 20.2881H16.9433C16.471 18.9128 15.5845 17.6926 14.3871 16.7799C12.9429 15.6791 11.1376 15.0946 9.28817 15.1224V9.62142H14.6215V8.28809H8.6215Z" fill="#666666"/>
</svg>
