<svg width="13" height="13" viewBox="0 0 13 13" fill="none" xmlns="http://www.w3.org/2000/svg">
<path d="M10.5918 11.4836L0.756151 1.65945C0.632095 1.53722 0.569839 1.38857 0.569382 1.21349C0.56877 1.0384 0.634846 0.885932 0.76761 0.75607C0.89747 0.626209 1.04536 0.561279 1.21128 0.561279C1.37735 0.561279 1.52676 0.626209 1.65953 0.75607L11.4908 10.5802L11.4908 4.7894C11.4908 4.61157 11.5536 4.46063 11.6794 4.33657C11.805 4.21236 11.9567 4.15026 12.1345 4.15026C12.3094 4.15026 12.4596 4.21236 12.585 4.33657C12.7105 4.46063 12.7732 4.61157 12.7732 4.7894L12.7732 11.9816C12.7732 12.1993 12.6969 12.3844 12.5443 12.5371C12.3916 12.6897 12.2079 12.766 11.9931 12.766L4.80094 12.766C4.62311 12.766 4.4714 12.7032 4.34582 12.5776C4.22023 12.4519 4.15744 12.3001 4.15744 12.1223C4.15744 11.9444 4.22023 11.7936 4.34582 11.6697C4.4714 11.5456 4.62311 11.4836 4.80094 11.4836L10.5918 11.4836Z" fill="#444444"/>
</svg>
