<svg width="32" height="32" viewBox="0 0 32 32" fill="none" xmlns="http://www.w3.org/2000/svg">
<rect x="0.25" y="0.25" width="30.7432" height="30.7432" rx="2.75" fill="white"/>
<rect x="0.25" y="0.25" width="30.7432" height="30.7432" rx="2.75" stroke="#EAECF0" stroke-width="0.5"/>
<path d="M23.1267 12.8091C22.5679 13.3094 22.5682 13.3097 22.5682 13.3097L22.5631 13.3041L22.5393 13.2784C22.5173 13.2548 22.483 13.2185 22.4371 13.1713C22.3452 13.077 22.207 12.9396 22.0276 12.7734C21.668 12.4402 21.1467 11.9953 20.5037 11.5512C19.2035 10.6531 17.4794 9.80908 15.6267 9.80908C13.7739 9.80908 12.0498 10.6531 10.7496 11.5512C10.1066 11.9953 9.58532 12.4402 9.22572 12.7734C9.04628 12.9396 8.90811 13.077 8.81621 13.1713C8.77028 13.2185 8.73599 13.2548 8.71396 13.2784L8.69022 13.3041L8.68513 13.3097C8.68513 13.3097 8.68539 13.3094 8.12665 12.8091C7.56791 12.3088 7.56867 12.3079 7.56867 12.3079L7.56973 12.3067L7.57279 12.3034L7.5826 12.2926C7.59077 12.2836 7.60219 12.2712 7.61679 12.2555C7.64597 12.2242 7.68786 12.18 7.74185 12.1246C7.84976 12.0138 8.00628 11.8583 8.20636 11.6729C8.6058 11.3029 9.18284 10.8104 9.8971 10.317C11.3113 9.34011 13.3373 8.30908 15.6267 8.30908C17.916 8.30908 19.942 9.34011 21.3562 10.317C22.0705 10.8104 22.6475 11.3029 23.0469 11.6729C23.247 11.8583 23.4035 12.0138 23.5115 12.1246C23.5654 12.18 23.6073 12.2242 23.6365 12.2555C23.6511 12.2712 23.6625 12.2836 23.6707 12.2926L23.6805 12.3034L23.6836 12.3067L23.6851 12.3084C23.6851 12.3084 23.6854 12.3088 23.1267 12.8091Z" fill="#773DBD"/>
<path d="M15.6255 18.6216C14.7971 18.6216 14.1255 17.95 14.1255 17.1216C14.1255 16.2932 14.7971 15.6216 15.6255 15.6216C16.4539 15.6216 17.1255 16.2932 17.1255 17.1216C17.1255 17.95 16.4539 18.6216 15.6255 18.6216Z" fill="#773DBD"/>
<path fill-rule="evenodd" clip-rule="evenodd" d="M10.5911 13.4468C11.9074 12.296 13.6176 11.3091 15.6211 11.3091C17.6245 11.3091 19.3348 12.296 20.6511 13.4468C21.9705 14.6002 22.945 15.9617 23.4894 16.8166L23.6836 17.1216L23.4894 17.4266C22.945 18.2814 21.9705 19.6429 20.6511 20.7963C19.3348 21.9471 17.6245 22.9341 15.6211 22.9341C13.6176 22.9341 11.9074 21.9471 10.5911 20.7963C9.27173 19.6429 8.29723 18.2814 7.75282 17.4266L7.55859 17.1216L7.75282 16.8166C8.29723 15.9617 9.27173 14.6002 10.5911 13.4468ZM12.6255 17.1216C12.6255 18.7784 13.9686 20.1216 15.6255 20.1216C17.2823 20.1216 18.6255 18.7784 18.6255 17.1216C18.6255 15.4647 17.2823 14.1216 15.6255 14.1216C13.9686 14.1216 12.6255 15.4647 12.6255 17.1216Z" fill="#773DBD"/>
</svg>
