<svg width="20" height="20" viewBox="0 0 20 20" fill="none" xmlns="http://www.w3.org/2000/svg">
<path d="M17.8679 7.08382L17.867 7.08282L17.861 7.07618C17.8552 7.06984 17.8459 7.05972 17.8332 7.04606C17.8077 7.01874 17.7685 6.97731 17.7164 6.92379C17.6121 6.8167 17.456 6.66147 17.2537 6.47413C16.8486 6.09888 16.2617 5.5979 15.5374 5.09758C14.0768 4.08872 12.1193 3.125 10 3.125C7.88072 3.125 5.9232 4.08872 4.46267 5.09758C3.73835 5.5979 3.15138 6.09888 2.74628 6.47413C2.54404 6.66147 2.38797 6.8167 2.28363 6.92379C2.23148 6.97731 2.19233 7.01874 2.16686 7.04606C2.15413 7.05972 2.14482 7.06984 2.13903 7.07618L2.13299 7.08282L2.13229 7.08359C1.90198 7.34038 1.50677 7.36243 1.24975 7.13228C0.9926 6.90202 0.9708 6.50689 1.20106 6.24974C1.201 6.24983 1.20172 6.25049 1.25905 6.30178C1.31717 6.35378 1.43345 6.45783 1.66604 6.6661L1.20106 6.24974L1.20275 6.24786L1.20581 6.24447L1.21601 6.23324C1.22462 6.22382 1.23683 6.21055 1.25254 6.19369C1.28397 6.15997 1.32947 6.11188 1.38833 6.05147C1.50601 5.93069 1.67737 5.7604 1.89682 5.55712C2.3351 5.15112 2.96852 4.61044 3.75224 4.06909C5.30778 2.99461 7.51693 1.875 10 1.875C12.4831 1.875 14.6922 2.99461 16.2478 4.06909C17.0315 4.61044 17.6649 5.15112 18.1032 5.55712C18.3227 5.7604 18.494 5.93069 18.6117 6.05147C18.6706 6.11188 18.716 6.15997 18.7475 6.19369C18.7632 6.21055 18.7754 6.22382 18.784 6.23324L18.7942 6.24447L18.7973 6.24786L18.7983 6.24899C18.7984 6.24916 18.799 6.24974 18.3333 6.66667L18.799 6.24974C19.0292 6.50689 19.0074 6.90202 18.7503 7.13228C18.4932 7.36247 18.0982 7.34076 17.8679 7.08382Z" fill="#773DBD"/>
<path fill-rule="evenodd" clip-rule="evenodd" d="M10 14.7917C8.27413 14.7917 6.87502 13.3926 6.87502 11.6667C6.87502 9.94078 8.27413 8.54167 10 8.54167C11.7259 8.54167 13.125 9.94078 13.125 11.6667C13.125 13.3926 11.7259 14.7917 10 14.7917ZM8.12502 11.6667C8.12502 12.7022 8.96448 13.5417 10 13.5417C11.0356 13.5417 11.875 12.7022 11.875 11.6667C11.875 10.6311 11.0356 9.79167 10 9.79167C8.96448 9.79167 8.12502 10.6311 8.12502 11.6667Z" fill="#773DBD"/>
<path fill-rule="evenodd" clip-rule="evenodd" d="M4.60027 7.26082C6.02164 6.15117 7.85788 5.20833 10 5.20833C12.1422 5.20833 13.9784 6.15117 15.3998 7.26082C16.8224 8.37146 17.874 9.68312 18.4622 10.5079L18.5065 10.5698C18.7175 10.8632 18.9584 11.1982 18.9584 11.6667C18.9584 12.1352 18.7175 12.4702 18.5065 12.7636L18.4622 12.8254C17.874 13.6502 16.8224 14.9619 15.3998 16.0725C13.9784 17.1822 12.1422 18.125 10 18.125C7.85788 18.125 6.02164 17.1822 4.60027 16.0725C3.17763 14.9619 2.12607 13.6502 1.53786 12.8254L1.49351 12.7636C1.28255 12.4702 1.04168 12.1352 1.04168 11.6667C1.04168 11.1982 1.28255 10.8632 1.49351 10.5698L1.53786 10.5079C2.12607 9.68312 3.17762 8.37146 4.60027 7.26082ZM5.36948 8.24612C4.077 9.25515 3.10574 10.4622 2.55558 11.2337C2.41947 11.4246 2.3547 11.5178 2.31609 11.5919C2.29154 11.6391 2.29161 11.652 2.29168 11.6647L2.29168 11.6667L2.29168 11.6687C2.29161 11.6813 2.29154 11.6942 2.31609 11.7414C2.3547 11.8156 2.41947 11.9088 2.55558 12.0996C3.10574 12.8711 4.077 14.0782 5.36948 15.0872C6.66325 16.0972 8.23447 16.875 10 16.875C11.7656 16.875 13.3368 16.0972 14.6306 15.0872C15.923 14.0782 16.8943 12.8711 17.4445 12.0996C17.5806 11.9088 17.6453 11.8156 17.6839 11.7414C17.7085 11.6942 17.7084 11.6813 17.7084 11.6687L17.7084 11.6667L17.7084 11.6647C17.7084 11.652 17.7085 11.6391 17.6839 11.5919C17.6453 11.5178 17.5806 11.4246 17.4445 11.2337C16.8943 10.4622 15.923 9.25515 14.6306 8.24612C13.3368 7.23609 11.7656 6.45833 10 6.45833C8.23447 6.45833 6.66325 7.23609 5.36948 8.24612Z" fill="#773DBD"/>
</svg>
