<svg width="40" height="41" viewBox="0 0 40 41" fill="none" xmlns="http://www.w3.org/2000/svg">
<path fill-rule="evenodd" clip-rule="evenodd" d="M21.6664 2.58496C26.9347 2.58496 29.8384 2.58496 32.05 4.14329C32.685 4.58996 33.25 5.12329 33.7333 5.72829C35.4183 7.84662 35.4183 10.5583 35.4183 15.9566V20.1983C35.4183 25.2899 35.4183 27.845 34.5484 30.0383C33.1584 33.5466 30.2317 36.3083 26.5184 37.6116C24.5163 38.3129 22.2081 38.4033 18.0889 38.4149C18.0683 38.4167 18.0478 38.4183 18.0272 38.4199C18.0031 38.4218 17.9797 38.4199 17.9568 38.4152C17.3859 38.4166 16.7805 38.4166 16.1368 38.4166C13.0003 38.4166 11.425 38.4166 10.0283 37.9266C7.76 37.13 5.97 35.44 5.11834 33.2916C4.58334 31.9433 4.58334 30.4483 4.58334 27.4717V19.9507C4.58334 19.2607 5.14334 18.7007 5.83334 18.7007C6.52334 18.7007 7.08334 19.2607 7.08334 19.9507V27.4716C7.08334 30.1314 7.08334 31.4667 7.44166 32.3716C8.02666 33.8466 9.2717 35.0133 10.855 35.57C11.85 35.92 13.2817 35.92 16.1349 35.92C16.7723 35.92 17.3701 35.92 17.9318 35.9187C20.1033 35.7013 21.805 33.8628 21.805 31.6352C21.805 31.3686 21.7917 31.0815 21.7777 30.7778L21.7745 30.7103C21.733 29.8027 21.6859 28.775 21.9417 27.8152C22.3133 26.4285 23.405 25.3368 24.7917 24.9652C25.751 24.7096 26.7764 24.7564 27.6853 24.798L27.7519 24.8011C28.0564 24.8152 28.3444 24.8285 28.6117 24.8285C30.9444 24.8285 32.8504 22.9624 32.915 20.645C32.915 20.4991 32.915 20.3509 32.915 20.2003V15.9583C32.915 11.14 32.915 8.72162 31.7733 7.28662C31.44 6.86829 31.0483 6.49829 30.6067 6.18996C29.1083 5.13496 26.6447 5.0883 21.663 5.0883C20.973 5.0883 20.413 4.5283 20.413 3.8383C20.413 3.1483 20.973 2.5883 21.663 2.5883L21.6664 2.58496ZM32.8239 25.8642C31.6644 26.7807 30.2007 27.3285 28.6117 27.3285C28.2937 27.3285 27.9685 27.3141 27.6508 27.3C27.6272 27.2989 27.6036 27.2979 27.58 27.2968L27.5535 27.2956C26.7968 27.261 26.0182 27.2253 25.4383 27.3818C24.9133 27.5218 24.4983 27.9368 24.3583 28.4618C24.202 29.0488 24.2382 29.8364 24.2731 30.598L24.2733 30.6035C24.29 30.9435 24.305 31.2935 24.305 31.6352C24.305 33.1951 23.7771 34.6343 22.8906 35.7835C24.021 35.6886 24.9103 35.5278 25.6884 35.255C28.7167 34.1916 31.0984 31.955 32.2217 29.12C32.5626 28.2596 32.7359 27.2428 32.8239 25.8642Z" fill="#1B1B1B"/>
<path d="M9.31557 7.76714C8.99519 8.17503 8.65813 8.60355 8.39636 8.87286C7.91519 9.36791 7.12382 9.37915 6.62877 8.89798C6.13373 8.41681 6.12249 7.62543 6.60366 7.13039C6.7515 6.97829 6.9942 6.67527 7.34952 6.2229L7.42793 6.12303C7.74472 5.71945 8.11634 5.24601 8.49924 4.79414C8.90958 4.30988 9.36887 3.80689 9.82799 3.41586C10.0581 3.2199 10.3174 3.02661 10.5964 2.87732C10.8654 2.73333 11.2362 2.58496 11.6667 2.58496C12.0972 2.58496 12.4679 2.73333 12.737 2.87732C13.016 3.02661 13.2753 3.2199 13.5054 3.41585C13.9645 3.80689 14.4238 4.30988 14.8341 4.79414C15.217 5.246 15.5886 5.71943 15.9054 6.123L15.9838 6.2229C16.3392 6.67527 16.5819 6.97829 16.7297 7.13039C17.2109 7.62543 17.1996 8.41681 16.7046 8.89798C16.2095 9.37915 15.4182 9.36791 14.937 8.87286C14.6752 8.60355 14.3382 8.17503 14.0178 7.76714L13.9433 7.67222C13.6217 7.26267 13.2779 6.82473 12.9268 6.41032L12.9167 6.39841V17.1683C12.9167 17.8586 12.357 18.4183 11.6667 18.4183C10.9763 18.4183 10.4167 17.8586 10.4167 17.1683V6.39841L10.4066 6.41032C10.0555 6.82471 9.71165 7.26264 9.39014 7.67217L9.31557 7.76714Z" fill="#1B1B1B"/>
</svg>
