<svg width="19" height="16" viewBox="0 0 19 16" fill="none" xmlns="http://www.w3.org/2000/svg">
<path d="M3.54625 12.5779C3.26875 12.4254 3.05208 12.2172 2.89625 11.9534C2.74042 11.6894 2.6625 11.3952 2.6625 11.0709V6.83214L0.70675 5.75588C0.556084 5.66972 0.444417 5.56097 0.371751 5.42963C0.298917 5.2983 0.262501 5.15822 0.262501 5.00938C0.262501 4.86038 0.298917 4.7203 0.371751 4.58913C0.444417 4.45797 0.556084 4.34813 0.70675 4.25963L8.192 0.193634C8.31983 0.117801 8.45258 0.0656338 8.59025 0.0371338C8.72775 0.00863379 8.865 -0.00561523 9.002 -0.00561523C9.139 -0.00561523 9.276 0.00946804 9.413 0.0396347C9.54983 0.0698014 9.68358 0.120885 9.81425 0.192885L18.2355 4.76463C18.3727 4.84464 18.481 4.95063 18.5605 5.08263C18.64 5.21463 18.6798 5.35697 18.6798 5.50963V11.2886C18.6798 11.4825 18.6111 11.6479 18.4737 11.7849C18.3364 11.9219 18.1726 11.9904 17.9823 11.9904C17.7882 11.9904 17.6228 11.9219 17.486 11.7849C17.3492 11.6479 17.2808 11.4825 17.2808 11.2886V5.79038L15.3395 6.82988V11.0711C15.3395 11.3953 15.2616 11.6894 15.1058 11.9534C14.9499 12.2172 14.7333 12.4254 14.4558 12.5779L9.82475 15.0941C9.69542 15.1711 9.56142 15.226 9.42275 15.2586C9.28408 15.2913 9.14342 15.3076 9.00075 15.3076C8.85808 15.3076 8.7175 15.2913 8.579 15.2586C8.4405 15.226 8.30658 15.1711 8.17725 15.0941L3.54625 12.5779ZM8.8855 8.62213C8.9305 8.6478 8.97058 8.66063 9.00575 8.66063C9.04108 8.66063 9.08117 8.6478 9.126 8.62213L15.7605 5.00788L9.126 1.41563C9.08117 1.39313 9.04108 1.38188 9.00575 1.38188C8.97058 1.38188 8.9305 1.39313 8.8855 1.41563L2.254 5.00788L8.8855 8.62213ZM8.876 13.8771C8.92083 13.9026 8.9625 13.9154 9.001 13.9154C9.0395 13.9154 9.08117 13.9026 9.126 13.8771L13.7963 11.3581C13.8474 11.3261 13.8842 11.2893 13.9067 11.2476C13.9292 11.206 13.9405 11.1531 13.9405 11.0889V7.57888L9.83175 9.83463C9.69975 9.90847 9.56358 9.96172 9.42325 9.99438C9.28308 10.0271 9.14133 10.0434 8.998 10.0434C8.8545 10.0434 8.71367 10.0271 8.5755 9.99438C8.43734 9.96172 8.30383 9.90847 8.175 9.83463L4.0615 7.57888V11.0889C4.0615 11.1402 4.07275 11.1899 4.09525 11.2379C4.11775 11.2861 4.15458 11.3261 4.20575 11.3581L8.876 13.8771Z" fill="#666666"/>
</svg>
