<svg width="20" height="20" viewBox="0 0 20 20" fill="none" xmlns="http://www.w3.org/2000/svg">
<path d="M10 6.4585C9.4247 6.4585 8.95833 6.92487 8.95833 7.50016C8.95833 7.84534 8.67851 8.12516 8.33333 8.12516C7.98815 8.12516 7.70833 7.84534 7.70833 7.50016C7.70833 6.23451 8.73434 5.2085 10 5.2085C11.2656 5.2085 12.2917 6.23451 12.2917 7.50016C12.2917 7.95544 12.1583 8.38147 11.9282 8.73902C11.7841 8.96297 11.6156 9.17678 11.4602 9.36986L11.3765 9.47371C11.2476 9.63322 11.1292 9.77973 11.0199 9.92997C10.7502 10.3006 10.625 10.5791 10.625 10.8335V11.2502C10.625 11.5953 10.3452 11.8752 10 11.8752C9.65482 11.8752 9.375 11.5953 9.375 11.2502V10.8335C9.375 10.1674 9.70201 9.61664 10.0091 9.19454C10.1389 9.0162 10.2811 8.8403 10.4104 8.68036L10.4864 8.58624C10.6407 8.39444 10.7721 8.2257 10.877 8.06262C10.9812 7.90073 11.0417 7.70847 11.0417 7.50016C11.0417 6.92487 10.5753 6.4585 10 6.4585Z" fill="#773DBD"/>
<path d="M9.99348 13.3335C9.53325 13.3335 9.16015 13.7066 9.16015 14.1668C9.16015 14.6271 9.53325 15.0002 9.99348 15.0002H10.001C10.4612 15.0002 10.8343 14.6271 10.8343 14.1668C10.8343 13.7066 10.4612 13.3335 10.001 13.3335H9.99348Z" fill="#773DBD"/>
<path fill-rule="evenodd" clip-rule="evenodd" d="M9.95235 1.4585H10.0476C11.8732 1.45849 13.3071 1.45848 14.4266 1.60899C15.5739 1.76323 16.4841 2.08576 17.1992 2.80092C17.9144 3.51609 18.2369 4.4263 18.3912 5.57352C18.5417 6.69303 18.5417 8.12692 18.5417 9.9525V10.0478C18.5417 11.8734 18.5417 13.3073 18.3912 14.4268C18.2369 15.574 17.9144 16.4842 17.1992 17.1994C16.4841 17.9146 15.5739 18.2371 14.4266 18.3913C13.3071 18.5418 11.8732 18.5418 10.0477 18.5418H9.95236C8.12678 18.5418 6.69286 18.5418 5.57335 18.3913C4.42613 18.2371 3.51592 17.9146 2.80076 17.1994C2.08559 16.4842 1.76306 15.574 1.60882 14.4268C1.45831 13.3073 1.45832 11.8734 1.45833 10.0478V9.95252C1.45832 8.12693 1.45831 6.69303 1.60882 5.57352C1.76306 4.4263 2.08559 3.51609 2.80076 2.80092C3.51592 2.08576 4.42613 1.76323 5.57335 1.60899C6.69286 1.45848 8.12676 1.45849 9.95235 1.4585ZM5.73991 2.84784C4.7313 2.98345 4.12884 3.2406 3.68464 3.68481C3.24044 4.12901 2.98328 4.73147 2.84768 5.74008C2.70966 6.76666 2.70833 8.11652 2.70833 10.0002C2.70833 11.8838 2.70966 13.2337 2.84768 14.2603C2.98328 15.2689 3.24044 15.8713 3.68464 16.3155C4.12884 16.7597 4.7313 17.0169 5.73991 17.1525C6.76649 17.2905 8.11635 17.2918 10 17.2918C11.8836 17.2918 13.2335 17.2905 14.2601 17.1525C15.2687 17.0169 15.8711 16.7597 16.3154 16.3155C16.7596 15.8713 17.0167 15.2689 17.1523 14.2603C17.2903 13.2337 17.2917 11.8838 17.2917 10.0002C17.2917 8.11652 17.2903 6.76666 17.1523 5.74008C17.0167 4.73147 16.7596 4.12901 16.3154 3.68481C15.8711 3.2406 15.2687 2.98345 14.2601 2.84784C13.2335 2.70982 11.8836 2.7085 10 2.7085C8.11635 2.7085 6.76649 2.70982 5.73991 2.84784Z" fill="#773DBD"/>
</svg>
