<svg width="16" height="17" viewBox="0 0 16 17" fill="none" xmlns="http://www.w3.org/2000/svg">
<path d="M2.08075 14.9193H5.34625V9.8605C5.34625 9.623 5.4295 9.421 5.596 9.2545C5.7625 9.088 5.9645 9.00475 6.202 9.00475H9.80275C10.0366 9.00475 10.2369 9.088 10.4037 9.2545C10.5704 9.421 10.6537 9.623 10.6537 9.8605V14.9193H13.9192V6.1725C13.9192 6.12117 13.908 6.07467 13.8855 6.033C13.8632 5.99133 13.8327 5.9545 13.7942 5.9225L8.18275 1.70575C8.13142 1.66092 8.0705 1.6385 8 1.6385C7.9295 1.6385 7.86858 1.66092 7.81725 1.70575L2.20575 5.9225C2.16725 5.9545 2.13683 5.99133 2.1145 6.033C2.092 6.07467 2.08075 6.12117 2.08075 6.1725V14.9193ZM0.681749 14.9193V6.174C0.681749 5.90067 0.740416 5.64467 0.857749 5.406C0.974916 5.16733 1.14383 4.96825 1.3645 4.80875L6.976 0.580751C7.27967 0.353251 7.62083 0.239502 7.9995 0.239502C8.378 0.239502 8.7195 0.353251 9.024 0.580751L14.6355 4.80875C14.8562 4.96825 15.0251 5.16733 15.1422 5.406C15.2596 5.64467 15.3182 5.90067 15.3182 6.174V14.9193C15.3182 15.3004 15.1804 15.6289 14.9047 15.9048C14.6289 16.1804 14.3004 16.3183 13.9192 16.3183H10.1105C9.873 16.3183 9.671 16.235 9.5045 16.0685C9.338 15.902 9.25475 15.7 9.25475 15.4625V10.4038H6.74525V15.4625C6.74525 15.7 6.66192 15.902 6.49525 16.0685C6.32858 16.235 6.12842 16.3183 5.89475 16.3183H2.07875C1.69908 16.3183 1.37133 16.1804 1.0955 15.9048C0.819666 15.6289 0.681749 15.3004 0.681749 14.9193Z" fill="#773DBD"/>
</svg>
