<svg width="16" height="16" viewBox="0 0 16 16" fill="none" xmlns="http://www.w3.org/2000/svg">
<path d="M8.00531 11.7075C8.14073 11.7075 8.25851 11.6584 8.35865 11.5602C8.45879 11.462 8.50885 11.3439 8.50885 11.2058V7.51434C8.50885 7.37947 8.4601 7.26281 8.3626 7.16434C8.26497 7.066 8.14927 7.01684 8.01552 7.01684C7.87872 7.01684 7.76024 7.066 7.6601 7.16434C7.55983 7.26281 7.50969 7.37947 7.50969 7.51434V11.2058C7.50969 11.3439 7.55844 11.462 7.65594 11.5602C7.7533 11.6584 7.86976 11.7075 8.00531 11.7075ZM7.99427 5.80767C8.15316 5.80767 8.28663 5.75579 8.39469 5.65204C8.50288 5.54829 8.55698 5.41698 8.55698 5.25809C8.55698 5.09934 8.5051 4.96586 8.40135 4.85767C8.2976 4.74961 8.16635 4.69559 8.0076 4.69559C7.84872 4.69559 7.71524 4.74746 7.60719 4.85121C7.49899 4.95496 7.4449 5.08621 7.4449 5.24496C7.4449 5.40371 7.49677 5.53718 7.60052 5.64538C7.70427 5.75357 7.83552 5.80767 7.99427 5.80767ZM8.00865 15.415C6.98878 15.415 6.02809 15.2218 5.12656 14.8354C4.2249 14.4489 3.43559 13.9169 2.75865 13.2395C2.08184 12.5622 1.55052 11.7739 1.16469 10.8748C0.778854 9.97559 0.585938 9.01475 0.585938 7.99225C0.585938 6.96878 0.779132 6.00975 1.16552 5.11517C1.55205 4.22045 2.08399 3.43461 2.76135 2.75767C3.43872 2.08086 4.22698 1.54954 5.12615 1.16371C6.02531 0.777877 6.98615 0.584961 8.00865 0.584961C9.03212 0.584961 9.99115 0.778156 10.8857 1.16454C11.7805 1.55107 12.5663 2.08302 13.2432 2.76038C13.92 3.43774 14.4514 4.22441 14.8372 5.12038C15.223 6.01635 15.4159 6.97364 15.4159 7.99225C15.4159 9.01211 15.2227 9.97281 14.8364 10.8743C14.4498 11.776 13.9179 12.5653 13.2405 13.2423C12.5632 13.9191 11.7765 14.4504 10.8805 14.8362C9.98455 15.222 9.02726 15.415 8.00865 15.415ZM8.00073 14.4158C9.77698 14.4158 11.2904 13.7907 12.5409 12.5404C13.7915 11.29 14.4168 9.77656 14.4168 8.00017C14.4168 6.22392 13.7916 4.71052 12.5414 3.45996C11.2909 2.20941 9.77753 1.58413 8.00115 1.58413C6.2249 1.58413 4.71149 2.20927 3.46094 3.45954C2.21038 4.70996 1.5851 6.22336 1.5851 7.99975C1.5851 9.776 2.21024 11.2894 3.46052 12.54C4.71094 13.7905 6.22434 14.4158 8.00073 14.4158Z" fill="#5F6368"/>
</svg>
