<svg width="12" height="16" viewBox="0 0 12 16" fill="none" xmlns="http://www.w3.org/2000/svg">
<path opacity="0.4" d="M0.845045 12.5632C0.994965 13.6767 1.91726 14.549 3.03961 14.6006C3.98402 14.644 4.94337 14.6667 5.99984 14.6667C7.0563 14.6667 8.01566 14.644 8.96007 14.6006C10.0824 14.549 11.0047 13.6767 11.1546 12.5632C11.2525 11.8365 11.3332 11.0917 11.3332 10.3333C11.3332 9.57492 11.2525 8.83021 11.1546 8.1035C11.0047 6.99001 10.0824 6.11766 8.96007 6.06606C8.01566 6.02265 7.0563 6 5.99984 6C4.94337 6 3.98402 6.02265 3.03961 6.06606C1.91726 6.11766 0.994964 6.99001 0.845044 8.1035C0.747201 8.83021 0.666504 9.57492 0.666504 10.3333C0.666504 11.0917 0.747201 11.8365 0.845045 12.5632Z" fill="#666666"/>
<path d="M5.99723 9.66683C5.62904 9.66683 5.33057 9.96531 5.33057 10.3335C5.33057 10.7017 5.62904 11.0002 5.99723 11.0002H6.00322C6.37141 11.0002 6.66989 10.7017 6.66989 10.3335C6.66989 9.96531 6.37141 9.66683 6.00322 9.66683H5.99723Z" fill="#666666"/>
<path fill-rule="evenodd" clip-rule="evenodd" d="M2.49984 4.3335V5.63955C1.37263 5.90873 0.5072 6.86579 0.349516 8.03695C0.250746 8.77054 0.166504 9.54139 0.166504 10.3335C0.166504 11.1256 0.250746 11.8965 0.349516 12.63C0.530563 13.9747 1.64461 15.0372 3.01665 15.1002C3.96893 15.144 4.93595 15.1668 5.99984 15.1668C7.06373 15.1668 8.03074 15.144 8.98303 15.1002C10.3551 15.0372 11.4691 13.9747 11.6502 12.63C11.7489 11.8965 11.8332 11.1256 11.8332 10.3335C11.8332 9.54139 11.7489 8.77054 11.6502 8.03695C11.4925 6.86579 10.627 5.90873 9.49984 5.63955V4.3335C9.49984 2.4005 7.93283 0.833496 5.99984 0.833496C4.06684 0.833496 2.49984 2.4005 2.49984 4.3335ZM5.99984 1.8335C4.61913 1.8335 3.49984 2.95278 3.49984 4.3335V5.54641C4.29768 5.51593 5.11527 5.50016 5.99984 5.50016C6.8844 5.50016 7.702 5.51593 8.49984 5.54641V4.3335C8.49984 2.95278 7.38055 1.8335 5.99984 1.8335ZM5.99984 6.50016C4.9508 6.50016 3.99911 6.52264 3.06257 6.5657C2.1899 6.60582 1.45937 7.28808 1.34057 8.17038C1.24366 8.89021 1.1665 9.60877 1.1665 10.3335C1.1665 11.0582 1.24366 11.7768 1.34057 12.4966C1.45937 13.3789 2.18991 14.0612 3.06257 14.1013C3.99911 14.1443 4.9508 14.1668 5.99984 14.1668C7.04887 14.1668 8.00057 14.1443 8.9371 14.1013C9.80977 14.0612 10.5403 13.3789 10.6591 12.4966C10.756 11.7768 10.8332 11.0582 10.8332 10.3335C10.8332 9.60877 10.756 8.89021 10.6591 8.17038C10.5403 7.28808 9.80977 6.60582 8.9371 6.5657C8.00057 6.52264 7.04888 6.50016 5.99984 6.50016Z" fill="#666666"/>
</svg>
