<svg width="20" height="20" viewBox="0 0 20 20" fill="none" xmlns="http://www.w3.org/2000/svg">
<path fill-rule="evenodd" clip-rule="evenodd" d="M10 1.0415C10.3452 1.0415 10.625 1.32133 10.625 1.6665V3.56054C12.7771 3.695 14.2554 4.53578 15.1832 5.89806C16.1655 7.34021 16.4583 9.26621 16.4583 11.2498C16.4583 13.2335 16.1655 15.1595 15.1832 16.6016C14.1682 18.092 12.4942 18.9582 9.99998 18.9582C7.50575 18.9582 5.83178 18.092 4.81674 16.6016C3.83455 15.1595 3.54167 13.2335 3.54167 11.2498C3.54167 9.26621 3.83455 7.3402 4.81674 5.89806C5.74455 4.53577 7.2229 3.69499 9.37501 3.56054V1.6665C9.37501 1.32133 9.65483 1.0415 10 1.0415ZM9.37501 6.06299V4.8131C7.58377 4.94138 6.51125 5.63064 5.84989 6.6017C5.08211 7.72902 4.79167 9.34468 4.79167 11.2498C4.79167 13.155 5.08211 14.7707 5.84989 15.898C6.58483 16.9771 7.82752 17.7082 9.99998 17.7082C12.1724 17.7082 13.4151 16.9771 14.1501 15.898C14.9179 14.7706 15.2083 13.155 15.2083 11.2498C15.2083 9.3447 14.9179 7.72904 14.1501 6.60171C13.4887 5.63065 12.4162 4.9414 10.625 4.81311V6.06299C10.7372 6.07728 10.8553 6.10302 10.9748 6.15251C11.3321 6.30053 11.616 6.58443 11.764 6.94176C11.8325 7.10718 11.8555 7.26996 11.8656 7.418C11.875 7.55577 11.875 7.71981 11.875 7.89837V8.76797C11.875 8.94654 11.875 9.11058 11.8656 9.24835C11.8555 9.39638 11.8325 9.55917 11.764 9.72459C11.616 10.0819 11.3321 10.3658 10.9748 10.5138C10.8093 10.5823 10.6466 10.6054 10.4985 10.6155C10.3607 10.6249 10.1967 10.6249 10.0181 10.6248H9.98187C9.80331 10.6249 9.63927 10.6249 9.5015 10.6155C9.35346 10.6054 9.19068 10.5823 9.02526 10.5138C8.66793 10.3658 8.38403 10.0819 8.23602 9.72459C8.1675 9.55917 8.14449 9.39638 8.13439 9.24835C8.12499 9.11057 8.125 8.94653 8.12501 8.76797V7.89838C8.125 7.71981 8.12499 7.55577 8.13439 7.418C8.14449 7.26996 8.1675 7.10718 8.23602 6.94176C8.38403 6.58443 8.66793 6.30053 9.02526 6.15251C9.14474 6.10303 9.26284 6.07728 9.37501 6.06299ZM9.39193 7.4176C9.41299 7.36857 9.45207 7.32949 9.5011 7.30843C9.50723 7.30687 9.5309 7.30178 9.58659 7.29799C9.67659 7.29184 9.79731 7.29151 10 7.29151C10.2027 7.29151 10.3234 7.29184 10.4134 7.29799C10.4691 7.30178 10.4928 7.30687 10.4989 7.30843C10.5479 7.32949 10.587 7.36857 10.6081 7.4176C10.6096 7.42373 10.6147 7.44739 10.6185 7.50309C10.6247 7.59309 10.625 7.71381 10.625 7.91651V8.74984C10.625 8.95253 10.6247 9.07325 10.6185 9.16326C10.6147 9.21895 10.6096 9.24262 10.6081 9.24875C10.587 9.29778 10.5479 9.33686 10.4989 9.35792C10.4928 9.35948 10.4691 9.36456 10.4134 9.36836C10.3234 9.3745 10.2027 9.37484 10 9.37484C9.79731 9.37484 9.67659 9.3745 9.58659 9.36836C9.5309 9.36456 9.50723 9.35948 9.5011 9.35792C9.45207 9.33686 9.41299 9.29778 9.39193 9.24875C9.39037 9.24262 9.38529 9.21895 9.38149 9.16326C9.37535 9.07325 9.37501 8.95253 9.37501 8.74984V7.91651C9.37501 7.71381 9.37535 7.59309 9.38149 7.50309C9.38529 7.4474 9.39037 7.42373 9.39193 7.4176Z" fill="#773DBD"/>
</svg>
