<svg width="12" height="14" viewBox="0 0 12 14" fill="none" xmlns="http://www.w3.org/2000/svg">
<path d="M10.4844 4.06221L7.24898 8.68519L7.65709 10.9543C7.66633 11.0128 7.66687 11.0748 7.65871 11.1405C7.65048 11.2063 7.62466 11.2702 7.58126 11.3322L7.41773 11.5659C7.34024 11.6766 7.23132 11.7451 7.09097 11.7715C6.95051 11.7978 6.82413 11.7716 6.71182 11.693L4.03668 9.82081L1.66907 13.2038C1.58999 13.3168 1.48236 13.3855 1.34617 13.4101C1.2101 13.4347 1.08603 13.4078 0.973943 13.3293C0.86186 13.2509 0.793462 13.1431 0.768748 13.006C0.744147 12.8689 0.771386 12.7438 0.850466 12.6309L3.21808 9.2479L0.542953 7.37567C0.428026 7.29523 0.358978 7.18461 0.335811 7.04379C0.312644 6.90298 0.339804 6.77721 0.417291 6.66649L0.580826 6.43283C0.624786 6.37002 0.675938 6.32394 0.734283 6.29459C0.792628 6.26524 0.852266 6.24518 0.913195 6.23442L3.18158 5.83855L6.41704 1.21557L6.0086 0.929714C5.8956 0.850634 5.8268 0.743059 5.80217 0.606989C5.77763 0.470805 5.80418 0.347241 5.88183 0.236297C5.95947 0.125352 6.06727 0.0569531 6.20522 0.0311008C6.34309 0.00536229 6.46852 0.0320336 6.58151 0.111114L11.469 3.53174C11.5795 3.60906 11.6471 3.71596 11.6718 3.85241C11.6964 3.98879 11.6703 4.11177 11.5936 4.22135C11.5152 4.33343 11.407 4.4023 11.269 4.42796C11.1309 4.45354 11.0066 4.42766 10.8961 4.35034L10.4844 4.06221ZM1.85697 7.07574L6.5402 10.3534L6.19159 8.45347L9.66584 3.4893L7.23565 1.78848L3.76222 6.75146L1.85697 7.07574Z" fill="#773DBD"/>
</svg>
