<svg width="20" height="20" viewBox="0 0 20 20" fill="none" xmlns="http://www.w3.org/2000/svg">
<path d="M6.04167 8.33317C6.04167 7.98799 6.32149 7.70817 6.66667 7.70817H13.3333C13.6785 7.70817 13.9583 7.98799 13.9583 8.33317C13.9583 8.67835 13.6785 8.95817 13.3333 8.95817H6.66667C6.32149 8.95817 6.04167 8.67835 6.04167 8.33317Z" fill="#773DBD"/>
<path d="M6.04167 12.4998C6.04167 12.1547 6.32149 11.8748 6.66667 11.8748H10C10.3452 11.8748 10.625 12.1547 10.625 12.4998C10.625 12.845 10.3452 13.1248 10 13.1248H6.66667C6.32149 13.1248 6.04167 12.845 6.04167 12.4998Z" fill="#773DBD"/>
<path fill-rule="evenodd" clip-rule="evenodd" d="M6.45834 1.6665C6.45834 1.32133 6.17852 1.0415 5.83334 1.0415C5.48816 1.0415 5.20834 1.32133 5.20834 1.6665V1.95711C5.1684 1.96179 5.12902 1.96672 5.09021 1.97194C4.34012 2.07279 3.70856 2.28853 3.20696 2.79013C2.70537 3.29173 2.48962 3.92329 2.38878 4.67338C2.29164 5.39585 2.29166 6.31444 2.29167 7.4541V13.3789C2.29166 14.5186 2.29164 15.4372 2.38878 16.1596C2.48962 16.9097 2.70537 17.5413 3.20696 18.0429C3.70856 18.5445 4.34012 18.7602 5.09021 18.8611C5.81269 18.9582 6.73129 18.9582 7.87095 18.9582H8.79782C9.49743 18.9582 10.142 18.9582 10.7356 18.9506C10.7675 18.9556 10.8001 18.9582 10.8333 18.9582C10.9252 18.9582 11.0161 18.9536 11.1056 18.9447C11.9857 18.9275 12.7473 18.8885 13.4053 18.8C14.6092 18.6382 15.5592 18.3004 16.3049 17.5547C17.0506 16.8091 17.3884 15.859 17.5502 14.6551C17.6387 13.9971 17.6777 13.2355 17.6948 12.3554C17.7038 12.2659 17.7083 12.1751 17.7083 12.0832C17.7083 12.0499 17.7057 12.0173 17.7007 11.9854C17.7083 11.3918 17.7083 10.7473 17.7083 10.0476V7.45411C17.7084 6.31445 17.7084 5.39585 17.6112 4.67338C17.5104 3.92329 17.2946 3.29173 16.793 2.79013C16.2915 2.28853 15.6599 2.07279 14.9098 1.97194C14.871 1.96672 14.8316 1.96179 14.7917 1.95711V1.6665C14.7917 1.32133 14.5118 1.0415 14.1667 1.0415C13.8215 1.0415 13.5417 1.32133 13.5417 1.6665V1.8838C13.1145 1.87482 12.6444 1.87483 12.1291 1.87484H10.625V1.6665C10.625 1.32133 10.3452 1.0415 10 1.0415C9.65483 1.0415 9.37501 1.32133 9.37501 1.6665V1.87484H7.87094C7.35565 1.87483 6.88555 1.87482 6.45834 1.8838V1.6665ZM16.4461 12.2732C16.4581 11.6079 16.4583 10.8559 16.4583 9.99984V7.49984C16.4583 6.30366 16.457 5.4694 16.3724 4.83994C16.2902 4.22846 16.1398 3.90465 15.9092 3.67401C15.6847 3.44954 15.372 3.3011 14.7917 3.21753V3.33317C14.7917 3.67835 14.5118 3.95817 14.1667 3.95817C13.8215 3.95817 13.5417 3.67835 13.5417 3.33317V3.13413C13.1242 3.12513 12.6434 3.12484 12.0833 3.12484H10.625V3.33317C10.625 3.67835 10.3452 3.95817 10 3.95817C9.65483 3.95817 9.37501 3.67835 9.37501 3.33317V3.12484H7.91667C7.35659 3.12484 6.87586 3.12513 6.45834 3.13413V3.33317C6.45834 3.67835 6.17852 3.95817 5.83334 3.95817C5.48816 3.95817 5.20834 3.67835 5.20834 3.33317V3.21753C4.62805 3.3011 4.31532 3.44954 4.09085 3.67401C3.86021 3.90465 3.70984 4.22846 3.62763 4.83994C3.543 5.4694 3.54167 6.30366 3.54167 7.49984V13.3332C3.54167 14.5294 3.543 15.3636 3.62763 15.9931C3.70984 16.6046 3.86021 16.9284 4.09085 17.159C4.32148 17.3896 4.64529 17.54 5.25677 17.6222C5.88623 17.7068 6.72049 17.7082 7.91667 17.7082H8.75001C9.60612 17.7082 10.358 17.7079 11.0234 17.6959C11.739 17.6028 12.2917 16.9909 12.2917 16.2498C12.2917 16.1619 12.2878 16.0663 12.2826 15.9553L12.2807 15.9144C12.2762 15.8177 12.2711 15.7101 12.2689 15.6029C12.2639 15.3612 12.2709 15.0662 12.3485 14.7768C12.5026 14.2017 12.9518 13.7524 13.527 13.5983C13.8163 13.5208 14.1114 13.5137 14.353 13.5187C14.4603 13.521 14.5678 13.526 14.6645 13.5306L14.7054 13.5325C14.8165 13.5376 14.9121 13.5415 15 13.5415C15.741 13.5415 16.3529 12.9888 16.4461 12.2732ZM13.2008 17.5662C13.2135 17.5646 13.2261 17.5629 13.2387 17.5612C14.304 17.418 14.9463 17.1456 15.421 16.6708C15.8957 16.1961 16.1681 15.5539 16.3114 14.4885C16.3131 14.4759 16.3147 14.4633 16.3164 14.4506C15.9267 14.6678 15.4778 14.7915 15 14.7915C14.8799 14.7915 14.7581 14.7863 14.6475 14.7811L14.6049 14.7791C14.5068 14.7745 14.4168 14.7703 14.3271 14.7685C14.1183 14.7641 13.9657 14.7748 13.8505 14.8057C13.7067 14.8442 13.5944 14.9565 13.5559 15.1003C13.525 15.2155 13.5143 15.3681 13.5186 15.5769C13.5205 15.6666 13.5247 15.7566 13.5293 15.8547L13.5313 15.8973C13.5364 16.0079 13.5417 16.1297 13.5417 16.2498C13.5417 16.7276 13.4179 17.1765 13.2008 17.5662Z" fill="#773DBD"/>
</svg>
