<svg width="16" height="20" viewBox="0 0 16 20" fill="none" xmlns="http://www.w3.org/2000/svg">
<path d="M1.51499 16.7307C1.32116 16.7307 1.15649 16.663 1.02099 16.5275C0.88566 16.392 0.817993 16.2272 0.817993 16.0332C0.817993 15.8392 0.88566 15.6738 1.02099 15.537C1.15649 15.4001 1.32116 15.3317 1.51499 15.3317H2.52474V8.05197C2.52474 6.7103 2.94141 5.5228 3.77474 4.48947C4.60808 3.45613 5.67474 2.79105 6.97474 2.49422V1.91097C6.97474 1.57513 7.09099 1.29097 7.32349 1.05847C7.55599 0.825967 7.84158 0.709717 8.18024 0.709717C8.51874 0.709717 8.80566 0.825967 9.04099 1.05847C9.27616 1.29097 9.39374 1.57513 9.39374 1.91097V2.49422C10.6951 2.79105 11.7629 3.45613 12.5972 4.48947C13.4316 5.5228 13.8487 6.7103 13.8487 8.05197V15.3317H14.8557C15.0467 15.3317 15.2111 15.4003 15.3487 15.5375C15.4864 15.6745 15.5552 15.84 15.5552 16.034C15.5552 16.228 15.4867 16.3926 15.3497 16.528C15.2127 16.6631 15.0473 16.7307 14.8535 16.7307H1.51499ZM8.18249 19.45C7.69333 19.45 7.27674 19.2776 6.93274 18.933C6.58891 18.5881 6.41699 18.1714 6.41699 17.6827H9.95149C9.95149 18.173 9.77899 18.5901 9.43399 18.934C9.08899 19.278 8.67183 19.45 8.18249 19.45ZM3.92374 15.3317H12.4497V8.05197C12.4497 6.87547 12.0326 5.87122 11.1982 5.03922C10.3639 4.20722 9.35849 3.79122 8.18199 3.79122C7.00566 3.79122 6.00183 4.20722 5.17049 5.03922C4.33933 5.87122 3.92374 6.87547 3.92374 8.05197V15.3317Z" fill="#1B1B1B"/>
</svg>
