<svg width="14" height="14" viewBox="0 0 14 14" fill="none" xmlns="http://www.w3.org/2000/svg">
<path d="M1.48853 13.9321C1.09478 13.9321 0.759643 13.7938 0.483115 13.5171C0.206449 13.2406 0.0681152 12.9054 0.0681152 12.5117V1.48878C0.0681152 1.09503 0.206449 0.759887 0.483115 0.483359C0.759643 0.206692 1.09506 0.0683594 1.48937 0.0683594H6.04811C6.20686 0.0683594 6.34339 0.125512 6.4577 0.239817C6.57187 0.353984 6.62895 0.490443 6.62895 0.649193C6.62895 0.811137 6.57187 0.949123 6.4577 1.06315C6.34339 1.17718 6.20686 1.23419 6.04811 1.23419H1.49041C1.42624 1.23419 1.36749 1.26093 1.31416 1.3144C1.26068 1.36773 1.23395 1.42648 1.23395 1.49065V12.5098C1.23395 12.574 1.26068 12.6327 1.31416 12.6861C1.36749 12.7395 1.42624 12.7663 1.49041 12.7663H12.5096C12.5737 12.7663 12.6325 12.7395 12.6858 12.6861C12.7393 12.6327 12.766 12.574 12.766 12.5098V7.95211C12.766 7.79336 12.823 7.65683 12.9371 7.54253C13.0511 7.42836 13.1884 7.37128 13.3489 7.37128C13.5095 7.37128 13.6468 7.42836 13.7608 7.54253C13.8749 7.65683 13.9319 7.79336 13.9319 7.95211V12.5109C13.9319 12.9052 13.7935 13.2406 13.5169 13.5171C13.2403 13.7938 12.9052 13.9321 12.5114 13.9321H1.48853ZM12.766 2.05148L5.53207 9.2894C5.42041 9.39787 5.28687 9.45343 5.13145 9.45607C4.97603 9.45885 4.8393 9.39982 4.72124 9.27898C4.60041 9.16093 4.53999 9.02475 4.53999 8.87044C4.53999 8.716 4.5995 8.58065 4.71853 8.4644L11.9487 1.23419H9.11687C8.95506 1.23419 8.81714 1.17718 8.70312 1.06315C8.58909 0.949123 8.53207 0.811831 8.53207 0.651276C8.53207 0.49072 8.58909 0.353428 8.70312 0.2394C8.81714 0.125372 8.95506 0.0683594 9.11687 0.0683594H13.2227C13.4189 0.0683594 13.5862 0.137525 13.7244 0.275859C13.8627 0.414053 13.9319 0.581276 13.9319 0.777526V4.88336C13.9319 5.04517 13.8747 5.18308 13.7604 5.29711C13.6462 5.41114 13.5098 5.46815 13.351 5.46815C13.1891 5.46815 13.0511 5.41114 12.9371 5.29711C12.823 5.18308 12.766 5.04517 12.766 4.88336V2.05148Z" fill="#5F6368"/>
</svg>
