<svg width="30" height="30" viewBox="0 0 30 30" fill="none" xmlns="http://www.w3.org/2000/svg">
<rect width="30" height="30" rx="3" fill="#773DBD"/>
<path d="M13.6306 15.8125H12.375V17.0625H13.6306V15.8125Z" fill="white"/>
<path d="M16.1278 15.8125H14.8722V17.0625H16.1278V15.8125Z" fill="white"/>
<path d="M18.625 15.8125H17.3694V17.0625H18.625V15.8125Z" fill="white"/>
<path d="M13.6306 18.3125H12.375V19.5625H13.6306V18.3125Z" fill="white"/>
<path d="M16.1278 18.3125H14.8722V19.5625H16.1278V18.3125Z" fill="white"/>
<path fill-rule="evenodd" clip-rule="evenodd" d="M11.5938 9.25V10.0312H9.875C9.61612 10.0312 9.40625 10.2411 9.40625 10.5V21.75C9.40625 22.0089 9.61612 22.2188 9.875 22.2188H21.125C21.3839 22.2188 21.5938 22.0089 21.5938 21.75V10.5C21.5938 10.2411 21.3839 10.0312 21.125 10.0312H19.4062V9.25H18.4688V10.0312H12.5312V9.25H11.5938ZM20.6562 13.1562V10.9688H19.4062V11.75H18.4688V10.9688H12.5312V11.75H11.5938V10.9688H10.3438V13.1562H20.6562ZM10.3438 14.0938H20.6562V21.2812H10.3438V14.0938Z" fill="white"/>
</svg>
