<svg width="46" height="46" viewBox="0 0 46 46" fill="none" xmlns="http://www.w3.org/2000/svg">
<path fill-rule="evenodd" clip-rule="evenodd" d="M23.007 0.549316C20.3889 0.549316 18.2725 2.67557 18.2725 5.29099C18.2725 7.90642 20.3889 10.0327 23.007 10.0327C25.6251 10.0327 27.7415 7.90642 27.7415 5.29099C27.7415 2.67557 25.6251 0.549316 23.007 0.549316ZM21.3975 5.29099C21.3975 4.3948 22.1214 3.67432 23.007 3.67432C23.8926 3.67432 24.6165 4.3948 24.6165 5.29099C24.6165 6.18719 23.8926 6.90767 23.007 6.90767C22.1214 6.90767 21.3975 6.18719 21.3975 5.29099Z" fill="#773DBD"/>
<path fill-rule="evenodd" clip-rule="evenodd" d="M30.8309 19.7929C30.493 14.6764 26.7123 12.0131 22.9277 12.0363C19.1513 12.0595 15.4084 14.7642 15.1814 19.826L15.1082 21.4585L30.9409 21.4583L30.8309 19.7929ZM27.3927 18.3334L18.5862 18.3335C19.2791 16.1914 21.1087 15.1726 22.9469 15.1613C24.7802 15.15 26.6472 16.145 27.3927 18.3334Z" fill="#773DBD"/>
<path fill-rule="evenodd" clip-rule="evenodd" d="M6.85629 27.1346C6.85658 26.2718 7.55605 25.5726 8.41879 25.5726H37.5834C38.4463 25.5726 39.1459 26.2721 39.1459 27.1351V31.8162H43.8334C44.6963 31.8162 45.3959 32.5158 45.3959 33.3787V43.7826C45.3959 44.6455 44.6963 45.3451 43.8334 45.3451H31.3334C30.4704 45.3451 29.7709 44.6455 29.7709 43.7826V33.3787C29.7709 32.5158 30.4704 31.8162 31.3334 31.8162H36.0209V28.6976H9.98076L9.97971 31.8162H14.6667C15.5296 31.8162 16.2292 32.5158 16.2292 33.3787V43.7826C16.2292 44.6455 15.5296 45.3451 14.6667 45.3451H2.16669C1.30374 45.3451 0.604187 44.6455 0.604187 43.7826V33.3787C0.604187 32.5158 1.30374 31.8162 2.16669 31.8162H6.85471L6.85629 27.1346ZM3.72919 42.2201V34.9412H13.1042V42.2201H3.72919ZM32.8959 42.2201V34.9412H42.2709V42.2201H32.8959Z" fill="#773DBD"/>
</svg>
