<svg width="10" height="15" viewBox="0 0 10 15" fill="none" xmlns="http://www.w3.org/2000/svg">
<path d="M7.48115 1.55044V7.19314L9.11656 8.81814C9.15767 8.86078 9.19372 8.91134 9.22469 8.96981C9.25566 9.02842 9.27115 9.09558 9.27115 9.17127V9.45648C9.27115 9.59162 9.22122 9.71023 9.12136 9.81231C9.02135 9.91439 8.90281 9.96544 8.76573 9.96544H5.50052V14.0946C5.50052 14.2325 5.45177 14.3506 5.35427 14.4488C5.25691 14.547 5.13983 14.5961 5.00302 14.5961C4.86622 14.5961 4.74837 14.547 4.64948 14.4488C4.55073 14.3506 4.50135 14.2325 4.50135 14.0946V9.96544H1.23615C1.09587 9.96544 0.975868 9.91439 0.876146 9.81231C0.776423 9.71023 0.726562 9.59162 0.726562 9.45648V9.17127C0.726562 9.0946 0.742049 9.02752 0.773021 8.97002C0.803993 8.91252 0.841355 8.86189 0.885105 8.81814L2.51656 7.19314V1.55044H2.01802C1.8801 1.55044 1.76205 1.50175 1.66385 1.40439C1.56566 1.30689 1.51656 1.19044 1.51656 1.05502C1.51656 0.919603 1.56566 0.801755 1.66385 0.701477C1.76205 0.601338 1.8801 0.55127 2.01802 0.55127H7.98365C8.11851 0.55127 8.23517 0.600088 8.33365 0.697727C8.43198 0.795366 8.48115 0.911061 8.48115 1.04481C8.48115 1.18162 8.43198 1.30009 8.33365 1.40023C8.23517 1.50037 8.11851 1.55044 7.98365 1.55044H7.48115ZM2.14073 8.96627H7.85698L6.48198 7.6096V1.55044H3.51573V7.60814L2.14073 8.96627Z" fill="#FF5000"/>
</svg>
