<svg width="20" height="20" viewBox="0 0 20 20" fill="none" xmlns="http://www.w3.org/2000/svg">
<path fill-rule="evenodd" clip-rule="evenodd" d="M2.47128 1.04151C2.30036 1.04144 2.11553 1.04137 1.95951 1.06235C1.77674 1.08692 1.54325 1.15012 1.34675 1.34662C1.15025 1.54312 1.08706 1.77661 1.06248 1.95938C1.04151 2.11539 1.04158 2.30022 1.04165 2.47115L1.04165 2.94522C1.04158 3.11615 1.04151 3.30098 1.06248 3.457C1.08706 3.63976 1.15025 3.87326 1.34675 4.06976C1.51406 4.23706 1.70818 4.30773 1.87498 4.3402L1.87498 8.3789C1.87496 9.51856 1.87494 10.4372 1.97208 11.1596C2.07292 11.9097 2.28867 12.5413 2.79027 13.0429C3.29186 13.5445 3.92343 13.7602 4.67352 13.8611C5.39598 13.9582 6.31458 13.9582 7.45423 13.9582H9.37497V15.3149C8.64673 15.5723 8.12497 16.2668 8.12497 17.0832C8.12497 18.1187 8.96444 18.9582 9.99997 18.9582C11.0355 18.9582 11.875 18.1187 11.875 17.0832C11.875 16.2668 11.3532 15.5723 10.625 15.3149V13.9582H12.5457C13.6853 13.9582 14.604 13.9582 15.3264 13.8611C16.0765 13.7602 16.7081 13.5445 17.2097 13.0429C17.7113 12.5413 17.927 11.9097 18.0279 11.1596C18.125 10.4372 18.125 9.51855 18.125 8.3789V4.34021C18.2918 4.30774 18.4859 4.23707 18.6532 4.06976C18.8497 3.87326 18.9129 3.63976 18.9375 3.457C18.9585 3.30098 18.9584 3.11615 18.9583 2.94522V2.47115C18.9584 2.30022 18.9585 2.11539 18.9375 1.95938C18.9129 1.77661 18.8497 1.54312 18.6532 1.34662C18.4567 1.15012 18.2232 1.08692 18.0405 1.06235C17.8845 1.04137 17.6996 1.04144 17.5287 1.04151H2.47128ZM3.12498 4.37485H16.875V8.33317C16.875 9.52935 16.8736 10.3636 16.789 10.9931C16.7068 11.6045 16.5564 11.9284 16.3258 12.159C16.0952 12.3896 15.7714 12.54 15.1599 12.6222C14.5304 12.7068 13.6962 12.7082 12.5 12.7082H7.49997C6.30379 12.7082 5.46953 12.7068 4.84008 12.6222C4.2286 12.54 3.90479 12.3896 3.67415 12.159C3.44351 11.9284 3.29314 11.6045 3.21093 10.9931C3.1263 10.3636 3.12498 9.52935 3.12498 8.33317V4.37485ZM17.5544 3.12484C17.6128 3.12479 17.6628 3.12461 17.7074 3.12389C17.7083 3.06601 17.7083 2.99908 17.7083 2.91652V2.49985C17.7083 2.41729 17.7083 2.35036 17.7074 2.29248C17.6495 2.29155 17.5826 2.29152 17.5 2.29152H2.49999C2.41742 2.29152 2.3505 2.29155 2.29262 2.29248C2.29168 2.35036 2.29166 2.41729 2.29166 2.49985V2.91652C2.29166 2.99908 2.29168 3.06601 2.29262 3.12389C2.33717 3.12461 2.38707 3.12479 2.44535 3.12484H17.5544ZM9.37497 17.0832C9.37497 16.738 9.6548 16.4582 9.99997 16.4582C10.3452 16.4582 10.625 16.738 10.625 17.0832C10.625 17.4283 10.3452 17.7082 9.99997 17.7082C9.6548 17.7082 9.37497 17.4283 9.37497 17.0832Z" fill="#773DBD"/>
</svg>
