<svg width="20" height="20" viewBox="0 0 20 20" fill="none" xmlns="http://www.w3.org/2000/svg">
<path d="M5 6.45833H6.66667V5.20833L5 5.20833V6.45833Z" fill="#773DBD"/>
<path d="M8.33333 6.45833L15 6.45833V5.20833L8.33333 5.20833V6.45833Z" fill="#773DBD"/>
<path d="M5 10.625H6.66667V9.375H5V10.625Z" fill="#773DBD"/>
<path d="M8.33333 10.625H15V9.375H8.33333V10.625Z" fill="#773DBD"/>
<path d="M5 14.7917H6.66667V13.5417H5V14.7917Z" fill="#773DBD"/>
<path d="M8.33333 14.7917L15 14.7917V13.5417L8.33333 13.5417V14.7917Z" fill="#773DBD"/>
<path fill-rule="evenodd" clip-rule="evenodd" d="M2.5 1.875C2.15482 1.875 1.875 2.15482 1.875 2.5V17.5C1.875 17.8452 2.15482 18.125 2.5 18.125H17.5C17.8452 18.125 18.125 17.8452 18.125 17.5V2.5C18.125 2.15482 17.8452 1.875 17.5 1.875H2.5ZM3.125 16.875V3.125H16.875V16.875H3.125Z" fill="#773DBD"/>
</svg>
