<svg width="18" height="18" viewBox="0 0 18 18" fill="none" xmlns="http://www.w3.org/2000/svg">
<path fill-rule="evenodd" clip-rule="evenodd" d="M2.72059 2.61104C4.33655 1.02263 6.55439 0.041748 9.00008 0.041748C9.57391 0.041748 10.1357 0.0957811 10.6805 0.199209C14.8248 0.986045 17.9584 4.62644 17.9584 9.00008C17.9584 9.51632 17.9147 10.0228 17.8306 10.516C17.11 14.7417 13.4313 17.9584 9.00008 17.9584C4.05253 17.9584 0.041748 13.9476 0.041748 9.00008C0.041748 6.49857 1.06788 4.23558 2.72059 2.61104ZM4.35759 2.84596C4.71999 3.08833 5.03283 3.41508 5.37482 3.77644C6.48594 4.95048 7.4397 4.91922 7.96101 4.6438C8.16843 4.53422 8.23758 4.43497 8.2742 4.36108C8.32404 4.26053 8.34342 4.15401 8.3838 3.9321C8.38573 3.92148 8.38771 3.9106 8.38974 3.89945C8.42886 3.68483 8.4904 3.36255 8.6946 3.05418C8.90834 2.73138 9.23321 2.48537 9.68879 2.30485C9.9615 2.19679 10.0863 2.02518 10.135 1.84601C10.171 1.71333 10.1714 1.54959 10.1218 1.37269C9.7559 1.31939 9.38139 1.29175 9.00008 1.29175C7.25663 1.29175 5.64909 1.86999 4.35759 2.84596ZM11.4107 1.67599C11.4082 1.84312 11.3857 2.01004 11.3413 2.17358C11.1859 2.74581 10.7756 3.21878 10.1492 3.46695C9.87155 3.57698 9.77772 3.68254 9.73682 3.74429C9.68638 3.82047 9.65736 3.91573 9.61948 4.12358C9.61621 4.14153 9.61281 4.16087 9.6092 4.18145C9.57697 4.36511 9.52743 4.64732 9.3942 4.91615C9.23045 5.24657 8.96228 5.52854 8.54493 5.74904C7.4002 6.35381 5.85489 6.10221 4.46695 4.63566C3.94353 4.08261 3.67534 3.83903 3.36912 3.73594C2.07995 5.11427 1.29175 6.96462 1.29175 9.00008C1.29175 12.853 4.11852 16.0457 7.81127 16.6173C7.79959 16.5507 7.79187 16.4829 7.78816 16.4139C7.76044 15.8985 7.9648 15.4236 8.188 15.0398C8.5134 14.4803 8.6123 14.2993 8.66344 14.0941C8.71774 13.8762 8.72226 13.6145 8.72226 12.8704C8.72226 12.4602 8.78216 12.0467 8.96583 11.6771C9.15685 11.2928 9.46248 10.9953 9.87875 10.803C10.6575 10.4431 11.7886 10.468 13.2893 10.7682C13.4617 10.8026 13.6429 10.7766 13.8815 10.6785C14.0797 10.5969 14.2692 10.4884 14.5024 10.3548C14.5753 10.3131 14.6523 10.269 14.7353 10.2224C15.2394 9.93958 15.8863 9.61541 16.68 9.66678C16.6988 9.44716 16.7084 9.2248 16.7084 9.00008C16.7084 5.58516 14.4873 2.6879 11.4107 1.67599ZM16.4695 10.9124C16.1028 10.9239 15.7574 11.0823 15.3469 11.3126C15.2904 11.3443 15.2306 11.3786 15.1682 11.4145C14.923 11.5553 14.6384 11.7188 14.357 11.8345C13.9825 11.9885 13.5404 12.0932 13.0442 11.9939C11.5687 11.6988 10.7901 11.7588 10.4031 11.9377C10.2365 12.0146 10.1453 12.1125 10.0852 12.2334C10.0178 12.3691 9.97226 12.571 9.97226 12.8704C9.97226 12.8987 9.97227 12.9265 9.97227 12.954C9.97245 13.5829 9.97257 14.0103 9.87634 14.3964C9.77713 14.7945 9.57982 15.1335 9.30549 15.6048C9.29334 15.6256 9.28103 15.6468 9.26857 15.6682C9.08915 15.9767 9.02815 16.1942 9.03635 16.3468C9.04107 16.4346 9.0706 16.5547 9.22318 16.7052C12.7213 16.6058 15.6368 14.1754 16.4695 10.9124Z" fill="#07C37B"/>
</svg>
