<svg width="16" height="16" viewBox="0 0 16 16" fill="none" xmlns="http://www.w3.org/2000/svg">
<path d="M10.6666 8.50016C10.9427 8.50016 11.1666 8.27631 11.1666 8.00016C11.1666 7.72402 10.9427 7.50016 10.6666 7.50016H5.33325C5.05711 7.50016 4.83325 7.72402 4.83325 8.00016C4.83325 8.27631 5.05711 8.50016 5.33325 8.50016H10.6666Z" fill="#FF5000"/>
<path fill-rule="evenodd" clip-rule="evenodd" d="M7.99992 15.1668C4.04188 15.1668 0.833252 11.9582 0.833252 8.00016C0.833252 4.04212 4.04188 0.833496 7.99992 0.833496C11.958 0.833496 15.1666 4.04212 15.1666 8.00016C15.1666 11.9582 11.958 15.1668 7.99992 15.1668ZM1.83325 8.00016C1.83325 11.4059 4.59416 14.1668 7.99992 14.1668C11.4057 14.1668 14.1666 11.4059 14.1666 8.00016C14.1666 4.59441 11.4057 1.8335 7.99992 1.8335C4.59416 1.8335 1.83325 4.59441 1.83325 8.00016Z" fill="#FF5000"/>
</svg>
