<svg width="18" height="18" viewBox="0 0 18 18" fill="none" xmlns="http://www.w3.org/2000/svg">
<path d="M6.74793 14.6509C6.43243 14.6509 6.16212 14.5376 5.937 14.3111C5.71175 14.0845 5.59912 13.8134 5.59912 13.4979C5.59912 13.1824 5.71237 12.9121 5.93887 12.687C6.1655 12.4617 6.43656 12.3491 6.75206 12.3491C7.06756 12.3491 7.33787 12.4624 7.563 12.6889C7.78825 12.9155 7.90087 13.1866 7.90087 13.5021C7.90087 13.8176 7.78762 14.0879 7.56112 14.313C7.3345 14.5382 7.06343 14.6509 6.74793 14.6509ZM11.2479 14.6509C10.9324 14.6509 10.6621 14.5376 10.437 14.3111C10.2117 14.0845 10.0991 13.8134 10.0991 13.4979C10.0991 13.1824 10.2124 12.9121 10.4389 12.687C10.6655 12.4617 10.9366 12.3491 11.2521 12.3491C11.5676 12.3491 11.8379 12.4624 12.063 12.6889C12.2882 12.9155 12.4009 13.1866 12.4009 13.5021C12.4009 13.8176 12.2876 14.0879 12.0611 14.313C11.8345 14.5382 11.5634 14.6509 11.2479 14.6509ZM6.74793 10.1509C6.43243 10.1509 6.16212 10.0376 5.937 9.81112C5.71175 9.5845 5.59912 9.31343 5.59912 8.99793C5.59912 8.68243 5.71237 8.41212 5.93887 8.187C6.1655 7.96175 6.43656 7.84912 6.75206 7.84912C7.06756 7.84912 7.33787 7.96237 7.563 8.18887C7.78825 8.4155 7.90087 8.68656 7.90087 9.00206C7.90087 9.31756 7.78762 9.58787 7.56112 9.813C7.3345 10.0382 7.06343 10.1509 6.74793 10.1509ZM11.2479 10.1509C10.9324 10.1509 10.6621 10.0376 10.437 9.81112C10.2117 9.5845 10.0991 9.31343 10.0991 8.99793C10.0991 8.68243 10.2124 8.41212 10.4389 8.187C10.6655 7.96175 10.9366 7.84912 11.2521 7.84912C11.5676 7.84912 11.8379 7.96237 12.063 8.18887C12.2882 8.4155 12.4009 8.68656 12.4009 9.00206C12.4009 9.31756 12.2876 9.58787 12.0611 9.813C11.8345 10.0382 11.5634 10.1509 11.2479 10.1509ZM6.74793 5.65087C6.43243 5.65087 6.16212 5.53762 5.937 5.31112C5.71175 5.0845 5.59912 4.81343 5.59912 4.49793C5.59912 4.18243 5.71237 3.91212 5.93887 3.687C6.1655 3.46175 6.43656 3.34912 6.75206 3.34912C7.06756 3.34912 7.33787 3.46237 7.563 3.68887C7.78825 3.9155 7.90087 4.18656 7.90087 4.50206C7.90087 4.81756 7.78762 5.08787 7.56112 5.313C7.3345 5.53825 7.06343 5.65087 6.74793 5.65087ZM11.2479 5.65087C10.9324 5.65087 10.6621 5.53762 10.437 5.31112C10.2117 5.0845 10.0991 4.81343 10.0991 4.49793C10.0991 4.18243 10.2124 3.91212 10.4389 3.687C10.6655 3.46175 10.9366 3.34912 11.2521 3.34912C11.5676 3.34912 11.8379 3.46237 12.063 3.68887C12.2882 3.9155 12.4009 4.18656 12.4009 4.50206C12.4009 4.81756 12.2876 5.08787 12.0611 5.313C11.8345 5.53825 11.5634 5.65087 11.2479 5.65087Z" fill="#D6D6D6"/>
</svg>
