<svg width="18" height="18" viewBox="0 0 18 18" fill="none" xmlns="http://www.w3.org/2000/svg">
<path fill-rule="evenodd" clip-rule="evenodd" d="M15.2501 0.131104C14.269 0.131104 13.5425 0.97696 13.5425 1.93221V2.46492C13.5113 2.47955 13.4803 2.49566 13.4496 2.51341C13.1722 2.6735 12.9515 2.91491 12.8096 3.20148C12.705 3.41293 12.6659 3.63413 12.6481 3.86068C12.631 4.07706 12.631 4.3411 12.631 4.65192V4.69281C12.631 5.00363 12.631 5.26767 12.6481 5.48405C12.6659 5.71059 12.705 5.9318 12.8096 6.14324C12.9515 6.42982 13.1722 6.67123 13.4496 6.83132C13.6588 6.95206 13.8787 6.9969 14.0977 7.01702C14.3032 7.03589 14.5521 7.03588 14.8367 7.03587H15.6634C15.9479 7.03588 16.197 7.03589 16.4024 7.01702C16.6215 6.9969 16.8414 6.95206 17.0506 6.83132C17.3279 6.67123 17.5487 6.42982 17.6905 6.14324C17.7952 5.9318 17.8342 5.71059 17.8521 5.48405C17.8691 5.26768 17.8691 5.00367 17.8691 4.69288V4.65192C17.8691 4.34113 17.8691 4.07704 17.8521 3.86068C17.8342 3.63413 17.7952 3.41293 17.6905 3.20148C17.5487 2.91491 17.3279 2.6735 17.0506 2.51341C17.0198 2.49566 16.9888 2.47955 16.9577 2.46492V1.93221C16.9577 0.97696 16.2311 0.131104 15.2501 0.131104ZM14.8367 2.30886C14.7598 2.30886 14.6855 2.30885 14.6139 2.30922V1.93221C14.6139 1.48975 14.9367 1.20253 15.2501 1.20253C15.5634 1.20253 15.8862 1.48975 15.8862 1.93221V2.30922C15.8147 2.30885 15.7403 2.30886 15.6634 2.30886H14.8367ZM13.9852 3.44137C14.0061 3.4293 14.0532 3.40773 14.1957 3.39465C14.3463 3.38082 14.5455 3.38029 14.8594 3.38029H15.6407C15.9546 3.38029 16.1539 3.38082 16.3044 3.39465C16.4469 3.40773 16.4941 3.4293 16.515 3.44137C16.601 3.49102 16.6779 3.57099 16.7303 3.6768C16.7486 3.71383 16.7711 3.781 16.784 3.94482C16.7973 4.11407 16.7977 4.33557 16.7977 4.67236C16.7977 5.00916 16.7973 5.23065 16.784 5.39991C16.7711 5.56373 16.7486 5.63089 16.7303 5.66792C16.6779 5.77374 16.601 5.85371 16.515 5.90336C16.4941 5.91543 16.4469 5.937 16.3044 5.95008C16.1539 5.96391 15.9546 5.96444 15.6407 5.96444H14.8594C14.5455 5.96444 14.3463 5.96391 14.1957 5.95008C14.0532 5.937 14.0061 5.91543 13.9852 5.90336C13.8991 5.85371 13.8222 5.77374 13.7698 5.66792C13.7515 5.63089 13.7291 5.56373 13.7162 5.39991C13.7028 5.23065 13.7025 5.00916 13.7025 4.67236C13.7025 4.33557 13.7028 4.11407 13.7162 3.94482C13.7291 3.781 13.7515 3.71383 13.7698 3.6768C13.8222 3.57099 13.8991 3.49102 13.9852 3.44137Z" fill="#F93131"/>
<path fill-rule="evenodd" clip-rule="evenodd" d="M3.37484 4.83366C3.37484 2.64753 5.14704 0.875326 7.33317 0.875326C9.5193 0.875326 11.2915 2.64753 11.2915 4.83366C11.2915 7.01979 9.5193 8.79199 7.33317 8.79199C5.14704 8.79199 3.37484 7.01979 3.37484 4.83366ZM7.33317 2.12533C5.8374 2.12533 4.62484 3.33789 4.62484 4.83366C4.62484 6.32943 5.8374 7.54199 7.33317 7.54199C8.82894 7.54199 10.0415 6.32943 10.0415 4.83366C10.0415 3.33789 8.82894 2.12533 7.33317 2.12533Z" fill="#F93131"/>
<path fill-rule="evenodd" clip-rule="evenodd" d="M3.00067 11.2081C5.65333 9.65329 9.01333 9.65329 11.666 11.2081C11.75 11.2574 11.8546 11.3154 11.9736 11.3815C12.5008 11.6742 13.3108 12.1238 13.8653 12.658C14.2115 12.9916 14.5528 13.4423 14.6151 14.0034C14.6819 14.6047 14.4132 15.1595 13.8996 15.6412C13.0246 16.4619 11.968 17.1253 10.5994 17.1253H4.06731C2.69869 17.1253 1.64209 16.4619 0.76702 15.6412C0.253419 15.1595 -0.0152045 14.6047 0.0515639 14.0034C0.113874 13.4423 0.455171 12.9916 0.801408 12.658C1.3559 12.1238 2.16583 11.6742 2.69303 11.3815C2.81192 11.3155 2.91674 11.2573 3.00067 11.2081ZM11.0339 12.2865C8.77157 10.9605 5.89509 10.9605 3.63277 12.2865C3.50571 12.361 3.36749 12.4382 3.22341 12.5187C2.69637 12.8131 2.09104 13.1513 1.66872 13.5582C1.40622 13.8111 1.30888 14.0067 1.29393 14.1414C1.28343 14.2359 1.29893 14.4264 1.6221 14.7294C2.38207 15.4421 3.14648 15.8753 4.06731 15.8753H10.5994C11.5202 15.8753 12.2846 15.4421 13.0446 14.7294C13.3677 14.4264 13.3832 14.2359 13.3727 14.1414C13.3578 14.0067 13.2604 13.8111 12.9979 13.5582C12.5756 13.1513 11.9704 12.8132 11.4434 12.5188C11.2993 12.4383 11.161 12.361 11.0339 12.2865Z" fill="#F93131"/>
</svg>
