<svg width="12" height="20" viewBox="0 0 12 20" fill="none" xmlns="http://www.w3.org/2000/svg">
<path d="M10.3221 10.0002L6.94503 6.62309C6.83642 6.51447 6.78079 6.38163 6.77815 6.22454C6.77538 6.06746 6.83093 5.92989 6.94482 5.81184C7.05857 5.69378 7.19371 5.63302 7.35024 5.62954C7.50676 5.62607 7.64538 5.68336 7.76607 5.80142L11.4607 9.49621C11.5318 9.56996 11.5851 9.64836 11.6207 9.73142C11.6562 9.81447 11.674 9.90406 11.674 10.0002C11.674 10.0963 11.6561 10.186 11.6204 10.2693C11.5849 10.3527 11.5314 10.43 11.46 10.5012L7.7667 14.1943C7.65086 14.31 7.51336 14.3675 7.3542 14.3668C7.19503 14.366 7.05857 14.3066 6.94482 14.1885C6.83093 14.0704 6.77399 13.9342 6.77399 13.7798C6.77399 13.6254 6.831 13.4913 6.94503 13.3773L10.3221 10.0002Z" fill="#773DBD"/>
</svg>
