<svg width="24" height="24" viewBox="0 0 24 24" fill="none" xmlns="http://www.w3.org/2000/svg">
<path d="M9.01561 11.382L11.2049 9.18976L9.48561 7.46751L8.80311 8.15026C8.67295 8.28359 8.51486 8.35234 8.32886 8.35651C8.14303 8.36067 7.9767 8.28934 7.82986 8.14251C7.6832 7.99584 7.60986 7.83109 7.60986 7.64826C7.60986 7.46559 7.6832 7.30092 7.82986 7.15426L8.49736 6.48676L6.87036 4.84726L4.67811 7.03976L9.01561 11.382ZM16.9521 19.306L19.1444 17.1138L17.5376 15.5148L16.8626 16.182C16.7223 16.3223 16.5584 16.3941 16.3709 16.3973C16.1834 16.4006 16.0162 16.3288 15.8694 16.182C15.7225 16.0352 15.6491 15.8696 15.6491 15.6853C15.6491 15.5011 15.7225 15.3356 15.8694 15.1888L16.5366 14.5138L14.8241 12.809L12.6396 14.9935L16.9521 19.306ZM4.55886 20.2983C4.3197 20.2983 4.11728 20.2154 3.95161 20.0498C3.78595 19.8841 3.70311 19.6817 3.70311 19.4425V17.0215C3.70311 16.9093 3.72361 16.8033 3.76461 16.7035C3.80561 16.6038 3.86878 16.5114 3.95411 16.4263L8.01936 12.3608L3.50311 7.83476C3.27611 7.61109 3.1647 7.34401 3.16886 7.03351C3.17303 6.72284 3.28703 6.45826 3.51086 6.23976L6.09061 3.68001C6.31428 3.46467 6.58136 3.35617 6.89186 3.35451C7.20253 3.35301 7.46711 3.46409 7.68561 3.68776L12.2089 8.21376L16.2694 4.12526C16.413 3.98176 16.5705 3.87534 16.7419 3.80601C16.9134 3.73684 17.0937 3.70226 17.2829 3.70226C17.4687 3.70226 17.6486 3.73684 17.8226 3.80601C17.9968 3.87534 18.1572 3.98176 18.3039 4.12526L19.8761 5.72926C20.0196 5.87592 20.1244 6.03501 20.1906 6.20651C20.2566 6.37801 20.2896 6.55667 20.2896 6.74251C20.2896 6.93167 20.2566 7.11117 20.1906 7.28101C20.1244 7.45084 20.0196 7.60759 19.8761 7.75126L15.8221 11.8175L20.3214 16.3158C20.5367 16.5343 20.6444 16.7988 20.6444 17.1095C20.6444 17.42 20.5367 17.6871 20.3214 17.9108L17.7616 20.4905C17.5431 20.7143 17.2785 20.8283 16.9679 20.8325C16.6574 20.8367 16.3903 20.7253 16.1666 20.4983L11.6481 15.9945L7.58761 20.0473C7.49911 20.1326 7.40503 20.1958 7.30536 20.2368C7.2057 20.2778 7.09978 20.2983 6.98761 20.2983H4.55886ZM5.10211 18.8993H6.73861L16.2454 9.39551L14.6059 7.75601L5.10211 17.2753V18.8993ZM15.4359 8.56851L14.6059 7.75601L16.2454 9.39551L15.4359 8.56851Z" fill="#666666"/>
</svg>
