<svg width="15" height="15" viewBox="0 0 15 15" fill="none" xmlns="http://www.w3.org/2000/svg">
<path d="M5.96388 10.412C4.56999 10.412 3.39124 9.92984 2.42763 8.96553C1.46416 8.00136 0.982422 6.82428 0.982422 5.43428C0.982422 4.04442 1.46381 2.86713 2.42659 1.90241C3.38923 0.937684 4.56624 0.455322 5.95763 0.455322C7.34902 0.455322 8.52714 0.937754 9.49201 1.90261C10.4567 2.86748 10.9391 4.04539 10.9391 5.43636C10.9391 6.01845 10.8413 6.57921 10.6458 7.11866C10.4502 7.65824 10.1892 8.12532 9.86284 8.51991L14.6201 13.2659C14.7312 13.3766 14.7881 13.5123 14.7908 13.6728C14.7934 13.8334 14.7351 13.9727 14.6158 14.0907C14.4963 14.2088 14.3583 14.2678 14.2018 14.2678C14.0453 14.2678 13.9089 14.2097 13.7926 14.0934L9.03992 9.33574C8.62701 9.67977 8.15187 9.94518 7.61451 10.132C7.07714 10.3187 6.52694 10.412 5.96388 10.412ZM5.96076 9.24616C7.02742 9.24616 7.92951 8.87796 8.66701 8.14157C9.40451 7.40505 9.77326 6.50227 9.77326 5.43324C9.77326 4.36407 9.40451 3.46143 8.66701 2.72532C7.92951 1.98921 7.02673 1.62116 5.95867 1.62116C4.89062 1.62116 3.98853 1.98935 3.25242 2.72574C2.51631 3.46213 2.14826 4.36491 2.14826 5.43407C2.14826 6.50324 2.51638 7.40588 3.25263 8.14199C3.98902 8.8781 4.89173 9.24616 5.96076 9.24616Z" fill="#5F6368"/>
</svg>
