<svg width="20" height="20" viewBox="0 0 20 20" fill="none" xmlns="http://www.w3.org/2000/svg">
<path d="M8.29802 1.0415H8.34497C8.69014 1.0415 8.96997 1.32133 8.96997 1.6665C8.96997 2.01168 8.69014 2.2915 8.34497 2.2915C6.75323 2.2915 5.62219 2.29283 4.76413 2.40799C3.92393 2.52075 3.43969 2.73227 3.0862 3.08514C2.73287 3.43786 2.52118 3.92081 2.40829 4.75902C2.29296 5.61532 2.29163 6.74412 2.29163 8.33317C2.29163 9.92222 2.29296 11.051 2.40829 11.9073C2.52118 12.7455 2.73287 13.2285 3.0862 13.5812C3.43969 13.9341 3.92393 14.1456 4.76413 14.2584C5.62219 14.3735 6.75323 14.3748 8.34497 14.3748H11.6841C13.2759 14.3748 14.4069 14.3735 15.265 14.2584C16.1052 14.1456 16.5894 13.9341 16.9429 13.5812C17.4333 13.0916 17.6442 12.3597 17.7088 10.8072C17.7232 10.4623 18.0144 10.1944 18.3593 10.2087C18.7042 10.2231 18.9721 10.5143 18.9578 10.8591C18.8925 12.4272 18.6849 13.6085 17.826 14.4659C17.2015 15.0893 16.4097 15.3659 15.4313 15.4972C14.4804 15.6249 13.2654 15.6248 11.7311 15.6248H10.625V17.7082H13.3333C13.6785 17.7082 13.9583 17.988 13.9583 18.3332C13.9583 18.6783 13.6785 18.9582 13.3333 18.9582H6.66663C6.32145 18.9582 6.04163 18.6783 6.04163 18.3332C6.04163 17.988 6.32145 17.7082 6.66663 17.7082H9.37496V15.6248H8.29803C6.76377 15.6248 5.54871 15.6249 4.59785 15.4972C3.61944 15.3659 2.82763 15.0893 2.20309 14.4659C1.57841 13.8423 1.30109 13.0514 1.16947 12.0742C1.0416 11.1248 1.04161 9.91167 1.04163 8.38027V8.28608C1.04161 6.75468 1.0416 5.54159 1.16947 4.59218C1.30109 3.61496 1.57841 2.82408 2.20309 2.20049C2.82763 1.57705 3.61944 1.30041 4.59785 1.1691C5.54871 1.04148 6.76375 1.04149 8.29802 1.0415Z" fill="#773DBD"/>
<path d="M8.54163 12.4998C8.54163 12.1547 8.82145 11.8748 9.16663 11.8748H10.8333C11.1785 11.8748 11.4583 12.1547 11.4583 12.4998C11.4583 12.845 11.1785 13.1248 10.8333 13.1248H9.16663C8.82145 13.1248 8.54163 12.845 8.54163 12.4998Z" fill="#773DBD"/>
<path fill-rule="evenodd" clip-rule="evenodd" d="M14.5826 1.0415C13.8485 1.0415 13.2574 1.27843 12.769 1.5188C12.6069 1.59858 12.4647 1.67317 12.3341 1.74165C12.0396 1.89609 11.8042 2.01949 11.5338 2.10147L11.5162 2.1068C11.3462 2.1583 11.1916 2.20517 11.0712 2.24999C10.9663 2.28902 10.777 2.36322 10.6311 2.51721C10.502 2.65352 10.4402 2.80341 10.4043 2.92305C10.3743 3.02291 10.3524 3.13878 10.3336 3.23765L10.3301 3.25626C9.81345 5.97846 10.9519 8.59839 13.7343 9.61041L13.7552 9.61803C14.0111 9.71119 14.2317 9.79151 14.5839 9.7915C14.9362 9.7915 15.1567 9.71119 15.4126 9.61802L15.4335 9.6104C18.216 8.5983 19.3532 5.97821 18.8364 3.25622L18.8329 3.2376C18.8142 3.13872 18.7922 3.02283 18.7622 2.92297C18.7263 2.80332 18.6645 2.65342 18.5354 2.51711C18.3895 2.36312 18.2001 2.28895 18.0953 2.24992C17.9749 2.20512 17.8202 2.15827 17.6503 2.1068L17.6327 2.10147C17.3621 2.01948 17.1265 1.89603 16.8317 1.74154C16.701 1.67308 16.5587 1.59851 16.3966 1.51876C15.908 1.27842 15.3168 1.0415 14.5826 1.0415ZM11.8964 3.29772C12.2882 3.17894 12.6817 2.97258 13.0152 2.7977C13.1243 2.74048 13.2269 2.68663 13.321 2.64032C13.742 2.43314 14.1295 2.2915 14.5826 2.2915C15.0358 2.2915 15.4236 2.43318 15.8449 2.64041C15.939 2.68673 16.0418 2.74058 16.151 2.7978C16.4846 2.97269 16.8783 3.17902 17.2703 3.29778C17.4143 3.34141 17.5156 3.37228 17.5907 3.39739C17.5959 3.42371 17.6016 3.45373 17.6084 3.48938C18.0308 5.71428 17.1177 7.66767 15.0063 8.4357C14.7453 8.5306 14.7053 8.5415 14.5839 8.5415C14.4625 8.54151 14.4225 8.53061 14.1616 8.4357C12.0497 7.6676 11.1359 5.71405 11.5582 3.48935C11.565 3.45371 11.5707 3.42371 11.5758 3.39741C11.6509 3.37228 11.7523 3.34139 11.8964 3.29772Z" fill="#773DBD"/>
</svg>
