<svg width="40" height="40" viewBox="0 0 40 40" fill="none" xmlns="http://www.w3.org/2000/svg">
<path d="M0 20C0 8.95431 8.95431 0 20 0C31.0457 0 40 8.95431 40 20C40 31.0457 31.0457 40 20 40C8.95431 40 0 31.0457 0 20Z" fill="#079455" fill-opacity="0.1"/>
<path d="M23.7939 17.9222C24.0271 17.6677 24.0099 17.2724 23.7555 17.0391C23.501 16.8059 23.1057 16.8231 22.8724 17.0775L18.7302 21.5963L17.1084 19.9746C16.8644 19.7305 16.4686 19.7305 16.2246 19.9746C15.9805 20.2186 15.9805 20.6144 16.2246 20.8584L18.3079 22.9418C18.4284 23.0623 18.593 23.1284 18.7634 23.1247C18.9338 23.121 19.0954 23.0478 19.2106 22.9222L23.7939 17.9222Z" fill="#079455"/>
<path fill-rule="evenodd" clip-rule="evenodd" d="M19.9998 28.9582C15.0523 28.9582 11.0415 24.9474 11.0415 19.9998C11.0415 15.0523 15.0523 11.0415 19.9998 11.0415C24.9474 11.0415 28.9582 15.0523 28.9582 19.9998C28.9582 24.9474 24.9474 28.9582 19.9998 28.9582ZM12.2915 19.9998C12.2915 24.257 15.7426 27.7082 19.9998 27.7082C24.257 27.7082 27.7082 24.257 27.7082 19.9998C27.7082 15.7426 24.257 12.2915 19.9998 12.2915C15.7426 12.2915 12.2915 15.7426 12.2915 19.9998Z" fill="#079455"/>
</svg>
