<svg width="20" height="20" viewBox="0 0 20 20" fill="none" xmlns="http://www.w3.org/2000/svg">
<path opacity="0.4" d="M4.98705 1.07055C5.06984 1.13484 5.08328 1.24963 5.11017 1.47922L5.17673 2.04766L5.18069 2.07142C5.2573 2.53135 5.33439 2.99412 5.42925 3.31274C5.53322 3.66196 5.69013 3.98839 5.99261 4.24463C6.29509 4.50087 6.64288 4.60198 7.00444 4.64713C7.34001 4.68902 7.75242 4.689 8.22659 4.68897H9.89805C10.3722 4.689 10.7846 4.68902 11.1202 4.64713C11.4818 4.60198 11.8296 4.50087 12.132 4.24463C12.4345 3.98839 12.5914 3.66196 12.6954 3.31274C12.7906 2.99285 12.8675 2.53134 12.9444 2.06971L12.9474 2.05157L13.0184 1.47661C13.0466 1.24841 13.0607 1.1343 13.1434 1.07056C13.2261 1.00682 13.3355 1.02161 13.5545 1.05118L13.6005 1.05754C14.4701 1.18061 15.1836 1.44212 15.7447 2.03274C16.3015 2.61884 16.5441 3.35661 16.659 4.25632C16.7709 5.13198 16.7709 6.25026 16.7709 7.6597L16.7705 11.0762C16.7704 11.2326 16.7704 11.3109 16.7332 11.3712C16.6959 11.4316 16.6217 11.4688 16.4734 11.5431C15.7892 11.886 15.1772 12.3493 14.6666 12.7971C13.9789 13.4002 13.3512 14.0862 12.832 14.7085C12.7867 14.7629 12.764 14.7901 12.7422 14.8069C12.678 14.8563 12.61 14.8708 12.5313 14.8519C12.5045 14.8455 12.4691 14.8282 12.3982 14.7935C12.2131 14.703 12.0341 14.6358 11.8652 14.5874L11.8643 14.5872L11.8611 14.5862C11.8326 14.578 11.4884 14.4806 11.1475 14.4806C9.99689 14.4806 9.06415 15.4133 9.06415 16.5639C9.06415 17.4986 9.67901 18.2887 10.5269 18.553C10.5563 18.5622 10.5716 18.5646 10.5905 18.5889C10.671 18.6924 10.6001 18.8556 10.469 18.8556H7.76393C6.43026 18.8557 5.36261 18.8557 4.52457 18.7371C3.65497 18.614 2.94142 18.3525 2.38034 17.7619C1.82354 17.1758 1.58092 16.438 1.46601 15.5383C1.35417 14.6626 1.35418 13.5443 1.35419 12.1349V7.65967C1.35418 6.25025 1.35417 5.13197 1.46601 4.25632C1.58092 3.35661 1.82354 2.61884 2.38034 2.03274C2.94142 1.44212 3.65497 1.18061 4.52457 1.05754L4.57404 1.05071C4.79419 1.02108 4.90426 1.00627 4.98705 1.07055Z" fill="#773DBD"/>
<path d="M11.7301 1.02554C11.8042 1.10984 11.7883 1.23886 11.7564 1.49691L11.7087 1.88377C11.6241 2.39099 11.5685 2.71623 11.4975 2.95461C11.4309 3.1783 11.3714 3.2494 11.3242 3.28939C11.277 3.32937 11.1971 3.37637 10.9655 3.40529C10.7166 3.43636 10.3831 3.4375 9.86134 3.4375H8.26364C7.74186 3.4375 7.40837 3.43636 7.15946 3.40529C6.92787 3.37637 6.84795 3.32937 6.80075 3.28939C6.75354 3.2494 6.69405 3.17829 6.62745 2.9546C6.55657 2.71653 6.50102 2.39182 6.41665 1.88572L6.37076 1.49383C6.34069 1.23703 6.32565 1.10863 6.39972 1.02491C6.4738 0.941198 6.60227 0.940491 6.8592 0.939075C7.14598 0.937495 7.44741 0.937498 7.76361 0.9375H10.3613C10.6783 0.937498 10.981 0.937495 11.2684 0.939087C11.5268 0.940519 11.656 0.941234 11.7301 1.02554Z" fill="#773DBD"/>
<path d="M5.10577 9.0625C5.10577 8.71732 5.3856 8.4375 5.73077 8.4375H12.3974C12.7426 8.4375 13.0224 8.71732 13.0224 9.0625C13.0224 9.40768 12.7426 9.6875 12.3974 9.6875H5.73077C5.3856 9.6875 5.10577 9.40768 5.10577 9.0625Z" fill="#773DBD"/>
<path d="M5.10577 13.2292C5.10577 12.884 5.3856 12.6042 5.73077 12.6042H9.06411C9.40929 12.6042 9.68911 12.884 9.68911 13.2292C9.68911 13.5743 9.40929 13.8542 9.06411 13.8542H5.73077C5.3856 13.8542 5.10577 13.5743 5.10577 13.2292Z" fill="#773DBD"/>
<path d="M18.0907 14.0149C18.5245 13.8613 18.7517 13.385 18.598 12.9512C18.4444 12.5174 17.9681 12.2902 17.5343 12.4439C16.8025 12.703 16.103 13.1973 15.4891 13.7357C14.8666 14.2816 14.2846 14.9154 13.7902 15.5081C13.4241 15.9469 13.1005 16.37 12.8378 16.7289C12.5972 16.4407 12.3575 16.2301 12.1289 16.0777C11.9002 15.9252 11.6912 15.837 11.518 15.7875C11.509 15.7849 11.4999 15.7823 11.4907 15.7795C11.4118 15.7563 11.3207 15.7294 11.1458 15.7294C10.6856 15.7294 10.3125 16.1025 10.3125 16.5627C10.3125 16.9967 10.6441 17.3531 11.0678 17.3925C11.0867 17.3988 11.1341 17.4176 11.2044 17.4644C11.3705 17.5751 11.6999 17.8676 12.0671 18.6021C12.2014 18.8707 12.4699 19.0463 12.7699 19.0616C13.0697 19.077 13.3548 18.9297 13.5159 18.6763C13.5892 18.5662 13.806 18.2409 13.9437 18.0459C14.2195 17.6551 14.6102 17.127 15.07 16.5757C15.5315 16.0225 16.0525 15.4584 16.588 14.9887C17.1323 14.5115 17.646 14.1724 18.0907 14.0149Z" fill="#773DBD"/>
</svg>
