<svg width="12" height="14" viewBox="0 0 12 14" fill="none" xmlns="http://www.w3.org/2000/svg">
<path d="M2.52659 13.2236C2.17384 13.2236 1.87234 13.0985 1.62209 12.8482C1.37172 12.598 1.24653 12.2964 1.24653 11.9435V2.54547H1.03822C0.892719 2.54547 0.768594 2.4941 0.665844 2.39135C0.563094 2.28847 0.511719 2.16491 0.511719 2.02066C0.511719 1.87641 0.563094 1.75291 0.665844 1.65016C0.768594 1.54754 0.892719 1.49622 1.03822 1.49622H3.78078V1.48685C3.78078 1.31722 3.84228 1.17085 3.96528 1.04772C4.08841 0.924599 4.23603 0.863037 4.40816 0.863037H7.61141C7.78116 0.863037 7.92759 0.924599 8.05072 1.04772C8.17372 1.17085 8.23522 1.31722 8.23522 1.48685V1.49622H10.9828C11.125 1.49622 11.2474 1.54772 11.3502 1.65072C11.4529 1.75372 11.5043 1.8766 11.5043 2.01935C11.5043 2.16485 11.4528 2.28891 11.3498 2.39154C11.2469 2.49416 11.1241 2.54547 10.9813 2.54547H10.7693V11.9435C10.7693 12.2964 10.6442 12.598 10.3939 12.8482C10.1437 13.0985 9.84216 13.2236 9.48941 13.2236H2.52659ZM9.72003 2.54547H2.29578V11.9435C2.29578 12.0109 2.31741 12.0662 2.36066 12.1095C2.40403 12.1527 2.45934 12.1743 2.52659 12.1743H9.48941C9.55666 12.1743 9.61191 12.1527 9.65516 12.1095C9.69841 12.0662 9.72003 12.0109 9.72003 11.9435V2.54547ZM4.65397 10.6953C4.79722 10.6953 4.92041 10.6445 5.02353 10.5429C5.12666 10.4414 5.17822 10.3179 5.17822 10.1724V4.54741C5.17822 4.40204 5.12672 4.27797 5.02372 4.17522C4.92084 4.07247 4.79803 4.0211 4.65528 4.0211C4.50978 4.0211 4.38566 4.07247 4.28291 4.17522C4.18028 4.27797 4.12897 4.40204 4.12897 4.54741V10.1724C4.12897 10.3179 4.18066 10.4414 4.28403 10.5429C4.38741 10.6445 4.51072 10.6953 4.65397 10.6953ZM7.36259 10.6953C7.50584 10.6953 7.62903 10.6445 7.73216 10.5429C7.83528 10.4414 7.88684 10.3179 7.88684 10.1724V4.54741C7.88684 4.40204 7.83541 4.27797 7.73253 4.17522C7.62953 4.07247 7.50665 4.0211 7.3639 4.0211C7.2184 4.0211 7.09434 4.07247 6.99172 4.17522C6.88897 4.27797 6.83759 4.40204 6.83759 4.54741V10.1724C6.83759 10.3179 6.88928 10.4414 6.99266 10.5429C7.09603 10.6445 7.21934 10.6953 7.36259 10.6953Z" fill="#FF003D"/>
</svg>
