<svg width="12" height="15" viewBox="0 0 12 15" fill="none" xmlns="http://www.w3.org/2000/svg">
<path d="M1.79178 14.9735C1.43853 14.9735 1.13691 14.8485 0.886906 14.5985C0.636781 14.3484 0.511719 14.0467 0.511719 13.6935V6.74605C0.511719 6.3928 0.636781 6.09111 0.886906 5.84098C1.13691 5.59098 1.43853 5.46598 1.79178 5.46598H2.73153V4.00029C2.73153 3.08754 3.04878 2.31386 3.68328 1.67923C4.31791 1.04461 5.09028 0.727295 6.00041 0.727295C6.91053 0.727295 7.68291 1.04461 8.31753 1.67923C8.95203 2.31386 9.26928 3.08754 9.26928 4.00029V5.46598H10.209C10.5623 5.46598 10.8639 5.59098 11.1139 5.84098C11.364 6.09111 11.4891 6.3928 11.4891 6.74605V13.6935C11.4891 14.0467 11.364 14.3484 11.1139 14.5985C10.8639 14.8485 10.5623 14.9735 10.209 14.9735H1.79178ZM1.79178 13.9243H10.209C10.2764 13.9243 10.3317 13.9027 10.375 13.8594C10.4182 13.8162 10.4398 13.7609 10.4398 13.6935V6.74605C10.4398 6.67867 10.4182 6.62336 10.375 6.58011C10.3317 6.53686 10.2764 6.51523 10.209 6.51523H1.79178C1.72441 6.51523 1.66909 6.53686 1.62584 6.58011C1.58259 6.62336 1.56097 6.67867 1.56097 6.74605V13.6935C1.56097 13.7609 1.58259 13.8162 1.62584 13.8594C1.66909 13.9027 1.72441 13.9243 1.79178 13.9243ZM5.99984 11.4868C6.35159 11.4868 6.65078 11.3637 6.89741 11.1174C7.14416 10.8712 7.26753 10.5722 7.26753 10.2204C7.26753 9.86867 7.14434 9.56942 6.89797 9.32267C6.65172 9.07605 6.35272 8.95273 6.00097 8.95273C5.64922 8.95273 5.35003 9.07586 5.10341 9.32211C4.85666 9.56836 4.73328 9.86736 4.73328 10.2191C4.73328 10.5709 4.85647 10.8701 5.10284 11.1169C5.34909 11.3635 5.64809 11.4868 5.99984 11.4868ZM3.78078 5.46598H8.22003V3.99392C8.22003 3.38055 8.00441 2.85761 7.57316 2.42511C7.14191 1.99273 6.61828 1.77655 6.00228 1.77655C5.38616 1.77655 4.86184 1.99248 4.42934 2.42436C3.99697 2.85623 3.78078 3.38067 3.78078 3.99767V5.46598Z" fill="#FF003D"/>
</svg>
