<svg width="20" height="20" viewBox="0 0 20 20" fill="none" xmlns="http://www.w3.org/2000/svg">
<path fill-rule="evenodd" clip-rule="evenodd" d="M7.50001 1.875C5.31388 1.875 3.54167 3.64721 3.54167 5.83333C3.54167 8.01946 5.31388 9.79167 7.50001 9.79167C9.68613 9.79167 11.4583 8.01946 11.4583 5.83333C11.4583 3.64721 9.68613 1.875 7.50001 1.875ZM4.79167 5.83333C4.79167 4.33756 6.00423 3.125 7.50001 3.125C8.99578 3.125 10.2083 4.33756 10.2083 5.83333C10.2083 7.3291 8.99578 8.54167 7.50001 8.54167C6.00423 8.54167 4.79167 7.3291 4.79167 5.83333Z" fill="#773DBD"/>
<path d="M12.5 1.875C12.1548 1.875 11.875 2.15482 11.875 2.5C11.875 2.84518 12.1548 3.125 12.5 3.125C13.9958 3.125 15.2083 4.33756 15.2083 5.83333C15.2083 7.3291 13.9958 8.54167 12.5 8.54167C12.1548 8.54167 11.875 8.82149 11.875 9.16667C11.875 9.51184 12.1548 9.79167 12.5 9.79167C14.6861 9.79167 16.4583 8.01946 16.4583 5.83333C16.4583 3.64721 14.6861 1.875 12.5 1.875Z" fill="#773DBD"/>
<path fill-rule="evenodd" clip-rule="evenodd" d="M1.04167 15.8333C1.04167 13.187 3.18697 11.0417 5.83334 11.0417H9.16667C11.813 11.0417 13.9583 13.187 13.9583 15.8333C13.9583 17.099 12.9323 18.125 11.6667 18.125H3.33334C2.06769 18.125 1.04167 17.099 1.04167 15.8333ZM5.83334 12.2917C3.87733 12.2917 2.29167 13.8773 2.29167 15.8333C2.29167 16.4086 2.75804 16.875 3.33334 16.875H11.6667C12.242 16.875 12.7083 16.4086 12.7083 15.8333C12.7083 13.8773 11.1227 12.2917 9.16667 12.2917H5.83334Z" fill="#773DBD"/>
<path d="M14.1667 11.0417C13.8215 11.0417 13.5417 11.3215 13.5417 11.6667C13.5417 12.0118 13.8215 12.2917 14.1667 12.2917C16.1227 12.2917 17.7083 13.8773 17.7083 15.8333C17.7083 16.4086 17.242 16.875 16.6667 16.875H15.4167C15.0715 16.875 14.7917 17.1548 14.7917 17.5C14.7917 17.8452 15.0715 18.125 15.4167 18.125H16.6667C17.9323 18.125 18.9583 17.099 18.9583 15.8333C18.9583 13.187 16.813 11.0417 14.1667 11.0417Z" fill="#773DBD"/>
</svg>
