<svg width="20" height="20" viewBox="0 0 20 20" fill="none" xmlns="http://www.w3.org/2000/svg">
<path d="M9.79207 1.04102C7.37585 1.04102 5.41709 2.99977 5.41709 5.41602C5.41709 7.83226 7.37585 9.79102 9.79207 9.79102C12.2083 9.79102 14.1671 7.83226 14.1671 5.41602C14.1671 2.99977 12.2083 1.04102 9.79207 1.04102Z" fill="#773DBD"/>
<path d="M14.9795 12.5636C14.8453 12.4879 14.7267 12.4209 14.6306 12.3637C11.6689 10.6001 7.91541 10.6001 4.9537 12.3637C4.85677 12.4214 4.73703 12.489 4.60148 12.5655C4.00747 12.9005 3.10955 13.4071 2.49441 14.0092C2.10968 14.3858 1.74414 14.882 1.67768 15.49C1.60701 16.1365 1.88906 16.7433 2.45491 17.2824C3.43112 18.2124 4.60261 18.9577 6.11786 18.9577H13.4664C14.9817 18.9577 16.1532 18.2124 17.1294 17.2824C17.6952 16.7433 17.9773 16.1365 17.9066 15.49C17.8401 14.882 17.4746 14.3858 17.0899 14.0092C16.4747 13.4071 15.5768 12.9005 14.9828 12.5655L14.9795 12.5636Z" fill="#773DBD"/>
</svg>
