<svg width="18" height="18" viewBox="0 0 18 18" fill="none" xmlns="http://www.w3.org/2000/svg">
<path fill-rule="evenodd" clip-rule="evenodd" d="M9 0.0410156C6.58375 0.0410156 4.625 1.99977 4.625 4.41602C4.625 6.83226 6.58375 8.79102 9 8.79102C11.4162 8.79102 13.375 6.83226 13.375 4.41602C13.375 1.99977 11.4162 0.0410156 9 0.0410156ZM5.875 4.41602C5.875 2.69013 7.27411 1.29102 9 1.29102C10.7259 1.29102 12.125 2.69013 12.125 4.41602C12.125 6.14191 10.7259 7.54102 9 7.54102C7.27411 7.54102 5.875 6.14191 5.875 4.41602Z" fill="#773DBD"/>
<path fill-rule="evenodd" clip-rule="evenodd" d="M9 10.041C4.58392 10.041 0.875 13.2384 0.875 17.3327V17.9577H17.125V17.3327C17.125 13.2384 13.4161 10.041 9 10.041ZM9 11.291C12.619 11.291 15.4841 13.7175 15.8381 16.7077H2.16185C2.51593 13.7175 5.38096 11.291 9 11.291Z" fill="#773DBD"/>
</svg>
