<svg width="30" height="30" viewBox="0 0 30 30" fill="none" xmlns="http://www.w3.org/2000/svg">
<rect width="30" height="30" rx="3" fill="#773DBD"/>
<path fill-rule="evenodd" clip-rule="evenodd" d="M19.573 8.78027C18.7108 8.78027 18.0156 9.48189 18.0156 10.3428C18.0156 11.2037 18.7108 11.9053 19.573 11.9053C20.4352 11.9053 21.1304 11.2037 21.1304 10.3428C21.1304 9.48189 20.4352 8.78027 19.573 8.78027ZM18.9531 10.3428C18.9531 9.99554 19.2327 9.71777 19.573 9.71777C19.9133 9.71777 20.1929 9.99554 20.1929 10.3428C20.1929 10.69 19.9133 10.9678 19.573 10.9678C19.2327 10.9678 18.9531 10.69 18.9531 10.3428Z" fill="white"/>
<path fill-rule="evenodd" clip-rule="evenodd" d="M19.5729 12.2178C18.1095 12.2178 16.9268 13.4091 16.9268 14.874V15.3428H22.219V14.874C22.219 13.4091 21.0364 12.2178 19.5729 12.2178ZM19.5729 13.1553C20.3536 13.1553 21.0143 13.6828 21.2173 14.4053H17.9286C18.1316 13.6828 18.7923 13.1553 19.5729 13.1553Z" fill="white"/>
<path d="M12.4157 15.1865H13.6713V16.4365H12.4157V15.1865Z" fill="white"/>
<path d="M14.9014 15.1865H16.1569V16.4365H14.9014V15.1865Z" fill="white"/>
<path d="M16.126 10.3395L13.885 10.4086C11.6464 10.8025 10.4075 12.2584 9.93736 13.9619C9.45717 15.7017 9.78935 17.6743 10.6992 18.9852L10.8438 19.1935L10.1149 20.9915L12.1675 20.305L12.3567 20.4268C12.6263 20.6006 13.052 20.7513 13.5945 20.8592C14.1288 20.9654 14.7426 21.0234 15.3628 21.0325C15.9828 21.0416 16.5988 21.0016 17.137 20.9163C17.6831 20.8297 18.1166 20.7013 18.3924 20.552L18.4086 20.5433L18.4254 20.5358C19.3894 20.1078 21.1587 18.8628 21.2767 16.4829L22.2131 16.5293C22.0706 19.4035 19.9424 20.8829 18.8221 21.3854C18.4129 21.6029 17.8665 21.7498 17.2838 21.8422C16.6853 21.9371 16.015 21.9797 15.3491 21.9699C14.6834 21.9602 14.0118 21.898 13.4117 21.7787C12.9114 21.6792 12.4355 21.5353 12.0509 21.3325L9.50333 22.1846C9.47868 22.1939 9.42317 22.2128 9.35706 22.2183C9.315 22.2217 9.21667 22.2249 9.10785 22.1723C8.97603 22.1085 8.89329 21.995 8.85907 21.8787C8.83115 21.7839 8.84004 21.7047 8.84459 21.673C8.84994 21.6356 8.85858 21.606 8.8631 21.5913C8.87084 21.5662 8.88083 21.5407 8.88407 21.5325L8.88478 21.5306L8.8873 21.5243L9.78715 19.3047C8.81877 17.7611 8.50934 15.6121 9.03365 13.7125C9.59057 11.6947 11.0986 9.93335 13.7586 9.47907L13.7906 9.47361L16.0971 9.40245L16.126 10.3395Z" fill="white"/>
</svg>
