<svg width="4" height="14" viewBox="0 0 4 14" fill="none" xmlns="http://www.w3.org/2000/svg">
<path d="M2.00043 13.2258C1.66362 13.2258 1.37668 13.1074 1.1396 12.8704C0.902652 12.6333 0.78418 12.3464 0.78418 12.0096C0.78418 11.6728 0.902652 11.3858 1.1396 11.1488C1.37668 10.9118 1.66362 10.7933 2.00043 10.7933C2.33724 10.7933 2.62418 10.9118 2.86126 11.1488C3.09821 11.3858 3.21668 11.6728 3.21668 12.0096C3.21668 12.3464 3.09821 12.6333 2.86126 12.8704C2.62418 13.1074 2.33724 13.2258 2.00043 13.2258ZM2.00043 8.21625C1.66362 8.21625 1.37668 8.09778 1.1396 7.86084C0.902652 7.62375 0.78418 7.33681 0.78418 7C0.78418 6.6632 0.902652 6.37625 1.1396 6.13917C1.37668 5.90223 1.66362 5.78375 2.00043 5.78375C2.33724 5.78375 2.62418 5.90223 2.86126 6.13917C3.09821 6.37625 3.21668 6.6632 3.21668 7C3.21668 7.33681 3.09821 7.62375 2.86126 7.86084C2.62418 8.09778 2.33724 8.21625 2.00043 8.21625ZM2.00043 3.20667C1.66362 3.20667 1.37668 3.0882 1.1396 2.85125C0.902652 2.61417 0.78418 2.32723 0.78418 1.99042C0.78418 1.65361 0.902652 1.36667 1.1396 1.12959C1.37668 0.892642 1.66362 0.77417 2.00043 0.77417C2.33724 0.77417 2.62418 0.892642 2.86126 1.12959C3.09821 1.36667 3.21668 1.65361 3.21668 1.99042C3.21668 2.32723 3.09821 2.61417 2.86126 2.85125C2.62418 3.0882 2.33724 3.20667 2.00043 3.20667Z" fill="#1B1B1B"/>
</svg>
