<svg width="46" height="46" viewBox="0 0 46 46" fill="none" xmlns="http://www.w3.org/2000/svg">
<path fill-rule="evenodd" clip-rule="evenodd" d="M2.16669 0.604248C1.30374 0.604248 0.604187 1.3038 0.604187 2.16675V18.8334C0.604187 19.6964 1.30374 20.3959 2.16669 20.3959H18.8334C19.6963 20.3959 20.3959 19.6964 20.3959 18.8334V2.16675C20.3959 1.3038 19.6963 0.604248 18.8334 0.604248H2.16669ZM3.72919 17.2709V3.72925H17.2709V17.2709H3.72919Z" fill="#773DBD"/>
<path d="M33.9375 1.12508V8.93758H26.125V12.0626H33.9375V19.8751H37.0625V12.0626H44.875V8.93758H37.0625V1.12508H33.9375Z" fill="#773DBD"/>
<path fill-rule="evenodd" clip-rule="evenodd" d="M0.604187 27.1667C0.604187 26.3038 1.30374 25.6042 2.16669 25.6042H18.8334C19.6963 25.6042 20.3959 26.3038 20.3959 27.1667V43.8334C20.3959 44.6964 19.6963 45.3959 18.8334 45.3959H2.16669C1.30374 45.3959 0.604187 44.6964 0.604187 43.8334V27.1667ZM3.72919 28.7292V42.2709H17.2709V28.7292H3.72919Z" fill="#773DBD"/>
<path fill-rule="evenodd" clip-rule="evenodd" d="M27.1667 25.6042C26.3037 25.6042 25.6042 26.3038 25.6042 27.1667V43.8334C25.6042 44.6964 26.3037 45.3959 27.1667 45.3959H43.8334C44.6963 45.3959 45.3959 44.6964 45.3959 43.8334V27.1667C45.3959 26.3038 44.6963 25.6042 43.8334 25.6042H27.1667ZM28.7292 42.2709V28.7292H42.2709V42.2709H28.7292Z" fill="#773DBD"/>
</svg>
