<svg width="30" height="30" viewBox="0 0 30 30" fill="none" xmlns="http://www.w3.org/2000/svg">
<rect width="30" height="30" rx="3" fill="#773DBD"/>
<path fill-rule="evenodd" clip-rule="evenodd" d="M11.0853 8.78125H11.0397C10.5777 8.78124 10.198 8.78124 9.89081 8.81044C9.5716 8.84079 9.28263 8.90596 9.01979 9.06703C8.75884 9.22694 8.53944 9.44634 8.37953 9.70729C8.21846 9.97013 8.15329 10.2591 8.12294 10.5783C8.09374 10.8855 8.09374 11.2652 8.09375 11.7272V11.7728C8.09374 12.2348 8.09374 12.6145 8.12294 12.9217C8.15329 13.2409 8.21846 13.5299 8.37953 13.7927C8.53944 14.0537 8.75884 14.2731 9.01979 14.433C9.28263 14.594 9.5716 14.6592 9.89081 14.6896C10.198 14.7188 10.5777 14.7188 11.0396 14.7188H11.0854C11.5473 14.7188 11.927 14.7188 12.2342 14.6896C12.5534 14.6592 12.8424 14.594 13.1052 14.433C13.3662 14.2731 13.5856 14.0537 13.7455 13.7927C13.9065 13.5299 13.9717 13.2409 14.0021 12.9217C14.0313 12.6145 14.0313 12.2348 14.0313 11.7729V11.7272C14.0313 11.2652 14.0313 10.8855 14.0021 10.5783C13.9717 10.2591 13.9065 9.97013 13.7455 9.70729C13.5856 9.44634 13.3662 9.22694 13.1052 9.06703C12.8424 8.90596 12.5534 8.84079 12.2342 8.81044C11.927 8.78124 11.5473 8.78124 11.0853 8.78125ZM9.50963 9.86638C9.60042 9.81075 9.72896 9.76756 9.97955 9.74373C10.2371 9.71925 10.572 9.71875 11.0625 9.71875C11.553 9.71875 11.8879 9.71925 12.1455 9.74373C12.396 9.76756 12.5246 9.81075 12.6154 9.86638C12.7502 9.94899 12.8635 10.0623 12.9461 10.1971C13.0018 10.2879 13.0449 10.4165 13.0688 10.667C13.0933 10.9246 13.0938 11.2595 13.0938 11.75C13.0938 12.2405 13.0933 12.5754 13.0688 12.833C13.0449 13.0835 13.0018 13.2121 12.9461 13.3029C12.8635 13.4377 12.7502 13.551 12.6154 13.6336C12.5246 13.6893 12.396 13.7324 12.1455 13.7563C11.8879 13.7808 11.553 13.7813 11.0625 13.7813C10.572 13.7813 10.2371 13.7808 9.97955 13.7563C9.72896 13.7324 9.60042 13.6893 9.50963 13.6336C9.37483 13.551 9.26149 13.4377 9.17888 13.3029C9.12325 13.2121 9.08006 13.0835 9.05623 12.833C9.03174 12.5754 9.03125 12.2405 9.03125 11.75C9.03125 11.2595 9.03174 10.9246 9.05623 10.667C9.08006 10.4165 9.12325 10.2879 9.17888 10.1971C9.26149 10.0623 9.37483 9.94899 9.50963 9.86638Z" fill="white"/>
<path fill-rule="evenodd" clip-rule="evenodd" d="M11.5019 15.7083C11.2131 15.6389 10.9119 15.6389 10.6231 15.7083C10.3312 15.7783 10.0881 15.9323 9.84946 16.1295C9.62019 16.3189 9.36165 16.5775 9.04819 16.891L9.01602 16.9231C8.70255 17.2366 8.44395 17.4952 8.25449 17.7245C8.05733 17.9631 7.90333 18.2062 7.83325 18.4981C7.76392 18.7869 7.76392 19.0881 7.83325 19.3769C7.90333 19.6688 8.05733 19.9119 8.25449 20.1505C8.44396 20.3798 8.70252 20.6384 9.01601 20.9519L9.04814 20.984C9.36159 21.2975 9.62019 21.5561 9.84946 21.7455C10.0881 21.9427 10.3312 22.0967 10.6231 22.1667C10.9119 22.2361 11.2131 22.2361 11.5019 22.1667C11.7938 22.0967 12.0369 21.9427 12.2755 21.7455C12.5048 21.5561 12.7634 21.2975 13.0768 20.984L13.109 20.9519C13.4225 20.6384 13.681 20.3798 13.8705 20.1505C14.0677 19.9119 14.2217 19.6688 14.2917 19.3769C14.3611 19.0881 14.3611 18.7869 14.2917 18.4981C14.2217 18.2062 14.0677 17.9631 13.8705 17.7245C13.681 17.4952 13.4225 17.2366 13.109 16.9231L13.0769 16.891C12.7634 16.5775 12.5048 16.319 12.2755 16.1295C12.0369 15.9323 11.7938 15.7783 11.5019 15.7083ZM10.842 16.6198C10.9869 16.5851 11.1381 16.5851 11.283 16.6198C11.3787 16.6428 11.4929 16.6989 11.6783 16.8522C11.8692 17.0099 12.0964 17.2364 12.43 17.57C12.7636 17.9036 12.9901 18.1308 13.1478 18.3217C13.3011 18.5071 13.3572 18.6213 13.3802 18.717C13.4149 18.8619 13.4149 19.0131 13.3802 19.158C13.3572 19.2537 13.3011 19.3679 13.1478 19.5533C12.9901 19.7442 12.7636 19.9714 12.43 20.305C12.0964 20.6386 11.8692 20.8651 11.6783 21.0228C11.4929 21.1761 11.3787 21.2322 11.283 21.2551C11.1381 21.2899 10.9869 21.2899 10.842 21.2551C10.7463 21.2322 10.6321 21.1761 10.4467 21.0228C10.2558 20.8651 10.0286 20.6386 9.69499 20.305C9.36143 19.9714 9.13488 19.7442 8.97717 19.5533C8.82392 19.3679 8.76782 19.2537 8.74485 19.158C8.71005 19.0131 8.71005 18.8619 8.74485 18.717C8.76782 18.6213 8.82392 18.5071 8.97717 18.3217C9.13488 18.1308 9.36143 17.9036 9.69499 17.57C10.0286 17.2364 10.2558 17.0099 10.4467 16.8522C10.6321 16.6989 10.7463 16.6428 10.842 16.6198Z" fill="white"/>
<path fill-rule="evenodd" clip-rule="evenodd" d="M17.0783 16.3104C17.3855 16.2812 17.7652 16.2812 18.2272 16.2812H18.2728C18.7348 16.2812 19.1145 16.2812 19.4217 16.3104C19.7409 16.3408 20.0299 16.406 20.2927 16.567C20.5537 16.7269 20.7731 16.9463 20.933 17.2073C21.094 17.4701 21.1592 17.7591 21.1896 18.0783C21.2188 18.3855 21.2188 18.7652 21.2188 19.2271V19.2729C21.2188 19.7348 21.2188 20.1145 21.1896 20.4217C21.1592 20.7409 21.094 21.0299 20.933 21.2927C20.7731 21.5537 20.5537 21.7731 20.2927 21.933C20.0299 22.094 19.7409 22.1592 19.4217 22.1896C19.1145 22.2188 18.7348 22.2188 18.2729 22.2188H18.2271C17.7652 22.2188 17.3855 22.2188 17.0783 22.1896C16.7591 22.1592 16.4701 22.094 16.2073 21.933C15.9463 21.7731 15.7269 21.5537 15.567 21.2927C15.406 21.0299 15.3408 20.7409 15.3104 20.4217C15.2812 20.1145 15.2812 19.7348 15.2812 19.2728V19.2272C15.2812 18.7652 15.2812 18.3855 15.3104 18.0783C15.3408 17.7591 15.406 17.4701 15.567 17.2073C15.7269 16.9463 15.9463 16.7269 16.2073 16.567C16.4701 16.406 16.7591 16.3408 17.0783 16.3104ZM17.167 17.2437C16.9165 17.2676 16.7879 17.3107 16.6971 17.3664C16.5623 17.449 16.449 17.5623 16.3664 17.6971C16.3107 17.7879 16.2676 17.9165 16.2437 18.167C16.2192 18.4246 16.2188 18.7595 16.2188 19.25C16.2188 19.7405 16.2192 20.0754 16.2437 20.333C16.2676 20.5835 16.3107 20.7121 16.3664 20.8029C16.449 20.9377 16.5623 21.051 16.6971 21.1336C16.7879 21.1893 16.9165 21.2324 17.167 21.2563C17.4246 21.2808 17.7595 21.2812 18.25 21.2812C18.7405 21.2812 19.0754 21.2808 19.333 21.2563C19.5835 21.2324 19.7121 21.1893 19.8029 21.1336C19.9377 21.051 20.051 20.9377 20.1336 20.8029C20.1893 20.7121 20.2324 20.5835 20.2563 20.333C20.2808 20.0754 20.2812 19.7405 20.2812 19.25C20.2812 18.7595 20.2808 18.4246 20.2563 18.167C20.2324 17.9165 20.1893 17.7879 20.1336 17.6971C20.051 17.5623 19.9377 17.449 19.8029 17.3664C19.7121 17.3107 19.5835 17.2676 19.333 17.2437C19.0754 17.2192 18.7405 17.2188 18.25 17.2188C17.7595 17.2188 17.4246 17.2192 17.167 17.2437Z" fill="white"/>
<path d="M18.7188 9.25C18.7188 8.99112 18.5089 8.78125 18.25 8.78125C17.9911 8.78125 17.7812 8.99112 17.7812 9.25V11.2813L15.75 11.2812C15.4911 11.2812 15.2812 11.4911 15.2812 11.75C15.2812 12.0089 15.4911 12.2188 15.75 12.2188H17.7812V14.25C17.7812 14.5089 17.9911 14.7188 18.25 14.7188C18.5089 14.7188 18.7188 14.5089 18.7188 14.25V12.2188H20.75C21.0089 12.2188 21.2188 12.0089 21.2188 11.75C21.2188 11.4911 21.0089 11.2813 20.75 11.2813H18.7188V9.25Z" fill="white"/>
</svg>
